<?xml version="1.0" encoding="utf-8" standalone="no"?>
<!DOCTYPE svg PUBLIC "-//W3C//DTD SVG 1.1//EN"
  "http://www.w3.org/Graphics/SVG/1.1/DTD/svg11.dtd">
<svg xmlns:xlink="http://www.w3.org/1999/xlink" width="955.003125pt" height="465.408pt" viewBox="0 0 955.003125 465.408" xmlns="http://www.w3.org/2000/svg" version="1.1">
 <metadata>
  <rdf:RDF xmlns:dc="http://purl.org/dc/elements/1.1/" xmlns:cc="http://creativecommons.org/ns#" xmlns:rdf="http://www.w3.org/1999/02/22-rdf-syntax-ns#">
   <cc:Work>
    <dc:type rdf:resource="http://purl.org/dc/dcmitype/StillImage"/>
    <dc:date>2026-04-06T22:53:24.583671</dc:date>
    <dc:format>image/svg+xml</dc:format>
    <dc:creator>
     <cc:Agent>
      <dc:title>Matplotlib v3.8.0, https://matplotlib.org/</dc:title>
     </cc:Agent>
    </dc:creator>
   </cc:Work>
  </rdf:RDF>
 </metadata>
 <defs>
  <style type="text/css">*{stroke-linejoin: round; stroke-linecap: butt}</style>
 </defs>
 <g id="figure_1">
  <g id="patch_1">
   <path d="M 0 465.408 
L 955.003125 465.408 
L 955.003125 0 
L 0 0 
z
" style="fill: #ffffff"/>
  </g>
  <g id="axes_1">
   <g id="patch_2">
    <path d="M 40.603125 311.904 
L 947.803125 311.904 
L 947.803125 64.224 
L 40.603125 64.224 
z
" style="fill: #ffffff"/>
   </g>
   <g id="patch_3">
    <path d="M 81.839489 311.904 
L 81.839489 64.224 
L 353.514355 64.224 
L 353.514355 311.904 
z
" clip-path="url(#p5539c1c79a)" style="fill: #dceaf7; opacity: 0.35; stroke: #dceaf7; stroke-linejoin: miter"/>
   </g>
   <g id="patch_4">
    <path d="M 356.74858 311.904 
L 356.74858 64.224 
L 631.65767 64.224 
L 631.65767 311.904 
z
" clip-path="url(#p5539c1c79a)" style="fill: #e7f3df; opacity: 0.35; stroke: #e7f3df; stroke-linejoin: miter"/>
   </g>
   <g id="patch_5">
    <path d="M 634.891895 311.904 
L 634.891895 64.224 
L 906.566761 64.224 
L 906.566761 311.904 
z
" clip-path="url(#p5539c1c79a)" style="fill: #f8e7d8; opacity: 0.35; stroke: #f8e7d8; stroke-linejoin: miter"/>
   </g>
   <g id="matplotlib.axis_1">
    <g id="xtick_1">
     <g id="line2d_1">
      <path d="M 81.839489 311.904 
L 81.839489 64.224 
" clip-path="url(#p5539c1c79a)" style="fill: none; stroke: #b0b0b0; stroke-opacity: 0.18; stroke-width: 0.8; stroke-linecap: square"/>
     </g>
     <g id="line2d_2">
      <defs>
       <path id="m733fd8576b" d="M 0 0 
L 0 3.5 
" style="stroke: #000000; stroke-width: 0.8"/>
      </defs>
      <g>
       <use xlink:href="#m733fd8576b" x="81.839489" y="311.904" style="stroke: #000000; stroke-width: 0.8"/>
      </g>
     </g>
     <g id="text_1">
      <!-- 0 -->
      <g transform="translate(78.658239 326.502437) scale(0.1 -0.1)">
       <defs>
        <path id="DejaVuSans-30" d="M 2034 4250 
Q 1547 4250 1301 3770 
Q 1056 3291 1056 2328 
Q 1056 1369 1301 889 
Q 1547 409 2034 409 
Q 2525 409 2770 889 
Q 3016 1369 3016 2328 
Q 3016 3291 2770 3770 
Q 2525 4250 2034 4250 
z
M 2034 4750 
Q 2819 4750 3233 4129 
Q 3647 3509 3647 2328 
Q 3647 1150 3233 529 
Q 2819 -91 2034 -91 
Q 1250 -91 836 529 
Q 422 1150 422 2328 
Q 422 3509 836 4129 
Q 1250 4750 2034 4750 
z
" transform="scale(0.015625)"/>
       </defs>
       <use xlink:href="#DejaVuSans-30"/>
      </g>
     </g>
    </g>
    <g id="xtick_2">
     <g id="line2d_3">
      <path d="M 243.550719 311.904 
L 243.550719 64.224 
" clip-path="url(#p5539c1c79a)" style="fill: none; stroke: #b0b0b0; stroke-opacity: 0.18; stroke-width: 0.8; stroke-linecap: square"/>
     </g>
     <g id="line2d_4">
      <g>
       <use xlink:href="#m733fd8576b" x="243.550719" y="311.904" style="stroke: #000000; stroke-width: 0.8"/>
      </g>
     </g>
     <g id="text_2">
      <!-- 50 -->
      <g transform="translate(237.188219 326.502437) scale(0.1 -0.1)">
       <defs>
        <path id="DejaVuSans-35" d="M 691 4666 
L 3169 4666 
L 3169 4134 
L 1269 4134 
L 1269 2991 
Q 1406 3038 1543 3061 
Q 1681 3084 1819 3084 
Q 2600 3084 3056 2656 
Q 3513 2228 3513 1497 
Q 3513 744 3044 326 
Q 2575 -91 1722 -91 
Q 1428 -91 1123 -41 
Q 819 9 494 109 
L 494 744 
Q 775 591 1075 516 
Q 1375 441 1709 441 
Q 2250 441 2565 725 
Q 2881 1009 2881 1497 
Q 2881 1984 2565 2268 
Q 2250 2553 1709 2553 
Q 1456 2553 1204 2497 
Q 953 2441 691 2322 
L 691 4666 
z
" transform="scale(0.015625)"/>
       </defs>
       <use xlink:href="#DejaVuSans-35"/>
       <use xlink:href="#DejaVuSans-30" x="63.623047"/>
      </g>
     </g>
    </g>
    <g id="xtick_3">
     <g id="line2d_5">
      <path d="M 405.261949 311.904 
L 405.261949 64.224 
" clip-path="url(#p5539c1c79a)" style="fill: none; stroke: #b0b0b0; stroke-opacity: 0.18; stroke-width: 0.8; stroke-linecap: square"/>
     </g>
     <g id="line2d_6">
      <g>
       <use xlink:href="#m733fd8576b" x="405.261949" y="311.904" style="stroke: #000000; stroke-width: 0.8"/>
      </g>
     </g>
     <g id="text_3">
      <!-- 100 -->
      <g transform="translate(395.718199 326.502437) scale(0.1 -0.1)">
       <defs>
        <path id="DejaVuSans-31" d="M 794 531 
L 1825 531 
L 1825 4091 
L 703 3866 
L 703 4441 
L 1819 4666 
L 2450 4666 
L 2450 531 
L 3481 531 
L 3481 0 
L 794 0 
L 794 531 
z
" transform="scale(0.015625)"/>
       </defs>
       <use xlink:href="#DejaVuSans-31"/>
       <use xlink:href="#DejaVuSans-30" x="63.623047"/>
       <use xlink:href="#DejaVuSans-30" x="127.246094"/>
      </g>
     </g>
    </g>
    <g id="xtick_4">
     <g id="line2d_7">
      <path d="M 566.973178 311.904 
L 566.973178 64.224 
" clip-path="url(#p5539c1c79a)" style="fill: none; stroke: #b0b0b0; stroke-opacity: 0.18; stroke-width: 0.8; stroke-linecap: square"/>
     </g>
     <g id="line2d_8">
      <g>
       <use xlink:href="#m733fd8576b" x="566.973178" y="311.904" style="stroke: #000000; stroke-width: 0.8"/>
      </g>
     </g>
     <g id="text_4">
      <!-- 150 -->
      <g transform="translate(557.429428 326.502437) scale(0.1 -0.1)">
       <use xlink:href="#DejaVuSans-31"/>
       <use xlink:href="#DejaVuSans-35" x="63.623047"/>
       <use xlink:href="#DejaVuSans-30" x="127.246094"/>
      </g>
     </g>
    </g>
    <g id="xtick_5">
     <g id="line2d_9">
      <path d="M 728.684408 311.904 
L 728.684408 64.224 
" clip-path="url(#p5539c1c79a)" style="fill: none; stroke: #b0b0b0; stroke-opacity: 0.18; stroke-width: 0.8; stroke-linecap: square"/>
     </g>
     <g id="line2d_10">
      <g>
       <use xlink:href="#m733fd8576b" x="728.684408" y="311.904" style="stroke: #000000; stroke-width: 0.8"/>
      </g>
     </g>
     <g id="text_5">
      <!-- 200 -->
      <g transform="translate(719.140658 326.502437) scale(0.1 -0.1)">
       <defs>
        <path id="DejaVuSans-32" d="M 1228 531 
L 3431 531 
L 3431 0 
L 469 0 
L 469 531 
Q 828 903 1448 1529 
Q 2069 2156 2228 2338 
Q 2531 2678 2651 2914 
Q 2772 3150 2772 3378 
Q 2772 3750 2511 3984 
Q 2250 4219 1831 4219 
Q 1534 4219 1204 4116 
Q 875 4013 500 3803 
L 500 4441 
Q 881 4594 1212 4672 
Q 1544 4750 1819 4750 
Q 2544 4750 2975 4387 
Q 3406 4025 3406 3419 
Q 3406 3131 3298 2873 
Q 3191 2616 2906 2266 
Q 2828 2175 2409 1742 
Q 1991 1309 1228 531 
z
" transform="scale(0.015625)"/>
       </defs>
       <use xlink:href="#DejaVuSans-32"/>
       <use xlink:href="#DejaVuSans-30" x="63.623047"/>
       <use xlink:href="#DejaVuSans-30" x="127.246094"/>
      </g>
     </g>
    </g>
    <g id="xtick_6">
     <g id="line2d_11">
      <path d="M 890.395638 311.904 
L 890.395638 64.224 
" clip-path="url(#p5539c1c79a)" style="fill: none; stroke: #b0b0b0; stroke-opacity: 0.18; stroke-width: 0.8; stroke-linecap: square"/>
     </g>
     <g id="line2d_12">
      <g>
       <use xlink:href="#m733fd8576b" x="890.395638" y="311.904" style="stroke: #000000; stroke-width: 0.8"/>
      </g>
     </g>
     <g id="text_6">
      <!-- 250 -->
      <g transform="translate(880.851888 326.502437) scale(0.1 -0.1)">
       <use xlink:href="#DejaVuSans-32"/>
       <use xlink:href="#DejaVuSans-35" x="63.623047"/>
       <use xlink:href="#DejaVuSans-30" x="127.246094"/>
      </g>
     </g>
    </g>
    <g id="text_7">
     <!-- Step Index -->
     <g transform="translate(467.4625 340.180562) scale(0.1 -0.1)">
      <defs>
       <path id="DejaVuSans-53" d="M 3425 4513 
L 3425 3897 
Q 3066 4069 2747 4153 
Q 2428 4238 2131 4238 
Q 1616 4238 1336 4038 
Q 1056 3838 1056 3469 
Q 1056 3159 1242 3001 
Q 1428 2844 1947 2747 
L 2328 2669 
Q 3034 2534 3370 2195 
Q 3706 1856 3706 1288 
Q 3706 609 3251 259 
Q 2797 -91 1919 -91 
Q 1588 -91 1214 -16 
Q 841 59 441 206 
L 441 856 
Q 825 641 1194 531 
Q 1563 422 1919 422 
Q 2459 422 2753 634 
Q 3047 847 3047 1241 
Q 3047 1584 2836 1778 
Q 2625 1972 2144 2069 
L 1759 2144 
Q 1053 2284 737 2584 
Q 422 2884 422 3419 
Q 422 4038 858 4394 
Q 1294 4750 2059 4750 
Q 2388 4750 2728 4690 
Q 3069 4631 3425 4513 
z
" transform="scale(0.015625)"/>
       <path id="DejaVuSans-74" d="M 1172 4494 
L 1172 3500 
L 2356 3500 
L 2356 3053 
L 1172 3053 
L 1172 1153 
Q 1172 725 1289 603 
Q 1406 481 1766 481 
L 2356 481 
L 2356 0 
L 1766 0 
Q 1100 0 847 248 
Q 594 497 594 1153 
L 594 3053 
L 172 3053 
L 172 3500 
L 594 3500 
L 594 4494 
L 1172 4494 
z
" transform="scale(0.015625)"/>
       <path id="DejaVuSans-65" d="M 3597 1894 
L 3597 1613 
L 953 1613 
Q 991 1019 1311 708 
Q 1631 397 2203 397 
Q 2534 397 2845 478 
Q 3156 559 3463 722 
L 3463 178 
Q 3153 47 2828 -22 
Q 2503 -91 2169 -91 
Q 1331 -91 842 396 
Q 353 884 353 1716 
Q 353 2575 817 3079 
Q 1281 3584 2069 3584 
Q 2775 3584 3186 3129 
Q 3597 2675 3597 1894 
z
M 3022 2063 
Q 3016 2534 2758 2815 
Q 2500 3097 2075 3097 
Q 1594 3097 1305 2825 
Q 1016 2553 972 2059 
L 3022 2063 
z
" transform="scale(0.015625)"/>
       <path id="DejaVuSans-70" d="M 1159 525 
L 1159 -1331 
L 581 -1331 
L 581 3500 
L 1159 3500 
L 1159 2969 
Q 1341 3281 1617 3432 
Q 1894 3584 2278 3584 
Q 2916 3584 3314 3078 
Q 3713 2572 3713 1747 
Q 3713 922 3314 415 
Q 2916 -91 2278 -91 
Q 1894 -91 1617 61 
Q 1341 213 1159 525 
z
M 3116 1747 
Q 3116 2381 2855 2742 
Q 2594 3103 2138 3103 
Q 1681 3103 1420 2742 
Q 1159 2381 1159 1747 
Q 1159 1113 1420 752 
Q 1681 391 2138 391 
Q 2594 391 2855 752 
Q 3116 1113 3116 1747 
z
" transform="scale(0.015625)"/>
       <path id="DejaVuSans-20" transform="scale(0.015625)"/>
       <path id="DejaVuSans-49" d="M 628 4666 
L 1259 4666 
L 1259 0 
L 628 0 
L 628 4666 
z
" transform="scale(0.015625)"/>
       <path id="DejaVuSans-6e" d="M 3513 2113 
L 3513 0 
L 2938 0 
L 2938 2094 
Q 2938 2591 2744 2837 
Q 2550 3084 2163 3084 
Q 1697 3084 1428 2787 
Q 1159 2491 1159 1978 
L 1159 0 
L 581 0 
L 581 3500 
L 1159 3500 
L 1159 2956 
Q 1366 3272 1645 3428 
Q 1925 3584 2291 3584 
Q 2894 3584 3203 3211 
Q 3513 2838 3513 2113 
z
" transform="scale(0.015625)"/>
       <path id="DejaVuSans-64" d="M 2906 2969 
L 2906 4863 
L 3481 4863 
L 3481 0 
L 2906 0 
L 2906 525 
Q 2725 213 2448 61 
Q 2172 -91 1784 -91 
Q 1150 -91 751 415 
Q 353 922 353 1747 
Q 353 2572 751 3078 
Q 1150 3584 1784 3584 
Q 2172 3584 2448 3432 
Q 2725 3281 2906 2969 
z
M 947 1747 
Q 947 1113 1208 752 
Q 1469 391 1925 391 
Q 2381 391 2643 752 
Q 2906 1113 2906 1747 
Q 2906 2381 2643 2742 
Q 2381 3103 1925 3103 
Q 1469 3103 1208 2742 
Q 947 2381 947 1747 
z
" transform="scale(0.015625)"/>
       <path id="DejaVuSans-78" d="M 3513 3500 
L 2247 1797 
L 3578 0 
L 2900 0 
L 1881 1375 
L 863 0 
L 184 0 
L 1544 1831 
L 300 3500 
L 978 3500 
L 1906 2253 
L 2834 3500 
L 3513 3500 
z
" transform="scale(0.015625)"/>
      </defs>
      <use xlink:href="#DejaVuSans-53"/>
      <use xlink:href="#DejaVuSans-74" x="63.476562"/>
      <use xlink:href="#DejaVuSans-65" x="102.685547"/>
      <use xlink:href="#DejaVuSans-70" x="164.208984"/>
      <use xlink:href="#DejaVuSans-20" x="227.685547"/>
      <use xlink:href="#DejaVuSans-49" x="259.472656"/>
      <use xlink:href="#DejaVuSans-6e" x="288.964844"/>
      <use xlink:href="#DejaVuSans-64" x="352.34375"/>
      <use xlink:href="#DejaVuSans-65" x="415.820312"/>
      <use xlink:href="#DejaVuSans-78" x="475.59375"/>
     </g>
    </g>
   </g>
   <g id="matplotlib.axis_2">
    <g id="ytick_1">
     <g id="line2d_13">
      <path d="M 40.603125 271.98863 
L 947.803125 271.98863 
" clip-path="url(#p5539c1c79a)" style="fill: none; stroke: #b0b0b0; stroke-opacity: 0.18; stroke-width: 0.8; stroke-linecap: square"/>
     </g>
     <g id="line2d_14">
      <defs>
       <path id="m13669fd976" d="M 0 0 
L -3.5 0 
" style="stroke: #000000; stroke-width: 0.8"/>
      </defs>
      <g>
       <use xlink:href="#m13669fd976" x="40.603125" y="271.98863" style="stroke: #000000; stroke-width: 0.8"/>
      </g>
     </g>
     <g id="text_8">
      <!-- 20 -->
      <g transform="translate(20.878125 275.787849) scale(0.1 -0.1)">
       <use xlink:href="#DejaVuSans-32"/>
       <use xlink:href="#DejaVuSans-30" x="63.623047"/>
      </g>
     </g>
    </g>
    <g id="ytick_2">
     <g id="line2d_15">
      <path d="M 40.603125 218.8213 
L 947.803125 218.8213 
" clip-path="url(#p5539c1c79a)" style="fill: none; stroke: #b0b0b0; stroke-opacity: 0.18; stroke-width: 0.8; stroke-linecap: square"/>
     </g>
     <g id="line2d_16">
      <g>
       <use xlink:href="#m13669fd976" x="40.603125" y="218.8213" style="stroke: #000000; stroke-width: 0.8"/>
      </g>
     </g>
     <g id="text_9">
      <!-- 25 -->
      <g transform="translate(20.878125 222.620519) scale(0.1 -0.1)">
       <use xlink:href="#DejaVuSans-32"/>
       <use xlink:href="#DejaVuSans-35" x="63.623047"/>
      </g>
     </g>
    </g>
    <g id="ytick_3">
     <g id="line2d_17">
      <path d="M 40.603125 165.653969 
L 947.803125 165.653969 
" clip-path="url(#p5539c1c79a)" style="fill: none; stroke: #b0b0b0; stroke-opacity: 0.18; stroke-width: 0.8; stroke-linecap: square"/>
     </g>
     <g id="line2d_18">
      <g>
       <use xlink:href="#m13669fd976" x="40.603125" y="165.653969" style="stroke: #000000; stroke-width: 0.8"/>
      </g>
     </g>
     <g id="text_10">
      <!-- 30 -->
      <g transform="translate(20.878125 169.453188) scale(0.1 -0.1)">
       <defs>
        <path id="DejaVuSans-33" d="M 2597 2516 
Q 3050 2419 3304 2112 
Q 3559 1806 3559 1356 
Q 3559 666 3084 287 
Q 2609 -91 1734 -91 
Q 1441 -91 1130 -33 
Q 819 25 488 141 
L 488 750 
Q 750 597 1062 519 
Q 1375 441 1716 441 
Q 2309 441 2620 675 
Q 2931 909 2931 1356 
Q 2931 1769 2642 2001 
Q 2353 2234 1838 2234 
L 1294 2234 
L 1294 2753 
L 1863 2753 
Q 2328 2753 2575 2939 
Q 2822 3125 2822 3475 
Q 2822 3834 2567 4026 
Q 2313 4219 1838 4219 
Q 1578 4219 1281 4162 
Q 984 4106 628 3988 
L 628 4550 
Q 988 4650 1302 4700 
Q 1616 4750 1894 4750 
Q 2613 4750 3031 4423 
Q 3450 4097 3450 3541 
Q 3450 3153 3228 2886 
Q 3006 2619 2597 2516 
z
" transform="scale(0.015625)"/>
       </defs>
       <use xlink:href="#DejaVuSans-33"/>
       <use xlink:href="#DejaVuSans-30" x="63.623047"/>
      </g>
     </g>
    </g>
    <g id="ytick_4">
     <g id="line2d_19">
      <path d="M 40.603125 112.486639 
L 947.803125 112.486639 
" clip-path="url(#p5539c1c79a)" style="fill: none; stroke: #b0b0b0; stroke-opacity: 0.18; stroke-width: 0.8; stroke-linecap: square"/>
     </g>
     <g id="line2d_20">
      <g>
       <use xlink:href="#m13669fd976" x="40.603125" y="112.486639" style="stroke: #000000; stroke-width: 0.8"/>
      </g>
     </g>
     <g id="text_11">
      <!-- 35 -->
      <g transform="translate(20.878125 116.285858) scale(0.1 -0.1)">
       <use xlink:href="#DejaVuSans-33"/>
       <use xlink:href="#DejaVuSans-35" x="63.623047"/>
      </g>
     </g>
    </g>
    <g id="text_12">
     <!-- OT -->
     <g transform="translate(14.798438 195.053844) rotate(-90) scale(0.1 -0.1)">
      <defs>
       <path id="DejaVuSans-4f" d="M 2522 4238 
Q 1834 4238 1429 3725 
Q 1025 3213 1025 2328 
Q 1025 1447 1429 934 
Q 1834 422 2522 422 
Q 3209 422 3611 934 
Q 4013 1447 4013 2328 
Q 4013 3213 3611 3725 
Q 3209 4238 2522 4238 
z
M 2522 4750 
Q 3503 4750 4090 4092 
Q 4678 3434 4678 2328 
Q 4678 1225 4090 567 
Q 3503 -91 2522 -91 
Q 1538 -91 948 565 
Q 359 1222 359 2328 
Q 359 3434 948 4092 
Q 1538 4750 2522 4750 
z
" transform="scale(0.015625)"/>
       <path id="DejaVuSans-54" d="M -19 4666 
L 3928 4666 
L 3928 4134 
L 2272 4134 
L 2272 0 
L 1638 0 
L 1638 4134 
L -19 4134 
L -19 4666 
z
" transform="scale(0.015625)"/>
      </defs>
      <use xlink:href="#DejaVuSans-4f"/>
      <use xlink:href="#DejaVuSans-54" x="78.710938"/>
     </g>
    </g>
   </g>
   <g id="line2d_21">
    <path d="M 81.839489 160.007597 
L 85.073713 189.185823 
L 88.307938 189.185823 
L 91.542162 218.353421 
L 94.776387 251.274639 
L 98.010612 259.504943 
L 101.244836 242.299995 
L 104.479061 238.557022 
L 107.713285 254.262644 
L 110.94751 299.146512 
L 114.181735 272.211932 
L 117.415959 270.723253 
L 120.650184 280.442237 
L 123.884408 287.173215 
L 127.118633 276.709892 
L 130.352858 300.645818 
L 133.587082 277.454231 
L 136.821307 281.197204 
L 140.055531 264.736615 
L 143.289756 285.684536 
L 146.523981 294.65918 
L 149.758205 293.159853 
L 152.99243 293.159853 
L 156.226654 274.455598 
L 159.460879 260.249283 
L 162.695104 275.210565 
L 165.929328 271.467593 
L 169.163553 263.992255 
L 172.397777 257.261277 
L 175.632002 248.276006 
L 178.866227 269.223927 
L 182.100451 260.249283 
L 185.334676 265.480954 
L 188.5689 289.416881 
L 191.803125 261.748609 
L 195.03735 278.198571 
L 198.271574 263.237288 
L 201.505799 269.968266 
L 204.740023 258.005617 
L 207.974248 250.519672 
L 211.208473 264.736615 
L 214.442697 213.866109 
L 217.676922 209.378777 
L 220.911146 188.441484 
L 224.145371 194.417494 
L 227.379596 248.276006 
L 230.61382 251.274639 
L 233.848045 194.417494 
L 237.082269 172.725234 
L 240.316494 207.890098 
L 243.550719 225.839386 
L 246.784943 203.402766 
L 250.019168 208.634437 
L 253.253392 228.827391 
L 256.487617 215.365415 
L 259.721842 233.314723 
L 262.956066 204.147126 
L 266.190291 193.673155 
L 269.424515 186.197817 
L 272.65874 171.236535 
L 275.892965 199.659793 
L 279.127189 165.994236 
L 282.361414 161.506924 
L 285.595638 153.27662 
L 288.829863 168.237902 
L 292.064088 141.31395 
L 295.298312 145.046315 
L 298.532537 180.955518 
L 301.766761 255.761971 
L 305.000986 248.276006 
L 308.235211 278.198571 
L 311.469435 287.173215 
L 314.70366 254.262644 
L 317.937884 213.121769 
L 321.172109 188.441484 
L 324.406334 187.686516 
L 327.640558 222.85138 
L 334.109007 239.301362 
L 337.343232 245.288 
L 340.577457 254.262644 
L 343.811681 214.621076 
L 347.045906 216.864742 
L 350.28013 170.481568 
L 353.514355 171.236535 
L 356.74858 173.480201 
L 359.982804 155.520286 
L 363.217029 147.300609 
L 366.451253 132.339326 
L 369.685478 176.468207 
L 372.919703 176.468207 
L 376.153927 147.300609 
L 379.388152 216.864742 
L 382.622376 160.007597 
L 385.856601 190.68515 
L 389.090826 213.866109 
L 392.32505 208.634437 
L 395.559275 208.634437 
L 398.793499 207.890098 
L 402.027724 177.212546 
L 405.261949 160.762585 
L 408.496173 151.032954 
L 411.730398 136.071651 
L 414.964622 147.300609 
L 418.198847 162.251263 
L 421.433072 160.762585 
L 424.667296 134.582972 
L 427.901521 154.031587 
L 431.135745 211.622443 
L 434.36997 195.916821 
L 437.604195 178.711873 
L 440.838419 159.263258 
L 444.072644 144.301976 
L 447.306868 132.339326 
L 450.541093 149.544275 
L 453.775318 154.775926 
L 457.009542 150.288614 
L 460.243767 147.300609 
L 463.477991 155.520286 
L 466.712216 160.762585 
L 469.946441 177.212546 
L 473.180665 161.506924 
L 476.41489 149.544275 
L 479.649114 152.53228 
L 482.883339 160.007597 
L 486.117564 164.49493 
L 489.351788 162.251263 
L 492.586013 169.737229 
L 495.820237 160.007597 
L 499.054462 133.828005 
L 502.288686 163.006231 
L 505.522911 163.006231 
L 508.757136 158.518919 
L 511.99136 148.789287 
L 515.225585 145.046315 
L 518.459809 176.468207 
L 521.694034 189.930183 
L 524.928259 158.518919 
L 528.162483 225.839386 
L 531.396708 168.992869 
L 534.630932 163.006231 
L 537.865157 165.994236 
L 541.099382 170.481568 
L 544.333606 181.699878 
L 547.567831 180.955518 
L 550.802055 178.711873 
L 554.03628 189.930183 
L 557.270505 185.44285 
L 560.504729 193.673155 
L 563.738954 200.404133 
L 566.973178 204.147126 
L 570.207403 214.621076 
L 573.441628 187.686516 
L 576.675852 176.468207 
L 579.910077 168.237902 
L 583.144301 159.263258 
L 586.378526 137.570998 
L 589.612751 108.392772 
L 592.846975 88.199798 
L 596.0812 75.482182 
L 599.315424 93.442097 
L 602.549649 121.865356 
L 605.783874 124.853341 
L 609.018098 130.84002 
L 612.252323 134.582972 
L 615.486547 127.097027 
L 618.720772 137.570998 
L 621.954997 148.789287 
L 625.189221 154.031587 
L 628.423446 157.763931 
L 631.65767 172.725234 
L 634.891895 178.711873 
L 638.12612 174.96888 
L 644.594569 171.980874 
L 647.828793 177.212546 
L 651.063018 166.749223 
L 654.297243 160.007597 
L 657.531467 158.518919 
L 660.765692 158.518919 
L 663.999916 154.031587 
L 667.234141 156.275253 
L 670.468366 136.826658 
L 673.70259 115.134378 
L 676.936815 118.866702 
L 680.171039 119.62171 
L 683.405264 127.097027 
L 686.639489 127.841367 
L 689.873713 136.071651 
L 693.107938 142.802669 
L 696.342162 152.53228 
L 699.576387 160.007597 
L 702.810612 155.520286 
L 706.044836 162.251263 
L 709.279061 171.980874 
L 712.513285 179.456212 
L 715.74751 178.711873 
L 718.981735 177.212546 
L 722.215959 183.954172 
L 725.450184 180.211179 
L 728.684408 178.711873 
L 731.918633 165.994236 
L 735.152858 168.237902 
L 738.387082 162.251263 
L 741.621307 150.288614 
L 744.855531 157.763931 
L 748.089756 148.044948 
L 751.323981 141.31395 
L 754.558205 135.327311 
L 757.79243 143.557636 
L 761.026654 145.801282 
L 767.495104 156.275253 
L 770.729328 156.275253 
L 773.963553 165.994236 
L 777.197777 165.994236 
L 780.432002 171.236535 
L 783.666227 172.725234 
L 786.900451 167.493563 
L 790.134676 174.96888 
L 793.3689 180.955518 
L 796.603125 180.211179 
L 799.83735 189.185823 
L 803.071574 192.173828 
L 806.305799 186.197817 
L 809.540023 169.737229 
L 812.774248 171.236535 
L 816.008473 175.723867 
L 819.242697 171.236535 
L 822.476922 174.96888 
L 825.711146 168.992869 
L 828.945371 154.775926 
L 832.179596 153.27662 
L 835.41382 158.518919 
L 838.648045 165.994236 
L 841.882269 163.75057 
L 845.116494 171.236535 
L 848.350719 171.980874 
L 851.584943 184.698511 
L 854.819168 174.96888 
L 858.053392 180.955518 
L 861.287617 174.22454 
L 864.521842 180.955518 
L 867.756066 173.480201 
L 870.990291 175.723867 
L 874.224515 177.212546 
L 877.45874 167.493563 
L 880.692965 167.493563 
L 883.927189 174.22454 
L 887.161414 156.275253 
L 890.395638 152.53228 
L 893.629863 142.058289 
L 896.864088 133.828005 
L 900.098312 124.109001 
L 903.332537 115.134378 
L 906.566761 115.134378 
L 906.566761 115.134378 
" clip-path="url(#p5539c1c79a)" style="fill: none; stroke: #0f4c81; stroke-width: 1.8; stroke-linecap: square"/>
   </g>
   <g id="patch_6">
    <path d="M 40.603125 311.904 
L 40.603125 64.224 
" style="fill: none; stroke: #000000; stroke-width: 0.8; stroke-linejoin: miter; stroke-linecap: square"/>
   </g>
   <g id="patch_7">
    <path d="M 947.803125 311.904 
L 947.803125 64.224 
" style="fill: none; stroke: #000000; stroke-width: 0.8; stroke-linejoin: miter; stroke-linecap: square"/>
   </g>
   <g id="patch_8">
    <path d="M 40.603125 311.904 
L 947.803125 311.904 
" style="fill: none; stroke: #000000; stroke-width: 0.8; stroke-linejoin: miter; stroke-linecap: square"/>
   </g>
   <g id="patch_9">
    <path d="M 40.603125 64.224 
L 947.803125 64.224 
" style="fill: none; stroke: #000000; stroke-width: 0.8; stroke-linejoin: miter; stroke-linecap: square"/>
   </g>
   <g id="text_13">
    <!-- down -->
    <g style="fill: #334155" transform="translate(204.185516 62.144312) scale(0.1 -0.1)">
     <defs>
      <path id="DejaVuSans-6f" d="M 1959 3097 
Q 1497 3097 1228 2736 
Q 959 2375 959 1747 
Q 959 1119 1226 758 
Q 1494 397 1959 397 
Q 2419 397 2687 759 
Q 2956 1122 2956 1747 
Q 2956 2369 2687 2733 
Q 2419 3097 1959 3097 
z
M 1959 3584 
Q 2709 3584 3137 3096 
Q 3566 2609 3566 1747 
Q 3566 888 3137 398 
Q 2709 -91 1959 -91 
Q 1206 -91 779 398 
Q 353 888 353 1747 
Q 353 2609 779 3096 
Q 1206 3584 1959 3584 
z
" transform="scale(0.015625)"/>
      <path id="DejaVuSans-77" d="M 269 3500 
L 844 3500 
L 1563 769 
L 2278 3500 
L 2956 3500 
L 3675 769 
L 4391 3500 
L 4966 3500 
L 4050 0 
L 3372 0 
L 2619 2869 
L 1863 0 
L 1184 0 
L 269 3500 
z
" transform="scale(0.015625)"/>
     </defs>
     <use xlink:href="#DejaVuSans-64"/>
     <use xlink:href="#DejaVuSans-6f" x="63.476562"/>
     <use xlink:href="#DejaVuSans-77" x="124.658203"/>
     <use xlink:href="#DejaVuSans-6e" x="206.445312"/>
    </g>
   </g>
   <g id="text_14">
    <!-- flat -->
    <g style="fill: #334155" transform="translate(486.029688 62.144312) scale(0.1 -0.1)">
     <defs>
      <path id="DejaVuSans-66" d="M 2375 4863 
L 2375 4384 
L 1825 4384 
Q 1516 4384 1395 4259 
Q 1275 4134 1275 3809 
L 1275 3500 
L 2222 3500 
L 2222 3053 
L 1275 3053 
L 1275 0 
L 697 0 
L 697 3053 
L 147 3053 
L 147 3500 
L 697 3500 
L 697 3744 
Q 697 4328 969 4595 
Q 1241 4863 1831 4863 
L 2375 4863 
z
" transform="scale(0.015625)"/>
      <path id="DejaVuSans-6c" d="M 603 4863 
L 1178 4863 
L 1178 0 
L 603 0 
L 603 4863 
z
" transform="scale(0.015625)"/>
      <path id="DejaVuSans-61" d="M 2194 1759 
Q 1497 1759 1228 1600 
Q 959 1441 959 1056 
Q 959 750 1161 570 
Q 1363 391 1709 391 
Q 2188 391 2477 730 
Q 2766 1069 2766 1631 
L 2766 1759 
L 2194 1759 
z
M 3341 1997 
L 3341 0 
L 2766 0 
L 2766 531 
Q 2569 213 2275 61 
Q 1981 -91 1556 -91 
Q 1019 -91 701 211 
Q 384 513 384 1019 
Q 384 1609 779 1909 
Q 1175 2209 1959 2209 
L 2766 2209 
L 2766 2266 
Q 2766 2663 2505 2880 
Q 2244 3097 1772 3097 
Q 1472 3097 1187 3025 
Q 903 2953 641 2809 
L 641 3341 
Q 956 3463 1253 3523 
Q 1550 3584 1831 3584 
Q 2591 3584 2966 3190 
Q 3341 2797 3341 1997 
z
" transform="scale(0.015625)"/>
     </defs>
     <use xlink:href="#DejaVuSans-66"/>
     <use xlink:href="#DejaVuSans-6c" x="35.205078"/>
     <use xlink:href="#DejaVuSans-61" x="62.988281"/>
     <use xlink:href="#DejaVuSans-74" x="124.267578"/>
    </g>
   </g>
   <g id="text_15">
    <!-- up -->
    <g style="fill: #334155" transform="translate(764.386359 62.144312) scale(0.1 -0.1)">
     <defs>
      <path id="DejaVuSans-75" d="M 544 1381 
L 544 3500 
L 1119 3500 
L 1119 1403 
Q 1119 906 1312 657 
Q 1506 409 1894 409 
Q 2359 409 2629 706 
Q 2900 1003 2900 1516 
L 2900 3500 
L 3475 3500 
L 3475 0 
L 2900 0 
L 2900 538 
Q 2691 219 2414 64 
Q 2138 -91 1772 -91 
Q 1169 -91 856 284 
Q 544 659 544 1381 
z
M 1991 3584 
L 1991 3584 
z
" transform="scale(0.015625)"/>
     </defs>
     <use xlink:href="#DejaVuSans-75"/>
     <use xlink:href="#DejaVuSans-70" x="63.378906"/>
    </g>
   </g>
   <g id="text_16">
    <!-- peak -->
    <g style="fill: #c0392b" transform="translate(604.0812 65.482182) scale(0.09 -0.09)">
     <defs>
      <path id="DejaVuSans-6b" d="M 581 4863 
L 1159 4863 
L 1159 1991 
L 2875 3500 
L 3609 3500 
L 1753 1863 
L 3688 0 
L 2938 0 
L 1159 1709 
L 1159 0 
L 581 0 
L 581 4863 
z
" transform="scale(0.015625)"/>
     </defs>
     <use xlink:href="#DejaVuSans-70"/>
     <use xlink:href="#DejaVuSans-65" x="63.476562"/>
     <use xlink:href="#DejaVuSans-61" x="125"/>
     <use xlink:href="#DejaVuSans-6b" x="186.279297"/>
    </g>
   </g>
   <g id="text_17">
    <!-- valley -->
    <g style="fill: #7d3c98" transform="translate(154.523981 308.65918) scale(0.09 -0.09)">
     <defs>
      <path id="DejaVuSans-76" d="M 191 3500 
L 800 3500 
L 1894 563 
L 2988 3500 
L 3597 3500 
L 2284 0 
L 1503 0 
L 191 3500 
z
" transform="scale(0.015625)"/>
      <path id="DejaVuSans-79" d="M 2059 -325 
Q 1816 -950 1584 -1140 
Q 1353 -1331 966 -1331 
L 506 -1331 
L 506 -850 
L 844 -850 
Q 1081 -850 1212 -737 
Q 1344 -625 1503 -206 
L 1606 56 
L 191 3500 
L 800 3500 
L 1894 763 
L 2988 3500 
L 3597 3500 
L 2059 -325 
z
" transform="scale(0.015625)"/>
     </defs>
     <use xlink:href="#DejaVuSans-76"/>
     <use xlink:href="#DejaVuSans-61" x="59.179688"/>
     <use xlink:href="#DejaVuSans-6c" x="120.458984"/>
     <use xlink:href="#DejaVuSans-6c" x="148.242188"/>
     <use xlink:href="#DejaVuSans-65" x="176.025391"/>
     <use xlink:href="#DejaVuSans-79" x="237.548828"/>
    </g>
   </g>
   <g id="PathCollection_1">
    <defs>
     <path id="m3f379f8ae8" d="M 0 3.082207 
C 0.817411 3.082207 1.601453 2.757446 2.179449 2.179449 
C 2.757446 1.601453 3.082207 0.817411 3.082207 0 
C 3.082207 -0.817411 2.757446 -1.601453 2.179449 -2.179449 
C 1.601453 -2.757446 0.817411 -3.082207 0 -3.082207 
C -0.817411 -3.082207 -1.601453 -2.757446 -2.179449 -2.179449 
C -2.757446 -1.601453 -3.082207 -0.817411 -3.082207 0 
C -3.082207 0.817411 -2.757446 1.601453 -2.179449 2.179449 
C -1.601453 2.757446 -0.817411 3.082207 0 3.082207 
z
" style="stroke: #c0392b"/>
    </defs>
    <g clip-path="url(#p5539c1c79a)">
     <use xlink:href="#m3f379f8ae8" x="596.0812" y="75.482182" style="fill: #c0392b; stroke: #c0392b"/>
    </g>
   </g>
   <g id="PathCollection_2">
    <defs>
     <path id="m3540f53fe7" d="M 0 3.082207 
C 0.817411 3.082207 1.601453 2.757446 2.179449 2.179449 
C 2.757446 1.601453 3.082207 0.817411 3.082207 0 
C 3.082207 -0.817411 2.757446 -1.601453 2.179449 -2.179449 
C 1.601453 -2.757446 0.817411 -3.082207 0 -3.082207 
C -0.817411 -3.082207 -1.601453 -2.757446 -2.179449 -2.179449 
C -2.757446 -1.601453 -3.082207 -0.817411 -3.082207 0 
C -3.082207 0.817411 -2.757446 1.601453 -2.179449 2.179449 
C -1.601453 2.757446 -0.817411 3.082207 0 3.082207 
z
" style="stroke: #7d3c98"/>
    </defs>
    <g clip-path="url(#p5539c1c79a)">
     <use xlink:href="#m3540f53fe7" x="146.523981" y="294.65918" style="fill: #7d3c98; stroke: #7d3c98"/>
    </g>
   </g>
  </g>
  <g id="axes_2">
   <g id="text_18">
    <!-- Generated Caption -->
    <g style="fill: #1f2a44" transform="translate(40.603125 373.9968) scale(0.11 -0.11)">
     <defs>
      <path id="DejaVuSans-Bold-47" d="M 4781 347 
Q 4331 128 3847 18 
Q 3363 -91 2847 -91 
Q 1681 -91 1000 561 
Q 319 1213 319 2328 
Q 319 3456 1012 4103 
Q 1706 4750 2913 4750 
Q 3378 4750 3804 4662 
Q 4231 4575 4609 4403 
L 4609 3438 
Q 4219 3659 3833 3768 
Q 3447 3878 3059 3878 
Q 2341 3878 1952 3476 
Q 1563 3075 1563 2328 
Q 1563 1588 1938 1184 
Q 2313 781 3003 781 
Q 3191 781 3352 804 
Q 3513 828 3641 878 
L 3641 1784 
L 2906 1784 
L 2906 2591 
L 4781 2591 
L 4781 347 
z
" transform="scale(0.015625)"/>
      <path id="DejaVuSans-Bold-65" d="M 4031 1759 
L 4031 1441 
L 1416 1441 
Q 1456 1047 1700 850 
Q 1944 653 2381 653 
Q 2734 653 3104 758 
Q 3475 863 3866 1075 
L 3866 213 
Q 3469 63 3072 -14 
Q 2675 -91 2278 -91 
Q 1328 -91 801 392 
Q 275 875 275 1747 
Q 275 2603 792 3093 
Q 1309 3584 2216 3584 
Q 3041 3584 3536 3087 
Q 4031 2591 4031 1759 
z
M 2881 2131 
Q 2881 2450 2695 2645 
Q 2509 2841 2209 2841 
Q 1884 2841 1681 2658 
Q 1478 2475 1428 2131 
L 2881 2131 
z
" transform="scale(0.015625)"/>
      <path id="DejaVuSans-Bold-6e" d="M 4056 2131 
L 4056 0 
L 2931 0 
L 2931 347 
L 2931 1631 
Q 2931 2084 2911 2256 
Q 2891 2428 2841 2509 
Q 2775 2619 2662 2680 
Q 2550 2741 2406 2741 
Q 2056 2741 1856 2470 
Q 1656 2200 1656 1722 
L 1656 0 
L 538 0 
L 538 3500 
L 1656 3500 
L 1656 2988 
Q 1909 3294 2193 3439 
Q 2478 3584 2822 3584 
Q 3428 3584 3742 3212 
Q 4056 2841 4056 2131 
z
" transform="scale(0.015625)"/>
      <path id="DejaVuSans-Bold-72" d="M 3138 2547 
Q 2991 2616 2845 2648 
Q 2700 2681 2553 2681 
Q 2122 2681 1889 2404 
Q 1656 2128 1656 1613 
L 1656 0 
L 538 0 
L 538 3500 
L 1656 3500 
L 1656 2925 
Q 1872 3269 2151 3426 
Q 2431 3584 2822 3584 
Q 2878 3584 2943 3579 
Q 3009 3575 3134 3559 
L 3138 2547 
z
" transform="scale(0.015625)"/>
      <path id="DejaVuSans-Bold-61" d="M 2106 1575 
Q 1756 1575 1579 1456 
Q 1403 1338 1403 1106 
Q 1403 894 1545 773 
Q 1688 653 1941 653 
Q 2256 653 2472 879 
Q 2688 1106 2688 1447 
L 2688 1575 
L 2106 1575 
z
M 3816 1997 
L 3816 0 
L 2688 0 
L 2688 519 
Q 2463 200 2181 54 
Q 1900 -91 1497 -91 
Q 953 -91 614 226 
Q 275 544 275 1050 
Q 275 1666 698 1953 
Q 1122 2241 2028 2241 
L 2688 2241 
L 2688 2328 
Q 2688 2594 2478 2717 
Q 2269 2841 1825 2841 
Q 1466 2841 1156 2769 
Q 847 2697 581 2553 
L 581 3406 
Q 941 3494 1303 3539 
Q 1666 3584 2028 3584 
Q 2975 3584 3395 3211 
Q 3816 2838 3816 1997 
z
" transform="scale(0.015625)"/>
      <path id="DejaVuSans-Bold-74" d="M 1759 4494 
L 1759 3500 
L 2913 3500 
L 2913 2700 
L 1759 2700 
L 1759 1216 
Q 1759 972 1856 886 
Q 1953 800 2241 800 
L 2816 800 
L 2816 0 
L 1856 0 
Q 1194 0 917 276 
Q 641 553 641 1216 
L 641 2700 
L 84 2700 
L 84 3500 
L 641 3500 
L 641 4494 
L 1759 4494 
z
" transform="scale(0.015625)"/>
      <path id="DejaVuSans-Bold-64" d="M 2919 2988 
L 2919 4863 
L 4044 4863 
L 4044 0 
L 2919 0 
L 2919 506 
Q 2688 197 2409 53 
Q 2131 -91 1766 -91 
Q 1119 -91 703 423 
Q 288 938 288 1747 
Q 288 2556 703 3070 
Q 1119 3584 1766 3584 
Q 2128 3584 2408 3439 
Q 2688 3294 2919 2988 
z
M 2181 722 
Q 2541 722 2730 984 
Q 2919 1247 2919 1747 
Q 2919 2247 2730 2509 
Q 2541 2772 2181 2772 
Q 1825 2772 1636 2509 
Q 1447 2247 1447 1747 
Q 1447 1247 1636 984 
Q 1825 722 2181 722 
z
" transform="scale(0.015625)"/>
      <path id="DejaVuSans-Bold-20" transform="scale(0.015625)"/>
      <path id="DejaVuSans-Bold-43" d="M 4288 256 
Q 3956 84 3597 -3 
Q 3238 -91 2847 -91 
Q 1681 -91 1000 561 
Q 319 1213 319 2328 
Q 319 3447 1000 4098 
Q 1681 4750 2847 4750 
Q 3238 4750 3597 4662 
Q 3956 4575 4288 4403 
L 4288 3438 
Q 3953 3666 3628 3772 
Q 3303 3878 2944 3878 
Q 2300 3878 1931 3465 
Q 1563 3053 1563 2328 
Q 1563 1606 1931 1193 
Q 2300 781 2944 781 
Q 3303 781 3628 887 
Q 3953 994 4288 1222 
L 4288 256 
z
" transform="scale(0.015625)"/>
      <path id="DejaVuSans-Bold-70" d="M 1656 506 
L 1656 -1331 
L 538 -1331 
L 538 3500 
L 1656 3500 
L 1656 2988 
Q 1888 3294 2169 3439 
Q 2450 3584 2816 3584 
Q 3463 3584 3878 3070 
Q 4294 2556 4294 1747 
Q 4294 938 3878 423 
Q 3463 -91 2816 -91 
Q 2450 -91 2169 54 
Q 1888 200 1656 506 
z
M 2400 2772 
Q 2041 2772 1848 2508 
Q 1656 2244 1656 1747 
Q 1656 1250 1848 986 
Q 2041 722 2400 722 
Q 2759 722 2948 984 
Q 3138 1247 3138 1747 
Q 3138 2247 2948 2509 
Q 2759 2772 2400 2772 
z
" transform="scale(0.015625)"/>
      <path id="DejaVuSans-Bold-69" d="M 538 3500 
L 1656 3500 
L 1656 0 
L 538 0 
L 538 3500 
z
M 538 4863 
L 1656 4863 
L 1656 3950 
L 538 3950 
L 538 4863 
z
" transform="scale(0.015625)"/>
      <path id="DejaVuSans-Bold-6f" d="M 2203 2784 
Q 1831 2784 1636 2517 
Q 1441 2250 1441 1747 
Q 1441 1244 1636 976 
Q 1831 709 2203 709 
Q 2569 709 2762 976 
Q 2956 1244 2956 1747 
Q 2956 2250 2762 2517 
Q 2569 2784 2203 2784 
z
M 2203 3584 
Q 3106 3584 3614 3096 
Q 4122 2609 4122 1747 
Q 4122 884 3614 396 
Q 3106 -91 2203 -91 
Q 1297 -91 786 396 
Q 275 884 275 1747 
Q 275 2609 786 3096 
Q 1297 3584 2203 3584 
z
" transform="scale(0.015625)"/>
     </defs>
     <use xlink:href="#DejaVuSans-Bold-47"/>
     <use xlink:href="#DejaVuSans-Bold-65" x="82.080078"/>
     <use xlink:href="#DejaVuSans-Bold-6e" x="149.902344"/>
     <use xlink:href="#DejaVuSans-Bold-65" x="221.09375"/>
     <use xlink:href="#DejaVuSans-Bold-72" x="288.916016"/>
     <use xlink:href="#DejaVuSans-Bold-61" x="338.232422"/>
     <use xlink:href="#DejaVuSans-Bold-74" x="405.712891"/>
     <use xlink:href="#DejaVuSans-Bold-65" x="453.515625"/>
     <use xlink:href="#DejaVuSans-Bold-64" x="521.337891"/>
     <use xlink:href="#DejaVuSans-Bold-20" x="592.919922"/>
     <use xlink:href="#DejaVuSans-Bold-43" x="627.734375"/>
     <use xlink:href="#DejaVuSans-Bold-61" x="701.123047"/>
     <use xlink:href="#DejaVuSans-Bold-70" x="768.603516"/>
     <use xlink:href="#DejaVuSans-Bold-74" x="840.185547"/>
     <use xlink:href="#DejaVuSans-Bold-69" x="887.988281"/>
     <use xlink:href="#DejaVuSans-Bold-6f" x="922.265625"/>
     <use xlink:href="#DejaVuSans-Bold-6e" x="990.966797"/>
    </g>
   </g>
   <g id="text_19">
    <!-- The time series shows a flat trend with low volatility and no clear seasonality. The early -->
    <g style="fill: #2f3b4a" transform="translate(40.603125 376.455537) scale(0.1 -0.1)">
     <defs>
      <path id="DejaVuSans-68" d="M 3513 2113 
L 3513 0 
L 2938 0 
L 2938 2094 
Q 2938 2591 2744 2837 
Q 2550 3084 2163 3084 
Q 1697 3084 1428 2787 
Q 1159 2491 1159 1978 
L 1159 0 
L 581 0 
L 581 4863 
L 1159 4863 
L 1159 2956 
Q 1366 3272 1645 3428 
Q 1925 3584 2291 3584 
Q 2894 3584 3203 3211 
Q 3513 2838 3513 2113 
z
" transform="scale(0.015625)"/>
      <path id="DejaVuSans-69" d="M 603 3500 
L 1178 3500 
L 1178 0 
L 603 0 
L 603 3500 
z
M 603 4863 
L 1178 4863 
L 1178 4134 
L 603 4134 
L 603 4863 
z
" transform="scale(0.015625)"/>
      <path id="DejaVuSans-6d" d="M 3328 2828 
Q 3544 3216 3844 3400 
Q 4144 3584 4550 3584 
Q 5097 3584 5394 3201 
Q 5691 2819 5691 2113 
L 5691 0 
L 5113 0 
L 5113 2094 
Q 5113 2597 4934 2840 
Q 4756 3084 4391 3084 
Q 3944 3084 3684 2787 
Q 3425 2491 3425 1978 
L 3425 0 
L 2847 0 
L 2847 2094 
Q 2847 2600 2669 2842 
Q 2491 3084 2119 3084 
Q 1678 3084 1418 2786 
Q 1159 2488 1159 1978 
L 1159 0 
L 581 0 
L 581 3500 
L 1159 3500 
L 1159 2956 
Q 1356 3278 1631 3431 
Q 1906 3584 2284 3584 
Q 2666 3584 2933 3390 
Q 3200 3197 3328 2828 
z
" transform="scale(0.015625)"/>
      <path id="DejaVuSans-73" d="M 2834 3397 
L 2834 2853 
Q 2591 2978 2328 3040 
Q 2066 3103 1784 3103 
Q 1356 3103 1142 2972 
Q 928 2841 928 2578 
Q 928 2378 1081 2264 
Q 1234 2150 1697 2047 
L 1894 2003 
Q 2506 1872 2764 1633 
Q 3022 1394 3022 966 
Q 3022 478 2636 193 
Q 2250 -91 1575 -91 
Q 1294 -91 989 -36 
Q 684 19 347 128 
L 347 722 
Q 666 556 975 473 
Q 1284 391 1588 391 
Q 1994 391 2212 530 
Q 2431 669 2431 922 
Q 2431 1156 2273 1281 
Q 2116 1406 1581 1522 
L 1381 1569 
Q 847 1681 609 1914 
Q 372 2147 372 2553 
Q 372 3047 722 3315 
Q 1072 3584 1716 3584 
Q 2034 3584 2315 3537 
Q 2597 3491 2834 3397 
z
" transform="scale(0.015625)"/>
      <path id="DejaVuSans-72" d="M 2631 2963 
Q 2534 3019 2420 3045 
Q 2306 3072 2169 3072 
Q 1681 3072 1420 2755 
Q 1159 2438 1159 1844 
L 1159 0 
L 581 0 
L 581 3500 
L 1159 3500 
L 1159 2956 
Q 1341 3275 1631 3429 
Q 1922 3584 2338 3584 
Q 2397 3584 2469 3576 
Q 2541 3569 2628 3553 
L 2631 2963 
z
" transform="scale(0.015625)"/>
      <path id="DejaVuSans-63" d="M 3122 3366 
L 3122 2828 
Q 2878 2963 2633 3030 
Q 2388 3097 2138 3097 
Q 1578 3097 1268 2742 
Q 959 2388 959 1747 
Q 959 1106 1268 751 
Q 1578 397 2138 397 
Q 2388 397 2633 464 
Q 2878 531 3122 666 
L 3122 134 
Q 2881 22 2623 -34 
Q 2366 -91 2075 -91 
Q 1284 -91 818 406 
Q 353 903 353 1747 
Q 353 2603 823 3093 
Q 1294 3584 2113 3584 
Q 2378 3584 2631 3529 
Q 2884 3475 3122 3366 
z
" transform="scale(0.015625)"/>
      <path id="DejaVuSans-2e" d="M 684 794 
L 1344 794 
L 1344 0 
L 684 0 
L 684 794 
z
" transform="scale(0.015625)"/>
     </defs>
     <use xlink:href="#DejaVuSans-54"/>
     <use xlink:href="#DejaVuSans-68" x="61.083984"/>
     <use xlink:href="#DejaVuSans-65" x="124.462891"/>
     <use xlink:href="#DejaVuSans-20" x="185.986328"/>
     <use xlink:href="#DejaVuSans-74" x="217.773438"/>
     <use xlink:href="#DejaVuSans-69" x="256.982422"/>
     <use xlink:href="#DejaVuSans-6d" x="284.765625"/>
     <use xlink:href="#DejaVuSans-65" x="382.177734"/>
     <use xlink:href="#DejaVuSans-20" x="443.701172"/>
     <use xlink:href="#DejaVuSans-73" x="475.488281"/>
     <use xlink:href="#DejaVuSans-65" x="527.587891"/>
     <use xlink:href="#DejaVuSans-72" x="589.111328"/>
     <use xlink:href="#DejaVuSans-69" x="630.224609"/>
     <use xlink:href="#DejaVuSans-65" x="658.007812"/>
     <use xlink:href="#DejaVuSans-73" x="719.53125"/>
     <use xlink:href="#DejaVuSans-20" x="771.630859"/>
     <use xlink:href="#DejaVuSans-73" x="803.417969"/>
     <use xlink:href="#DejaVuSans-68" x="855.517578"/>
     <use xlink:href="#DejaVuSans-6f" x="918.896484"/>
     <use xlink:href="#DejaVuSans-77" x="980.078125"/>
     <use xlink:href="#DejaVuSans-73" x="1061.865234"/>
     <use xlink:href="#DejaVuSans-20" x="1113.964844"/>
     <use xlink:href="#DejaVuSans-61" x="1145.751953"/>
     <use xlink:href="#DejaVuSans-20" x="1207.03125"/>
     <use xlink:href="#DejaVuSans-66" x="1238.818359"/>
     <use xlink:href="#DejaVuSans-6c" x="1274.023438"/>
     <use xlink:href="#DejaVuSans-61" x="1301.806641"/>
     <use xlink:href="#DejaVuSans-74" x="1363.085938"/>
     <use xlink:href="#DejaVuSans-20" x="1402.294922"/>
     <use xlink:href="#DejaVuSans-74" x="1434.082031"/>
     <use xlink:href="#DejaVuSans-72" x="1473.291016"/>
     <use xlink:href="#DejaVuSans-65" x="1512.154297"/>
     <use xlink:href="#DejaVuSans-6e" x="1573.677734"/>
     <use xlink:href="#DejaVuSans-64" x="1637.056641"/>
     <use xlink:href="#DejaVuSans-20" x="1700.533203"/>
     <use xlink:href="#DejaVuSans-77" x="1732.320312"/>
     <use xlink:href="#DejaVuSans-69" x="1814.107422"/>
     <use xlink:href="#DejaVuSans-74" x="1841.890625"/>
     <use xlink:href="#DejaVuSans-68" x="1881.099609"/>
     <use xlink:href="#DejaVuSans-20" x="1944.478516"/>
     <use xlink:href="#DejaVuSans-6c" x="1976.265625"/>
     <use xlink:href="#DejaVuSans-6f" x="2004.048828"/>
     <use xlink:href="#DejaVuSans-77" x="2065.230469"/>
     <use xlink:href="#DejaVuSans-20" x="2147.017578"/>
     <use xlink:href="#DejaVuSans-76" x="2178.804688"/>
     <use xlink:href="#DejaVuSans-6f" x="2237.984375"/>
     <use xlink:href="#DejaVuSans-6c" x="2299.166016"/>
     <use xlink:href="#DejaVuSans-61" x="2326.949219"/>
     <use xlink:href="#DejaVuSans-74" x="2388.228516"/>
     <use xlink:href="#DejaVuSans-69" x="2427.4375"/>
     <use xlink:href="#DejaVuSans-6c" x="2455.220703"/>
     <use xlink:href="#DejaVuSans-69" x="2483.003906"/>
     <use xlink:href="#DejaVuSans-74" x="2510.787109"/>
     <use xlink:href="#DejaVuSans-79" x="2549.996094"/>
     <use xlink:href="#DejaVuSans-20" x="2609.175781"/>
     <use xlink:href="#DejaVuSans-61" x="2640.962891"/>
     <use xlink:href="#DejaVuSans-6e" x="2702.242188"/>
     <use xlink:href="#DejaVuSans-64" x="2765.621094"/>
     <use xlink:href="#DejaVuSans-20" x="2829.097656"/>
     <use xlink:href="#DejaVuSans-6e" x="2860.884766"/>
     <use xlink:href="#DejaVuSans-6f" x="2924.263672"/>
     <use xlink:href="#DejaVuSans-20" x="2985.445312"/>
     <use xlink:href="#DejaVuSans-63" x="3017.232422"/>
     <use xlink:href="#DejaVuSans-6c" x="3072.212891"/>
     <use xlink:href="#DejaVuSans-65" x="3099.996094"/>
     <use xlink:href="#DejaVuSans-61" x="3161.519531"/>
     <use xlink:href="#DejaVuSans-72" x="3222.798828"/>
     <use xlink:href="#DejaVuSans-20" x="3263.912109"/>
     <use xlink:href="#DejaVuSans-73" x="3295.699219"/>
     <use xlink:href="#DejaVuSans-65" x="3347.798828"/>
     <use xlink:href="#DejaVuSans-61" x="3409.322266"/>
     <use xlink:href="#DejaVuSans-73" x="3470.601562"/>
     <use xlink:href="#DejaVuSans-6f" x="3522.701172"/>
     <use xlink:href="#DejaVuSans-6e" x="3583.882812"/>
     <use xlink:href="#DejaVuSans-61" x="3647.261719"/>
     <use xlink:href="#DejaVuSans-6c" x="3708.541016"/>
     <use xlink:href="#DejaVuSans-69" x="3736.324219"/>
     <use xlink:href="#DejaVuSans-74" x="3764.107422"/>
     <use xlink:href="#DejaVuSans-79" x="3803.316406"/>
     <use xlink:href="#DejaVuSans-2e" x="3848.246094"/>
     <use xlink:href="#DejaVuSans-20" x="3880.033203"/>
     <use xlink:href="#DejaVuSans-54" x="3911.820312"/>
     <use xlink:href="#DejaVuSans-68" x="3972.904297"/>
     <use xlink:href="#DejaVuSans-65" x="4036.283203"/>
     <use xlink:href="#DejaVuSans-20" x="4097.806641"/>
     <use xlink:href="#DejaVuSans-65" x="4129.59375"/>
     <use xlink:href="#DejaVuSans-61" x="4191.117188"/>
     <use xlink:href="#DejaVuSans-72" x="4252.396484"/>
     <use xlink:href="#DejaVuSans-6c" x="4293.509766"/>
     <use xlink:href="#DejaVuSans-79" x="4321.292969"/>
    </g>
    <!-- part of the window features a significant downward movement, followed by a flat phase in the -->
    <g style="fill: #2f3b4a" transform="translate(40.603125 387.65335) scale(0.1 -0.1)">
     <defs>
      <path id="DejaVuSans-67" d="M 2906 1791 
Q 2906 2416 2648 2759 
Q 2391 3103 1925 3103 
Q 1463 3103 1205 2759 
Q 947 2416 947 1791 
Q 947 1169 1205 825 
Q 1463 481 1925 481 
Q 2391 481 2648 825 
Q 2906 1169 2906 1791 
z
M 3481 434 
Q 3481 -459 3084 -895 
Q 2688 -1331 1869 -1331 
Q 1566 -1331 1297 -1286 
Q 1028 -1241 775 -1147 
L 775 -588 
Q 1028 -725 1275 -790 
Q 1522 -856 1778 -856 
Q 2344 -856 2625 -561 
Q 2906 -266 2906 331 
L 2906 616 
Q 2728 306 2450 153 
Q 2172 0 1784 0 
Q 1141 0 747 490 
Q 353 981 353 1791 
Q 353 2603 747 3093 
Q 1141 3584 1784 3584 
Q 2172 3584 2450 3431 
Q 2728 3278 2906 2969 
L 2906 3500 
L 3481 3500 
L 3481 434 
z
" transform="scale(0.015625)"/>
      <path id="DejaVuSans-2c" d="M 750 794 
L 1409 794 
L 1409 256 
L 897 -744 
L 494 -744 
L 750 256 
L 750 794 
z
" transform="scale(0.015625)"/>
      <path id="DejaVuSans-62" d="M 3116 1747 
Q 3116 2381 2855 2742 
Q 2594 3103 2138 3103 
Q 1681 3103 1420 2742 
Q 1159 2381 1159 1747 
Q 1159 1113 1420 752 
Q 1681 391 2138 391 
Q 2594 391 2855 752 
Q 3116 1113 3116 1747 
z
M 1159 2969 
Q 1341 3281 1617 3432 
Q 1894 3584 2278 3584 
Q 2916 3584 3314 3078 
Q 3713 2572 3713 1747 
Q 3713 922 3314 415 
Q 2916 -91 2278 -91 
Q 1894 -91 1617 61 
Q 1341 213 1159 525 
L 1159 0 
L 581 0 
L 581 4863 
L 1159 4863 
L 1159 2969 
z
" transform="scale(0.015625)"/>
     </defs>
     <use xlink:href="#DejaVuSans-70"/>
     <use xlink:href="#DejaVuSans-61" x="63.476562"/>
     <use xlink:href="#DejaVuSans-72" x="124.755859"/>
     <use xlink:href="#DejaVuSans-74" x="165.869141"/>
     <use xlink:href="#DejaVuSans-20" x="205.078125"/>
     <use xlink:href="#DejaVuSans-6f" x="236.865234"/>
     <use xlink:href="#DejaVuSans-66" x="298.046875"/>
     <use xlink:href="#DejaVuSans-20" x="333.251953"/>
     <use xlink:href="#DejaVuSans-74" x="365.039062"/>
     <use xlink:href="#DejaVuSans-68" x="404.248047"/>
     <use xlink:href="#DejaVuSans-65" x="467.626953"/>
     <use xlink:href="#DejaVuSans-20" x="529.150391"/>
     <use xlink:href="#DejaVuSans-77" x="560.9375"/>
     <use xlink:href="#DejaVuSans-69" x="642.724609"/>
     <use xlink:href="#DejaVuSans-6e" x="670.507812"/>
     <use xlink:href="#DejaVuSans-64" x="733.886719"/>
     <use xlink:href="#DejaVuSans-6f" x="797.363281"/>
     <use xlink:href="#DejaVuSans-77" x="858.544922"/>
     <use xlink:href="#DejaVuSans-20" x="940.332031"/>
     <use xlink:href="#DejaVuSans-66" x="972.119141"/>
     <use xlink:href="#DejaVuSans-65" x="1007.324219"/>
     <use xlink:href="#DejaVuSans-61" x="1068.847656"/>
     <use xlink:href="#DejaVuSans-74" x="1130.126953"/>
     <use xlink:href="#DejaVuSans-75" x="1169.335938"/>
     <use xlink:href="#DejaVuSans-72" x="1232.714844"/>
     <use xlink:href="#DejaVuSans-65" x="1271.578125"/>
     <use xlink:href="#DejaVuSans-73" x="1333.101562"/>
     <use xlink:href="#DejaVuSans-20" x="1385.201172"/>
     <use xlink:href="#DejaVuSans-61" x="1416.988281"/>
     <use xlink:href="#DejaVuSans-20" x="1478.267578"/>
     <use xlink:href="#DejaVuSans-73" x="1510.054688"/>
     <use xlink:href="#DejaVuSans-69" x="1562.154297"/>
     <use xlink:href="#DejaVuSans-67" x="1589.9375"/>
     <use xlink:href="#DejaVuSans-6e" x="1653.414062"/>
     <use xlink:href="#DejaVuSans-69" x="1716.792969"/>
     <use xlink:href="#DejaVuSans-66" x="1744.576172"/>
     <use xlink:href="#DejaVuSans-69" x="1779.78125"/>
     <use xlink:href="#DejaVuSans-63" x="1807.564453"/>
     <use xlink:href="#DejaVuSans-61" x="1862.544922"/>
     <use xlink:href="#DejaVuSans-6e" x="1923.824219"/>
     <use xlink:href="#DejaVuSans-74" x="1987.203125"/>
     <use xlink:href="#DejaVuSans-20" x="2026.412109"/>
     <use xlink:href="#DejaVuSans-64" x="2058.199219"/>
     <use xlink:href="#DejaVuSans-6f" x="2121.675781"/>
     <use xlink:href="#DejaVuSans-77" x="2182.857422"/>
     <use xlink:href="#DejaVuSans-6e" x="2264.644531"/>
     <use xlink:href="#DejaVuSans-77" x="2328.023438"/>
     <use xlink:href="#DejaVuSans-61" x="2409.810547"/>
     <use xlink:href="#DejaVuSans-72" x="2471.089844"/>
     <use xlink:href="#DejaVuSans-64" x="2510.453125"/>
     <use xlink:href="#DejaVuSans-20" x="2573.929688"/>
     <use xlink:href="#DejaVuSans-6d" x="2605.716797"/>
     <use xlink:href="#DejaVuSans-6f" x="2703.128906"/>
     <use xlink:href="#DejaVuSans-76" x="2764.310547"/>
     <use xlink:href="#DejaVuSans-65" x="2823.490234"/>
     <use xlink:href="#DejaVuSans-6d" x="2885.013672"/>
     <use xlink:href="#DejaVuSans-65" x="2982.425781"/>
     <use xlink:href="#DejaVuSans-6e" x="3043.949219"/>
     <use xlink:href="#DejaVuSans-74" x="3107.328125"/>
     <use xlink:href="#DejaVuSans-2c" x="3146.537109"/>
     <use xlink:href="#DejaVuSans-20" x="3178.324219"/>
     <use xlink:href="#DejaVuSans-66" x="3210.111328"/>
     <use xlink:href="#DejaVuSans-6f" x="3245.316406"/>
     <use xlink:href="#DejaVuSans-6c" x="3306.498047"/>
     <use xlink:href="#DejaVuSans-6c" x="3334.28125"/>
     <use xlink:href="#DejaVuSans-6f" x="3362.064453"/>
     <use xlink:href="#DejaVuSans-77" x="3423.246094"/>
     <use xlink:href="#DejaVuSans-65" x="3505.033203"/>
     <use xlink:href="#DejaVuSans-64" x="3566.556641"/>
     <use xlink:href="#DejaVuSans-20" x="3630.033203"/>
     <use xlink:href="#DejaVuSans-62" x="3661.820312"/>
     <use xlink:href="#DejaVuSans-79" x="3725.296875"/>
     <use xlink:href="#DejaVuSans-20" x="3784.476562"/>
     <use xlink:href="#DejaVuSans-61" x="3816.263672"/>
     <use xlink:href="#DejaVuSans-20" x="3877.542969"/>
     <use xlink:href="#DejaVuSans-66" x="3909.330078"/>
     <use xlink:href="#DejaVuSans-6c" x="3944.535156"/>
     <use xlink:href="#DejaVuSans-61" x="3972.318359"/>
     <use xlink:href="#DejaVuSans-74" x="4033.597656"/>
     <use xlink:href="#DejaVuSans-20" x="4072.806641"/>
     <use xlink:href="#DejaVuSans-70" x="4104.59375"/>
     <use xlink:href="#DejaVuSans-68" x="4168.070312"/>
     <use xlink:href="#DejaVuSans-61" x="4231.449219"/>
     <use xlink:href="#DejaVuSans-73" x="4292.728516"/>
     <use xlink:href="#DejaVuSans-65" x="4344.828125"/>
     <use xlink:href="#DejaVuSans-20" x="4406.351562"/>
     <use xlink:href="#DejaVuSans-69" x="4438.138672"/>
     <use xlink:href="#DejaVuSans-6e" x="4465.921875"/>
     <use xlink:href="#DejaVuSans-20" x="4529.300781"/>
     <use xlink:href="#DejaVuSans-74" x="4561.087891"/>
     <use xlink:href="#DejaVuSans-68" x="4600.296875"/>
     <use xlink:href="#DejaVuSans-65" x="4663.675781"/>
    </g>
    <!-- first half and an upward trend in the second half. A notable peak occurs around the middle -->
    <g style="fill: #2f3b4a" transform="translate(40.603125 398.851162) scale(0.1 -0.1)">
     <defs>
      <path id="DejaVuSans-41" d="M 2188 4044 
L 1331 1722 
L 3047 1722 
L 2188 4044 
z
M 1831 4666 
L 2547 4666 
L 4325 0 
L 3669 0 
L 3244 1197 
L 1141 1197 
L 716 0 
L 50 0 
L 1831 4666 
z
" transform="scale(0.015625)"/>
     </defs>
     <use xlink:href="#DejaVuSans-66"/>
     <use xlink:href="#DejaVuSans-69" x="35.205078"/>
     <use xlink:href="#DejaVuSans-72" x="62.988281"/>
     <use xlink:href="#DejaVuSans-73" x="104.101562"/>
     <use xlink:href="#DejaVuSans-74" x="156.201172"/>
     <use xlink:href="#DejaVuSans-20" x="195.410156"/>
     <use xlink:href="#DejaVuSans-68" x="227.197266"/>
     <use xlink:href="#DejaVuSans-61" x="290.576172"/>
     <use xlink:href="#DejaVuSans-6c" x="351.855469"/>
     <use xlink:href="#DejaVuSans-66" x="379.638672"/>
     <use xlink:href="#DejaVuSans-20" x="414.84375"/>
     <use xlink:href="#DejaVuSans-61" x="446.630859"/>
     <use xlink:href="#DejaVuSans-6e" x="507.910156"/>
     <use xlink:href="#DejaVuSans-64" x="571.289062"/>
     <use xlink:href="#DejaVuSans-20" x="634.765625"/>
     <use xlink:href="#DejaVuSans-61" x="666.552734"/>
     <use xlink:href="#DejaVuSans-6e" x="727.832031"/>
     <use xlink:href="#DejaVuSans-20" x="791.210938"/>
     <use xlink:href="#DejaVuSans-75" x="822.998047"/>
     <use xlink:href="#DejaVuSans-70" x="886.376953"/>
     <use xlink:href="#DejaVuSans-77" x="949.853516"/>
     <use xlink:href="#DejaVuSans-61" x="1031.640625"/>
     <use xlink:href="#DejaVuSans-72" x="1092.919922"/>
     <use xlink:href="#DejaVuSans-64" x="1132.283203"/>
     <use xlink:href="#DejaVuSans-20" x="1195.759766"/>
     <use xlink:href="#DejaVuSans-74" x="1227.546875"/>
     <use xlink:href="#DejaVuSans-72" x="1266.755859"/>
     <use xlink:href="#DejaVuSans-65" x="1305.619141"/>
     <use xlink:href="#DejaVuSans-6e" x="1367.142578"/>
     <use xlink:href="#DejaVuSans-64" x="1430.521484"/>
     <use xlink:href="#DejaVuSans-20" x="1493.998047"/>
     <use xlink:href="#DejaVuSans-69" x="1525.785156"/>
     <use xlink:href="#DejaVuSans-6e" x="1553.568359"/>
     <use xlink:href="#DejaVuSans-20" x="1616.947266"/>
     <use xlink:href="#DejaVuSans-74" x="1648.734375"/>
     <use xlink:href="#DejaVuSans-68" x="1687.943359"/>
     <use xlink:href="#DejaVuSans-65" x="1751.322266"/>
     <use xlink:href="#DejaVuSans-20" x="1812.845703"/>
     <use xlink:href="#DejaVuSans-73" x="1844.632812"/>
     <use xlink:href="#DejaVuSans-65" x="1896.732422"/>
     <use xlink:href="#DejaVuSans-63" x="1958.255859"/>
     <use xlink:href="#DejaVuSans-6f" x="2013.236328"/>
     <use xlink:href="#DejaVuSans-6e" x="2074.417969"/>
     <use xlink:href="#DejaVuSans-64" x="2137.796875"/>
     <use xlink:href="#DejaVuSans-20" x="2201.273438"/>
     <use xlink:href="#DejaVuSans-68" x="2233.060547"/>
     <use xlink:href="#DejaVuSans-61" x="2296.439453"/>
     <use xlink:href="#DejaVuSans-6c" x="2357.71875"/>
     <use xlink:href="#DejaVuSans-66" x="2385.501953"/>
     <use xlink:href="#DejaVuSans-2e" x="2413.457031"/>
     <use xlink:href="#DejaVuSans-20" x="2445.244141"/>
     <use xlink:href="#DejaVuSans-41" x="2477.03125"/>
     <use xlink:href="#DejaVuSans-20" x="2545.439453"/>
     <use xlink:href="#DejaVuSans-6e" x="2577.226562"/>
     <use xlink:href="#DejaVuSans-6f" x="2640.605469"/>
     <use xlink:href="#DejaVuSans-74" x="2701.787109"/>
     <use xlink:href="#DejaVuSans-61" x="2740.996094"/>
     <use xlink:href="#DejaVuSans-62" x="2802.275391"/>
     <use xlink:href="#DejaVuSans-6c" x="2865.751953"/>
     <use xlink:href="#DejaVuSans-65" x="2893.535156"/>
     <use xlink:href="#DejaVuSans-20" x="2955.058594"/>
     <use xlink:href="#DejaVuSans-70" x="2986.845703"/>
     <use xlink:href="#DejaVuSans-65" x="3050.322266"/>
     <use xlink:href="#DejaVuSans-61" x="3111.845703"/>
     <use xlink:href="#DejaVuSans-6b" x="3173.125"/>
     <use xlink:href="#DejaVuSans-20" x="3231.035156"/>
     <use xlink:href="#DejaVuSans-6f" x="3262.822266"/>
     <use xlink:href="#DejaVuSans-63" x="3324.003906"/>
     <use xlink:href="#DejaVuSans-63" x="3378.984375"/>
     <use xlink:href="#DejaVuSans-75" x="3433.964844"/>
     <use xlink:href="#DejaVuSans-72" x="3497.34375"/>
     <use xlink:href="#DejaVuSans-73" x="3538.457031"/>
     <use xlink:href="#DejaVuSans-20" x="3590.556641"/>
     <use xlink:href="#DejaVuSans-61" x="3622.34375"/>
     <use xlink:href="#DejaVuSans-72" x="3683.623047"/>
     <use xlink:href="#DejaVuSans-6f" x="3722.486328"/>
     <use xlink:href="#DejaVuSans-75" x="3783.667969"/>
     <use xlink:href="#DejaVuSans-6e" x="3847.046875"/>
     <use xlink:href="#DejaVuSans-64" x="3910.425781"/>
     <use xlink:href="#DejaVuSans-20" x="3973.902344"/>
     <use xlink:href="#DejaVuSans-74" x="4005.689453"/>
     <use xlink:href="#DejaVuSans-68" x="4044.898438"/>
     <use xlink:href="#DejaVuSans-65" x="4108.277344"/>
     <use xlink:href="#DejaVuSans-20" x="4169.800781"/>
     <use xlink:href="#DejaVuSans-6d" x="4201.587891"/>
     <use xlink:href="#DejaVuSans-69" x="4299"/>
     <use xlink:href="#DejaVuSans-64" x="4326.783203"/>
     <use xlink:href="#DejaVuSans-64" x="4390.259766"/>
     <use xlink:href="#DejaVuSans-6c" x="4453.736328"/>
     <use xlink:href="#DejaVuSans-65" x="4481.519531"/>
    </g>
    <!-- of the window, reaching about 2.4 standard deviations above the mean, while a deep valley is -->
    <g style="fill: #2f3b4a" transform="translate(40.603125 410.048975) scale(0.1 -0.1)">
     <defs>
      <path id="DejaVuSans-34" d="M 2419 4116 
L 825 1625 
L 2419 1625 
L 2419 4116 
z
M 2253 4666 
L 3047 4666 
L 3047 1625 
L 3713 1625 
L 3713 1100 
L 3047 1100 
L 3047 0 
L 2419 0 
L 2419 1100 
L 313 1100 
L 313 1709 
L 2253 4666 
z
" transform="scale(0.015625)"/>
     </defs>
     <use xlink:href="#DejaVuSans-6f"/>
     <use xlink:href="#DejaVuSans-66" x="61.181641"/>
     <use xlink:href="#DejaVuSans-20" x="96.386719"/>
     <use xlink:href="#DejaVuSans-74" x="128.173828"/>
     <use xlink:href="#DejaVuSans-68" x="167.382812"/>
     <use xlink:href="#DejaVuSans-65" x="230.761719"/>
     <use xlink:href="#DejaVuSans-20" x="292.285156"/>
     <use xlink:href="#DejaVuSans-77" x="324.072266"/>
     <use xlink:href="#DejaVuSans-69" x="405.859375"/>
     <use xlink:href="#DejaVuSans-6e" x="433.642578"/>
     <use xlink:href="#DejaVuSans-64" x="497.021484"/>
     <use xlink:href="#DejaVuSans-6f" x="560.498047"/>
     <use xlink:href="#DejaVuSans-77" x="621.679688"/>
     <use xlink:href="#DejaVuSans-2c" x="703.466797"/>
     <use xlink:href="#DejaVuSans-20" x="735.253906"/>
     <use xlink:href="#DejaVuSans-72" x="767.041016"/>
     <use xlink:href="#DejaVuSans-65" x="805.904297"/>
     <use xlink:href="#DejaVuSans-61" x="867.427734"/>
     <use xlink:href="#DejaVuSans-63" x="928.707031"/>
     <use xlink:href="#DejaVuSans-68" x="983.6875"/>
     <use xlink:href="#DejaVuSans-69" x="1047.066406"/>
     <use xlink:href="#DejaVuSans-6e" x="1074.849609"/>
     <use xlink:href="#DejaVuSans-67" x="1138.228516"/>
     <use xlink:href="#DejaVuSans-20" x="1201.705078"/>
     <use xlink:href="#DejaVuSans-61" x="1233.492188"/>
     <use xlink:href="#DejaVuSans-62" x="1294.771484"/>
     <use xlink:href="#DejaVuSans-6f" x="1358.248047"/>
     <use xlink:href="#DejaVuSans-75" x="1419.429688"/>
     <use xlink:href="#DejaVuSans-74" x="1482.808594"/>
     <use xlink:href="#DejaVuSans-20" x="1522.017578"/>
     <use xlink:href="#DejaVuSans-32" x="1553.804688"/>
     <use xlink:href="#DejaVuSans-2e" x="1617.427734"/>
     <use xlink:href="#DejaVuSans-34" x="1649.214844"/>
     <use xlink:href="#DejaVuSans-20" x="1712.837891"/>
     <use xlink:href="#DejaVuSans-73" x="1744.625"/>
     <use xlink:href="#DejaVuSans-74" x="1796.724609"/>
     <use xlink:href="#DejaVuSans-61" x="1835.933594"/>
     <use xlink:href="#DejaVuSans-6e" x="1897.212891"/>
     <use xlink:href="#DejaVuSans-64" x="1960.591797"/>
     <use xlink:href="#DejaVuSans-61" x="2024.068359"/>
     <use xlink:href="#DejaVuSans-72" x="2085.347656"/>
     <use xlink:href="#DejaVuSans-64" x="2124.710938"/>
     <use xlink:href="#DejaVuSans-20" x="2188.1875"/>
     <use xlink:href="#DejaVuSans-64" x="2219.974609"/>
     <use xlink:href="#DejaVuSans-65" x="2283.451172"/>
     <use xlink:href="#DejaVuSans-76" x="2344.974609"/>
     <use xlink:href="#DejaVuSans-69" x="2404.154297"/>
     <use xlink:href="#DejaVuSans-61" x="2431.9375"/>
     <use xlink:href="#DejaVuSans-74" x="2493.216797"/>
     <use xlink:href="#DejaVuSans-69" x="2532.425781"/>
     <use xlink:href="#DejaVuSans-6f" x="2560.208984"/>
     <use xlink:href="#DejaVuSans-6e" x="2621.390625"/>
     <use xlink:href="#DejaVuSans-73" x="2684.769531"/>
     <use xlink:href="#DejaVuSans-20" x="2736.869141"/>
     <use xlink:href="#DejaVuSans-61" x="2768.65625"/>
     <use xlink:href="#DejaVuSans-62" x="2829.935547"/>
     <use xlink:href="#DejaVuSans-6f" x="2893.412109"/>
     <use xlink:href="#DejaVuSans-76" x="2954.59375"/>
     <use xlink:href="#DejaVuSans-65" x="3013.773438"/>
     <use xlink:href="#DejaVuSans-20" x="3075.296875"/>
     <use xlink:href="#DejaVuSans-74" x="3107.083984"/>
     <use xlink:href="#DejaVuSans-68" x="3146.292969"/>
     <use xlink:href="#DejaVuSans-65" x="3209.671875"/>
     <use xlink:href="#DejaVuSans-20" x="3271.195312"/>
     <use xlink:href="#DejaVuSans-6d" x="3302.982422"/>
     <use xlink:href="#DejaVuSans-65" x="3400.394531"/>
     <use xlink:href="#DejaVuSans-61" x="3461.917969"/>
     <use xlink:href="#DejaVuSans-6e" x="3523.197266"/>
     <use xlink:href="#DejaVuSans-2c" x="3586.576172"/>
     <use xlink:href="#DejaVuSans-20" x="3618.363281"/>
     <use xlink:href="#DejaVuSans-77" x="3650.150391"/>
     <use xlink:href="#DejaVuSans-68" x="3731.9375"/>
     <use xlink:href="#DejaVuSans-69" x="3795.316406"/>
     <use xlink:href="#DejaVuSans-6c" x="3823.099609"/>
     <use xlink:href="#DejaVuSans-65" x="3850.882812"/>
     <use xlink:href="#DejaVuSans-20" x="3912.40625"/>
     <use xlink:href="#DejaVuSans-61" x="3944.193359"/>
     <use xlink:href="#DejaVuSans-20" x="4005.472656"/>
     <use xlink:href="#DejaVuSans-64" x="4037.259766"/>
     <use xlink:href="#DejaVuSans-65" x="4100.736328"/>
     <use xlink:href="#DejaVuSans-65" x="4162.259766"/>
     <use xlink:href="#DejaVuSans-70" x="4223.783203"/>
     <use xlink:href="#DejaVuSans-20" x="4287.259766"/>
     <use xlink:href="#DejaVuSans-76" x="4319.046875"/>
     <use xlink:href="#DejaVuSans-61" x="4378.226562"/>
     <use xlink:href="#DejaVuSans-6c" x="4439.505859"/>
     <use xlink:href="#DejaVuSans-6c" x="4467.289062"/>
     <use xlink:href="#DejaVuSans-65" x="4495.072266"/>
     <use xlink:href="#DejaVuSans-79" x="4556.595703"/>
     <use xlink:href="#DejaVuSans-20" x="4615.775391"/>
     <use xlink:href="#DejaVuSans-69" x="4647.5625"/>
     <use xlink:href="#DejaVuSans-73" x="4675.345703"/>
    </g>
    <!-- observed early in the window, also about 2.4 standard deviations below the mean. The oil -->
    <g style="fill: #2f3b4a" transform="translate(40.603125 421.246787) scale(0.1 -0.1)">
     <use xlink:href="#DejaVuSans-6f"/>
     <use xlink:href="#DejaVuSans-62" x="61.181641"/>
     <use xlink:href="#DejaVuSans-73" x="124.658203"/>
     <use xlink:href="#DejaVuSans-65" x="176.757812"/>
     <use xlink:href="#DejaVuSans-72" x="238.28125"/>
     <use xlink:href="#DejaVuSans-76" x="279.394531"/>
     <use xlink:href="#DejaVuSans-65" x="338.574219"/>
     <use xlink:href="#DejaVuSans-64" x="400.097656"/>
     <use xlink:href="#DejaVuSans-20" x="463.574219"/>
     <use xlink:href="#DejaVuSans-65" x="495.361328"/>
     <use xlink:href="#DejaVuSans-61" x="556.884766"/>
     <use xlink:href="#DejaVuSans-72" x="618.164062"/>
     <use xlink:href="#DejaVuSans-6c" x="659.277344"/>
     <use xlink:href="#DejaVuSans-79" x="687.060547"/>
     <use xlink:href="#DejaVuSans-20" x="746.240234"/>
     <use xlink:href="#DejaVuSans-69" x="778.027344"/>
     <use xlink:href="#DejaVuSans-6e" x="805.810547"/>
     <use xlink:href="#DejaVuSans-20" x="869.189453"/>
     <use xlink:href="#DejaVuSans-74" x="900.976562"/>
     <use xlink:href="#DejaVuSans-68" x="940.185547"/>
     <use xlink:href="#DejaVuSans-65" x="1003.564453"/>
     <use xlink:href="#DejaVuSans-20" x="1065.087891"/>
     <use xlink:href="#DejaVuSans-77" x="1096.875"/>
     <use xlink:href="#DejaVuSans-69" x="1178.662109"/>
     <use xlink:href="#DejaVuSans-6e" x="1206.445312"/>
     <use xlink:href="#DejaVuSans-64" x="1269.824219"/>
     <use xlink:href="#DejaVuSans-6f" x="1333.300781"/>
     <use xlink:href="#DejaVuSans-77" x="1394.482422"/>
     <use xlink:href="#DejaVuSans-2c" x="1476.269531"/>
     <use xlink:href="#DejaVuSans-20" x="1508.056641"/>
     <use xlink:href="#DejaVuSans-61" x="1539.84375"/>
     <use xlink:href="#DejaVuSans-6c" x="1601.123047"/>
     <use xlink:href="#DejaVuSans-73" x="1628.90625"/>
     <use xlink:href="#DejaVuSans-6f" x="1681.005859"/>
     <use xlink:href="#DejaVuSans-20" x="1742.1875"/>
     <use xlink:href="#DejaVuSans-61" x="1773.974609"/>
     <use xlink:href="#DejaVuSans-62" x="1835.253906"/>
     <use xlink:href="#DejaVuSans-6f" x="1898.730469"/>
     <use xlink:href="#DejaVuSans-75" x="1959.912109"/>
     <use xlink:href="#DejaVuSans-74" x="2023.291016"/>
     <use xlink:href="#DejaVuSans-20" x="2062.5"/>
     <use xlink:href="#DejaVuSans-32" x="2094.287109"/>
     <use xlink:href="#DejaVuSans-2e" x="2157.910156"/>
     <use xlink:href="#DejaVuSans-34" x="2189.697266"/>
     <use xlink:href="#DejaVuSans-20" x="2253.320312"/>
     <use xlink:href="#DejaVuSans-73" x="2285.107422"/>
     <use xlink:href="#DejaVuSans-74" x="2337.207031"/>
     <use xlink:href="#DejaVuSans-61" x="2376.416016"/>
     <use xlink:href="#DejaVuSans-6e" x="2437.695312"/>
     <use xlink:href="#DejaVuSans-64" x="2501.074219"/>
     <use xlink:href="#DejaVuSans-61" x="2564.550781"/>
     <use xlink:href="#DejaVuSans-72" x="2625.830078"/>
     <use xlink:href="#DejaVuSans-64" x="2665.193359"/>
     <use xlink:href="#DejaVuSans-20" x="2728.669922"/>
     <use xlink:href="#DejaVuSans-64" x="2760.457031"/>
     <use xlink:href="#DejaVuSans-65" x="2823.933594"/>
     <use xlink:href="#DejaVuSans-76" x="2885.457031"/>
     <use xlink:href="#DejaVuSans-69" x="2944.636719"/>
     <use xlink:href="#DejaVuSans-61" x="2972.419922"/>
     <use xlink:href="#DejaVuSans-74" x="3033.699219"/>
     <use xlink:href="#DejaVuSans-69" x="3072.908203"/>
     <use xlink:href="#DejaVuSans-6f" x="3100.691406"/>
     <use xlink:href="#DejaVuSans-6e" x="3161.873047"/>
     <use xlink:href="#DejaVuSans-73" x="3225.251953"/>
     <use xlink:href="#DejaVuSans-20" x="3277.351562"/>
     <use xlink:href="#DejaVuSans-62" x="3309.138672"/>
     <use xlink:href="#DejaVuSans-65" x="3372.615234"/>
     <use xlink:href="#DejaVuSans-6c" x="3434.138672"/>
     <use xlink:href="#DejaVuSans-6f" x="3461.921875"/>
     <use xlink:href="#DejaVuSans-77" x="3523.103516"/>
     <use xlink:href="#DejaVuSans-20" x="3604.890625"/>
     <use xlink:href="#DejaVuSans-74" x="3636.677734"/>
     <use xlink:href="#DejaVuSans-68" x="3675.886719"/>
     <use xlink:href="#DejaVuSans-65" x="3739.265625"/>
     <use xlink:href="#DejaVuSans-20" x="3800.789062"/>
     <use xlink:href="#DejaVuSans-6d" x="3832.576172"/>
     <use xlink:href="#DejaVuSans-65" x="3929.988281"/>
     <use xlink:href="#DejaVuSans-61" x="3991.511719"/>
     <use xlink:href="#DejaVuSans-6e" x="4052.791016"/>
     <use xlink:href="#DejaVuSans-2e" x="4116.169922"/>
     <use xlink:href="#DejaVuSans-20" x="4147.957031"/>
     <use xlink:href="#DejaVuSans-54" x="4179.744141"/>
     <use xlink:href="#DejaVuSans-68" x="4240.828125"/>
     <use xlink:href="#DejaVuSans-65" x="4304.207031"/>
     <use xlink:href="#DejaVuSans-20" x="4365.730469"/>
     <use xlink:href="#DejaVuSans-6f" x="4397.517578"/>
     <use xlink:href="#DejaVuSans-69" x="4458.699219"/>
     <use xlink:href="#DejaVuSans-6c" x="4486.482422"/>
    </g>
    <!-- temperature (OT) is moderately positively correlated with HUFL and MUFL, indicating some -->
    <g style="fill: #2f3b4a" transform="translate(40.603125 432.4446) scale(0.1 -0.1)">
     <defs>
      <path id="DejaVuSans-28" d="M 1984 4856 
Q 1566 4138 1362 3434 
Q 1159 2731 1159 2009 
Q 1159 1288 1364 580 
Q 1569 -128 1984 -844 
L 1484 -844 
Q 1016 -109 783 600 
Q 550 1309 550 2009 
Q 550 2706 781 3412 
Q 1013 4119 1484 4856 
L 1984 4856 
z
" transform="scale(0.015625)"/>
      <path id="DejaVuSans-29" d="M 513 4856 
L 1013 4856 
Q 1481 4119 1714 3412 
Q 1947 2706 1947 2009 
Q 1947 1309 1714 600 
Q 1481 -109 1013 -844 
L 513 -844 
Q 928 -128 1133 580 
Q 1338 1288 1338 2009 
Q 1338 2731 1133 3434 
Q 928 4138 513 4856 
z
" transform="scale(0.015625)"/>
      <path id="DejaVuSans-48" d="M 628 4666 
L 1259 4666 
L 1259 2753 
L 3553 2753 
L 3553 4666 
L 4184 4666 
L 4184 0 
L 3553 0 
L 3553 2222 
L 1259 2222 
L 1259 0 
L 628 0 
L 628 4666 
z
" transform="scale(0.015625)"/>
      <path id="DejaVuSans-55" d="M 556 4666 
L 1191 4666 
L 1191 1831 
Q 1191 1081 1462 751 
Q 1734 422 2344 422 
Q 2950 422 3222 751 
Q 3494 1081 3494 1831 
L 3494 4666 
L 4128 4666 
L 4128 1753 
Q 4128 841 3676 375 
Q 3225 -91 2344 -91 
Q 1459 -91 1007 375 
Q 556 841 556 1753 
L 556 4666 
z
" transform="scale(0.015625)"/>
      <path id="DejaVuSans-46" d="M 628 4666 
L 3309 4666 
L 3309 4134 
L 1259 4134 
L 1259 2759 
L 3109 2759 
L 3109 2228 
L 1259 2228 
L 1259 0 
L 628 0 
L 628 4666 
z
" transform="scale(0.015625)"/>
      <path id="DejaVuSans-4c" d="M 628 4666 
L 1259 4666 
L 1259 531 
L 3531 531 
L 3531 0 
L 628 0 
L 628 4666 
z
" transform="scale(0.015625)"/>
      <path id="DejaVuSans-4d" d="M 628 4666 
L 1569 4666 
L 2759 1491 
L 3956 4666 
L 4897 4666 
L 4897 0 
L 4281 0 
L 4281 4097 
L 3078 897 
L 2444 897 
L 1241 4097 
L 1241 0 
L 628 0 
L 628 4666 
z
" transform="scale(0.015625)"/>
     </defs>
     <use xlink:href="#DejaVuSans-74"/>
     <use xlink:href="#DejaVuSans-65" x="39.208984"/>
     <use xlink:href="#DejaVuSans-6d" x="100.732422"/>
     <use xlink:href="#DejaVuSans-70" x="198.144531"/>
     <use xlink:href="#DejaVuSans-65" x="261.621094"/>
     <use xlink:href="#DejaVuSans-72" x="323.144531"/>
     <use xlink:href="#DejaVuSans-61" x="364.257812"/>
     <use xlink:href="#DejaVuSans-74" x="425.537109"/>
     <use xlink:href="#DejaVuSans-75" x="464.746094"/>
     <use xlink:href="#DejaVuSans-72" x="528.125"/>
     <use xlink:href="#DejaVuSans-65" x="566.988281"/>
     <use xlink:href="#DejaVuSans-20" x="628.511719"/>
     <use xlink:href="#DejaVuSans-28" x="660.298828"/>
     <use xlink:href="#DejaVuSans-4f" x="699.3125"/>
     <use xlink:href="#DejaVuSans-54" x="778.023438"/>
     <use xlink:href="#DejaVuSans-29" x="839.107422"/>
     <use xlink:href="#DejaVuSans-20" x="878.121094"/>
     <use xlink:href="#DejaVuSans-69" x="909.908203"/>
     <use xlink:href="#DejaVuSans-73" x="937.691406"/>
     <use xlink:href="#DejaVuSans-20" x="989.791016"/>
     <use xlink:href="#DejaVuSans-6d" x="1021.578125"/>
     <use xlink:href="#DejaVuSans-6f" x="1118.990234"/>
     <use xlink:href="#DejaVuSans-64" x="1180.171875"/>
     <use xlink:href="#DejaVuSans-65" x="1243.648438"/>
     <use xlink:href="#DejaVuSans-72" x="1305.171875"/>
     <use xlink:href="#DejaVuSans-61" x="1346.285156"/>
     <use xlink:href="#DejaVuSans-74" x="1407.564453"/>
     <use xlink:href="#DejaVuSans-65" x="1446.773438"/>
     <use xlink:href="#DejaVuSans-6c" x="1508.296875"/>
     <use xlink:href="#DejaVuSans-79" x="1536.080078"/>
     <use xlink:href="#DejaVuSans-20" x="1595.259766"/>
     <use xlink:href="#DejaVuSans-70" x="1627.046875"/>
     <use xlink:href="#DejaVuSans-6f" x="1690.523438"/>
     <use xlink:href="#DejaVuSans-73" x="1751.705078"/>
     <use xlink:href="#DejaVuSans-69" x="1803.804688"/>
     <use xlink:href="#DejaVuSans-74" x="1831.587891"/>
     <use xlink:href="#DejaVuSans-69" x="1870.796875"/>
     <use xlink:href="#DejaVuSans-76" x="1898.580078"/>
     <use xlink:href="#DejaVuSans-65" x="1957.759766"/>
     <use xlink:href="#DejaVuSans-6c" x="2019.283203"/>
     <use xlink:href="#DejaVuSans-79" x="2047.066406"/>
     <use xlink:href="#DejaVuSans-20" x="2106.246094"/>
     <use xlink:href="#DejaVuSans-63" x="2138.033203"/>
     <use xlink:href="#DejaVuSans-6f" x="2193.013672"/>
     <use xlink:href="#DejaVuSans-72" x="2254.195312"/>
     <use xlink:href="#DejaVuSans-72" x="2293.558594"/>
     <use xlink:href="#DejaVuSans-65" x="2332.421875"/>
     <use xlink:href="#DejaVuSans-6c" x="2393.945312"/>
     <use xlink:href="#DejaVuSans-61" x="2421.728516"/>
     <use xlink:href="#DejaVuSans-74" x="2483.007812"/>
     <use xlink:href="#DejaVuSans-65" x="2522.216797"/>
     <use xlink:href="#DejaVuSans-64" x="2583.740234"/>
     <use xlink:href="#DejaVuSans-20" x="2647.216797"/>
     <use xlink:href="#DejaVuSans-77" x="2679.003906"/>
     <use xlink:href="#DejaVuSans-69" x="2760.791016"/>
     <use xlink:href="#DejaVuSans-74" x="2788.574219"/>
     <use xlink:href="#DejaVuSans-68" x="2827.783203"/>
     <use xlink:href="#DejaVuSans-20" x="2891.162109"/>
     <use xlink:href="#DejaVuSans-48" x="2922.949219"/>
     <use xlink:href="#DejaVuSans-55" x="2998.144531"/>
     <use xlink:href="#DejaVuSans-46" x="3071.337891"/>
     <use xlink:href="#DejaVuSans-4c" x="3128.857422"/>
     <use xlink:href="#DejaVuSans-20" x="3184.570312"/>
     <use xlink:href="#DejaVuSans-61" x="3216.357422"/>
     <use xlink:href="#DejaVuSans-6e" x="3277.636719"/>
     <use xlink:href="#DejaVuSans-64" x="3341.015625"/>
     <use xlink:href="#DejaVuSans-20" x="3404.492188"/>
     <use xlink:href="#DejaVuSans-4d" x="3436.279297"/>
     <use xlink:href="#DejaVuSans-55" x="3522.558594"/>
     <use xlink:href="#DejaVuSans-46" x="3595.751953"/>
     <use xlink:href="#DejaVuSans-4c" x="3653.271484"/>
     <use xlink:href="#DejaVuSans-2c" x="3708.984375"/>
     <use xlink:href="#DejaVuSans-20" x="3740.771484"/>
     <use xlink:href="#DejaVuSans-69" x="3772.558594"/>
     <use xlink:href="#DejaVuSans-6e" x="3800.341797"/>
     <use xlink:href="#DejaVuSans-64" x="3863.720703"/>
     <use xlink:href="#DejaVuSans-69" x="3927.197266"/>
     <use xlink:href="#DejaVuSans-63" x="3954.980469"/>
     <use xlink:href="#DejaVuSans-61" x="4009.960938"/>
     <use xlink:href="#DejaVuSans-74" x="4071.240234"/>
     <use xlink:href="#DejaVuSans-69" x="4110.449219"/>
     <use xlink:href="#DejaVuSans-6e" x="4138.232422"/>
     <use xlink:href="#DejaVuSans-67" x="4201.611328"/>
     <use xlink:href="#DejaVuSans-20" x="4265.087891"/>
     <use xlink:href="#DejaVuSans-73" x="4296.875"/>
     <use xlink:href="#DejaVuSans-6f" x="4348.974609"/>
     <use xlink:href="#DejaVuSans-6d" x="4410.15625"/>
     <use xlink:href="#DejaVuSans-65" x="4507.568359"/>
    </g>
    <!-- load influence on temperature changes. -->
    <g style="fill: #2f3b4a" transform="translate(40.603125 443.642412) scale(0.1 -0.1)">
     <use xlink:href="#DejaVuSans-6c"/>
     <use xlink:href="#DejaVuSans-6f" x="27.783203"/>
     <use xlink:href="#DejaVuSans-61" x="88.964844"/>
     <use xlink:href="#DejaVuSans-64" x="150.244141"/>
     <use xlink:href="#DejaVuSans-20" x="213.720703"/>
     <use xlink:href="#DejaVuSans-69" x="245.507812"/>
     <use xlink:href="#DejaVuSans-6e" x="273.291016"/>
     <use xlink:href="#DejaVuSans-66" x="336.669922"/>
     <use xlink:href="#DejaVuSans-6c" x="371.875"/>
     <use xlink:href="#DejaVuSans-75" x="399.658203"/>
     <use xlink:href="#DejaVuSans-65" x="463.037109"/>
     <use xlink:href="#DejaVuSans-6e" x="524.560547"/>
     <use xlink:href="#DejaVuSans-63" x="587.939453"/>
     <use xlink:href="#DejaVuSans-65" x="642.919922"/>
     <use xlink:href="#DejaVuSans-20" x="704.443359"/>
     <use xlink:href="#DejaVuSans-6f" x="736.230469"/>
     <use xlink:href="#DejaVuSans-6e" x="797.412109"/>
     <use xlink:href="#DejaVuSans-20" x="860.791016"/>
     <use xlink:href="#DejaVuSans-74" x="892.578125"/>
     <use xlink:href="#DejaVuSans-65" x="931.787109"/>
     <use xlink:href="#DejaVuSans-6d" x="993.310547"/>
     <use xlink:href="#DejaVuSans-70" x="1090.722656"/>
     <use xlink:href="#DejaVuSans-65" x="1154.199219"/>
     <use xlink:href="#DejaVuSans-72" x="1215.722656"/>
     <use xlink:href="#DejaVuSans-61" x="1256.835938"/>
     <use xlink:href="#DejaVuSans-74" x="1318.115234"/>
     <use xlink:href="#DejaVuSans-75" x="1357.324219"/>
     <use xlink:href="#DejaVuSans-72" x="1420.703125"/>
     <use xlink:href="#DejaVuSans-65" x="1459.566406"/>
     <use xlink:href="#DejaVuSans-20" x="1521.089844"/>
     <use xlink:href="#DejaVuSans-63" x="1552.876953"/>
     <use xlink:href="#DejaVuSans-68" x="1607.857422"/>
     <use xlink:href="#DejaVuSans-61" x="1671.236328"/>
     <use xlink:href="#DejaVuSans-6e" x="1732.515625"/>
     <use xlink:href="#DejaVuSans-67" x="1795.894531"/>
     <use xlink:href="#DejaVuSans-65" x="1859.371094"/>
     <use xlink:href="#DejaVuSans-73" x="1920.894531"/>
     <use xlink:href="#DejaVuSans-2e" x="1972.994141"/>
    </g>
   </g>
   <g id="text_20">
    <!-- trend=flat; volatility=low; seasonality={'period': None, 'strength': 'none'} -->
    <g style="fill: #556070" transform="translate(40.603125 448.416) scale(0.09 -0.09)">
     <defs>
      <path id="DejaVuSans-3d" d="M 678 2906 
L 4684 2906 
L 4684 2381 
L 678 2381 
L 678 2906 
z
M 678 1631 
L 4684 1631 
L 4684 1100 
L 678 1100 
L 678 1631 
z
" transform="scale(0.015625)"/>
      <path id="DejaVuSans-3b" d="M 750 3309 
L 1409 3309 
L 1409 2516 
L 750 2516 
L 750 3309 
z
M 750 794 
L 1409 794 
L 1409 256 
L 897 -744 
L 494 -744 
L 750 256 
L 750 794 
z
" transform="scale(0.015625)"/>
      <path id="DejaVuSans-7b" d="M 3272 -594 
L 3272 -1044 
L 3078 -1044 
Q 2300 -1044 2036 -812 
Q 1772 -581 1772 109 
L 1772 856 
Q 1772 1328 1603 1509 
Q 1434 1691 991 1691 
L 800 1691 
L 800 2138 
L 991 2138 
Q 1438 2138 1605 2317 
Q 1772 2497 1772 2963 
L 1772 3713 
Q 1772 4403 2036 4633 
Q 2300 4863 3078 4863 
L 3272 4863 
L 3272 4416 
L 3059 4416 
Q 2619 4416 2484 4278 
Q 2350 4141 2350 3700 
L 2350 2925 
Q 2350 2434 2208 2212 
Q 2066 1991 1722 1913 
Q 2069 1828 2209 1606 
Q 2350 1384 2350 897 
L 2350 122 
Q 2350 -319 2484 -456 
Q 2619 -594 3059 -594 
L 3272 -594 
z
" transform="scale(0.015625)"/>
      <path id="DejaVuSans-27" d="M 1147 4666 
L 1147 2931 
L 616 2931 
L 616 4666 
L 1147 4666 
z
" transform="scale(0.015625)"/>
      <path id="DejaVuSans-3a" d="M 750 794 
L 1409 794 
L 1409 0 
L 750 0 
L 750 794 
z
M 750 3309 
L 1409 3309 
L 1409 2516 
L 750 2516 
L 750 3309 
z
" transform="scale(0.015625)"/>
      <path id="DejaVuSans-4e" d="M 628 4666 
L 1478 4666 
L 3547 763 
L 3547 4666 
L 4159 4666 
L 4159 0 
L 3309 0 
L 1241 3903 
L 1241 0 
L 628 0 
L 628 4666 
z
" transform="scale(0.015625)"/>
      <path id="DejaVuSans-7d" d="M 800 -594 
L 1019 -594 
Q 1456 -594 1589 -459 
Q 1722 -325 1722 122 
L 1722 897 
Q 1722 1384 1862 1606 
Q 2003 1828 2350 1913 
Q 2003 1991 1862 2212 
Q 1722 2434 1722 2925 
L 1722 3700 
Q 1722 4144 1589 4280 
Q 1456 4416 1019 4416 
L 800 4416 
L 800 4863 
L 997 4863 
Q 1775 4863 2036 4633 
Q 2297 4403 2297 3713 
L 2297 2963 
Q 2297 2497 2465 2317 
Q 2634 2138 3078 2138 
L 3272 2138 
L 3272 1691 
L 3078 1691 
Q 2634 1691 2465 1509 
Q 2297 1328 2297 856 
L 2297 109 
Q 2297 -581 2036 -812 
Q 1775 -1044 997 -1044 
L 800 -1044 
L 800 -594 
z
" transform="scale(0.015625)"/>
     </defs>
     <use xlink:href="#DejaVuSans-74"/>
     <use xlink:href="#DejaVuSans-72" x="39.208984"/>
     <use xlink:href="#DejaVuSans-65" x="78.072266"/>
     <use xlink:href="#DejaVuSans-6e" x="139.595703"/>
     <use xlink:href="#DejaVuSans-64" x="202.974609"/>
     <use xlink:href="#DejaVuSans-3d" x="266.451172"/>
     <use xlink:href="#DejaVuSans-66" x="350.240234"/>
     <use xlink:href="#DejaVuSans-6c" x="385.445312"/>
     <use xlink:href="#DejaVuSans-61" x="413.228516"/>
     <use xlink:href="#DejaVuSans-74" x="474.507812"/>
     <use xlink:href="#DejaVuSans-3b" x="513.716797"/>
     <use xlink:href="#DejaVuSans-20" x="547.408203"/>
     <use xlink:href="#DejaVuSans-76" x="579.195312"/>
     <use xlink:href="#DejaVuSans-6f" x="638.375"/>
     <use xlink:href="#DejaVuSans-6c" x="699.556641"/>
     <use xlink:href="#DejaVuSans-61" x="727.339844"/>
     <use xlink:href="#DejaVuSans-74" x="788.619141"/>
     <use xlink:href="#DejaVuSans-69" x="827.828125"/>
     <use xlink:href="#DejaVuSans-6c" x="855.611328"/>
     <use xlink:href="#DejaVuSans-69" x="883.394531"/>
     <use xlink:href="#DejaVuSans-74" x="911.177734"/>
     <use xlink:href="#DejaVuSans-79" x="950.386719"/>
     <use xlink:href="#DejaVuSans-3d" x="1009.566406"/>
     <use xlink:href="#DejaVuSans-6c" x="1093.355469"/>
     <use xlink:href="#DejaVuSans-6f" x="1121.138672"/>
     <use xlink:href="#DejaVuSans-77" x="1182.320312"/>
     <use xlink:href="#DejaVuSans-3b" x="1264.107422"/>
     <use xlink:href="#DejaVuSans-20" x="1297.798828"/>
     <use xlink:href="#DejaVuSans-73" x="1329.585938"/>
     <use xlink:href="#DejaVuSans-65" x="1381.685547"/>
     <use xlink:href="#DejaVuSans-61" x="1443.208984"/>
     <use xlink:href="#DejaVuSans-73" x="1504.488281"/>
     <use xlink:href="#DejaVuSans-6f" x="1556.587891"/>
     <use xlink:href="#DejaVuSans-6e" x="1617.769531"/>
     <use xlink:href="#DejaVuSans-61" x="1681.148438"/>
     <use xlink:href="#DejaVuSans-6c" x="1742.427734"/>
     <use xlink:href="#DejaVuSans-69" x="1770.210938"/>
     <use xlink:href="#DejaVuSans-74" x="1797.994141"/>
     <use xlink:href="#DejaVuSans-79" x="1837.203125"/>
     <use xlink:href="#DejaVuSans-3d" x="1896.382812"/>
     <use xlink:href="#DejaVuSans-7b" x="1980.171875"/>
     <use xlink:href="#DejaVuSans-27" x="2043.794922"/>
     <use xlink:href="#DejaVuSans-70" x="2071.285156"/>
     <use xlink:href="#DejaVuSans-65" x="2134.761719"/>
     <use xlink:href="#DejaVuSans-72" x="2196.285156"/>
     <use xlink:href="#DejaVuSans-69" x="2237.398438"/>
     <use xlink:href="#DejaVuSans-6f" x="2265.181641"/>
     <use xlink:href="#DejaVuSans-64" x="2326.363281"/>
     <use xlink:href="#DejaVuSans-27" x="2389.839844"/>
     <use xlink:href="#DejaVuSans-3a" x="2417.330078"/>
     <use xlink:href="#DejaVuSans-20" x="2451.021484"/>
     <use xlink:href="#DejaVuSans-4e" x="2482.808594"/>
     <use xlink:href="#DejaVuSans-6f" x="2557.613281"/>
     <use xlink:href="#DejaVuSans-6e" x="2618.794922"/>
     <use xlink:href="#DejaVuSans-65" x="2682.173828"/>
     <use xlink:href="#DejaVuSans-2c" x="2743.697266"/>
     <use xlink:href="#DejaVuSans-20" x="2775.484375"/>
     <use xlink:href="#DejaVuSans-27" x="2807.271484"/>
     <use xlink:href="#DejaVuSans-73" x="2834.761719"/>
     <use xlink:href="#DejaVuSans-74" x="2886.861328"/>
     <use xlink:href="#DejaVuSans-72" x="2926.070312"/>
     <use xlink:href="#DejaVuSans-65" x="2964.933594"/>
     <use xlink:href="#DejaVuSans-6e" x="3026.457031"/>
     <use xlink:href="#DejaVuSans-67" x="3089.835938"/>
     <use xlink:href="#DejaVuSans-74" x="3153.3125"/>
     <use xlink:href="#DejaVuSans-68" x="3192.521484"/>
     <use xlink:href="#DejaVuSans-27" x="3255.900391"/>
     <use xlink:href="#DejaVuSans-3a" x="3283.390625"/>
     <use xlink:href="#DejaVuSans-20" x="3317.082031"/>
     <use xlink:href="#DejaVuSans-27" x="3348.869141"/>
     <use xlink:href="#DejaVuSans-6e" x="3376.359375"/>
     <use xlink:href="#DejaVuSans-6f" x="3439.738281"/>
     <use xlink:href="#DejaVuSans-6e" x="3500.919922"/>
     <use xlink:href="#DejaVuSans-65" x="3564.298828"/>
     <use xlink:href="#DejaVuSans-27" x="3625.822266"/>
     <use xlink:href="#DejaVuSans-7d" x="3653.3125"/>
    </g>
   </g>
  </g>
  <g id="text_21">
   <!-- Forecasting Sample -->
   <g transform="translate(40.603125 20.877187) scale(0.18 -0.18)">
    <defs>
     <path id="DejaVuSans-Bold-46" d="M 588 4666 
L 3834 4666 
L 3834 3756 
L 1791 3756 
L 1791 2888 
L 3713 2888 
L 3713 1978 
L 1791 1978 
L 1791 0 
L 588 0 
L 588 4666 
z
" transform="scale(0.015625)"/>
     <path id="DejaVuSans-Bold-63" d="M 3366 3391 
L 3366 2478 
Q 3138 2634 2908 2709 
Q 2678 2784 2431 2784 
Q 1963 2784 1702 2511 
Q 1441 2238 1441 1747 
Q 1441 1256 1702 982 
Q 1963 709 2431 709 
Q 2694 709 2930 787 
Q 3166 866 3366 1019 
L 3366 103 
Q 3103 6 2833 -42 
Q 2563 -91 2291 -91 
Q 1344 -91 809 395 
Q 275 881 275 1747 
Q 275 2613 809 3098 
Q 1344 3584 2291 3584 
Q 2566 3584 2833 3536 
Q 3100 3488 3366 3391 
z
" transform="scale(0.015625)"/>
     <path id="DejaVuSans-Bold-73" d="M 3272 3391 
L 3272 2541 
Q 2913 2691 2578 2766 
Q 2244 2841 1947 2841 
Q 1628 2841 1473 2761 
Q 1319 2681 1319 2516 
Q 1319 2381 1436 2309 
Q 1553 2238 1856 2203 
L 2053 2175 
Q 2913 2066 3209 1816 
Q 3506 1566 3506 1031 
Q 3506 472 3093 190 
Q 2681 -91 1863 -91 
Q 1516 -91 1145 -36 
Q 775 19 384 128 
L 384 978 
Q 719 816 1070 734 
Q 1422 653 1784 653 
Q 2113 653 2278 743 
Q 2444 834 2444 1013 
Q 2444 1163 2330 1236 
Q 2216 1309 1875 1350 
L 1678 1375 
Q 931 1469 631 1722 
Q 331 1975 331 2491 
Q 331 3047 712 3315 
Q 1094 3584 1881 3584 
Q 2191 3584 2531 3537 
Q 2872 3491 3272 3391 
z
" transform="scale(0.015625)"/>
     <path id="DejaVuSans-Bold-67" d="M 2919 594 
Q 2688 288 2409 144 
Q 2131 0 1766 0 
Q 1125 0 706 504 
Q 288 1009 288 1791 
Q 288 2575 706 3076 
Q 1125 3578 1766 3578 
Q 2131 3578 2409 3434 
Q 2688 3291 2919 2981 
L 2919 3500 
L 4044 3500 
L 4044 353 
Q 4044 -491 3511 -936 
Q 2978 -1381 1966 -1381 
Q 1638 -1381 1331 -1331 
Q 1025 -1281 716 -1178 
L 716 -306 
Q 1009 -475 1290 -558 
Q 1572 -641 1856 -641 
Q 2406 -641 2662 -400 
Q 2919 -159 2919 353 
L 2919 594 
z
M 2181 2772 
Q 1834 2772 1640 2515 
Q 1447 2259 1447 1791 
Q 1447 1309 1634 1061 
Q 1822 813 2181 813 
Q 2531 813 2725 1069 
Q 2919 1325 2919 1791 
Q 2919 2259 2725 2515 
Q 2531 2772 2181 2772 
z
" transform="scale(0.015625)"/>
     <path id="DejaVuSans-Bold-53" d="M 3834 4519 
L 3834 3531 
Q 3450 3703 3084 3790 
Q 2719 3878 2394 3878 
Q 1963 3878 1756 3759 
Q 1550 3641 1550 3391 
Q 1550 3203 1689 3098 
Q 1828 2994 2194 2919 
L 2706 2816 
Q 3484 2659 3812 2340 
Q 4141 2022 4141 1434 
Q 4141 663 3683 286 
Q 3225 -91 2284 -91 
Q 1841 -91 1394 -6 
Q 947 78 500 244 
L 500 1259 
Q 947 1022 1364 901 
Q 1781 781 2169 781 
Q 2563 781 2772 912 
Q 2981 1044 2981 1288 
Q 2981 1506 2839 1625 
Q 2697 1744 2272 1838 
L 1806 1941 
Q 1106 2091 782 2419 
Q 459 2747 459 3303 
Q 459 4000 909 4375 
Q 1359 4750 2203 4750 
Q 2588 4750 2994 4692 
Q 3400 4634 3834 4519 
z
" transform="scale(0.015625)"/>
     <path id="DejaVuSans-Bold-6d" d="M 3781 2919 
Q 3994 3244 4286 3414 
Q 4578 3584 4928 3584 
Q 5531 3584 5847 3212 
Q 6163 2841 6163 2131 
L 6163 0 
L 5038 0 
L 5038 1825 
Q 5041 1866 5042 1909 
Q 5044 1953 5044 2034 
Q 5044 2406 4934 2573 
Q 4825 2741 4581 2741 
Q 4263 2741 4089 2478 
Q 3916 2216 3909 1719 
L 3909 0 
L 2784 0 
L 2784 1825 
Q 2784 2406 2684 2573 
Q 2584 2741 2328 2741 
Q 2006 2741 1831 2477 
Q 1656 2213 1656 1722 
L 1656 0 
L 531 0 
L 531 3500 
L 1656 3500 
L 1656 2988 
Q 1863 3284 2130 3434 
Q 2397 3584 2719 3584 
Q 3081 3584 3359 3409 
Q 3638 3234 3781 2919 
z
" transform="scale(0.015625)"/>
     <path id="DejaVuSans-Bold-6c" d="M 538 4863 
L 1656 4863 
L 1656 0 
L 538 0 
L 538 4863 
z
" transform="scale(0.015625)"/>
    </defs>
    <use xlink:href="#DejaVuSans-Bold-46"/>
    <use xlink:href="#DejaVuSans-Bold-6f" x="64.310547"/>
    <use xlink:href="#DejaVuSans-Bold-72" x="133.011719"/>
    <use xlink:href="#DejaVuSans-Bold-65" x="182.328125"/>
    <use xlink:href="#DejaVuSans-Bold-63" x="250.150391"/>
    <use xlink:href="#DejaVuSans-Bold-61" x="309.427734"/>
    <use xlink:href="#DejaVuSans-Bold-73" x="376.908203"/>
    <use xlink:href="#DejaVuSans-Bold-74" x="436.429688"/>
    <use xlink:href="#DejaVuSans-Bold-69" x="484.232422"/>
    <use xlink:href="#DejaVuSans-Bold-6e" x="518.509766"/>
    <use xlink:href="#DejaVuSans-Bold-67" x="589.701172"/>
    <use xlink:href="#DejaVuSans-Bold-20" x="661.283203"/>
    <use xlink:href="#DejaVuSans-Bold-53" x="696.097656"/>
    <use xlink:href="#DejaVuSans-Bold-61" x="768.119141"/>
    <use xlink:href="#DejaVuSans-Bold-6d" x="835.599609"/>
    <use xlink:href="#DejaVuSans-Bold-70" x="939.798828"/>
    <use xlink:href="#DejaVuSans-Bold-6c" x="1011.380859"/>
    <use xlink:href="#DejaVuSans-Bold-65" x="1045.658203"/>
   </g>
  </g>
  <g id="text_22">
   <!-- Representative ETT captioning sample generated by the current local Qwen pipeline. -->
   <g style="fill: #4b5563" transform="translate(40.603125 33.12) scale(0.11 -0.11)">
    <defs>
     <path id="DejaVuSans-52" d="M 2841 2188 
Q 3044 2119 3236 1894 
Q 3428 1669 3622 1275 
L 4263 0 
L 3584 0 
L 2988 1197 
Q 2756 1666 2539 1819 
Q 2322 1972 1947 1972 
L 1259 1972 
L 1259 0 
L 628 0 
L 628 4666 
L 2053 4666 
Q 2853 4666 3247 4331 
Q 3641 3997 3641 3322 
Q 3641 2881 3436 2590 
Q 3231 2300 2841 2188 
z
M 1259 4147 
L 1259 2491 
L 2053 2491 
Q 2509 2491 2742 2702 
Q 2975 2913 2975 3322 
Q 2975 3731 2742 3939 
Q 2509 4147 2053 4147 
L 1259 4147 
z
" transform="scale(0.015625)"/>
     <path id="DejaVuSans-45" d="M 628 4666 
L 3578 4666 
L 3578 4134 
L 1259 4134 
L 1259 2753 
L 3481 2753 
L 3481 2222 
L 1259 2222 
L 1259 531 
L 3634 531 
L 3634 0 
L 628 0 
L 628 4666 
z
" transform="scale(0.015625)"/>
     <path id="DejaVuSans-51" d="M 2522 4238 
Q 1834 4238 1429 3725 
Q 1025 3213 1025 2328 
Q 1025 1447 1429 934 
Q 1834 422 2522 422 
Q 3209 422 3611 934 
Q 4013 1447 4013 2328 
Q 4013 3213 3611 3725 
Q 3209 4238 2522 4238 
z
M 3406 84 
L 4238 -825 
L 3475 -825 
L 2784 -78 
Q 2681 -84 2626 -87 
Q 2572 -91 2522 -91 
Q 1538 -91 948 567 
Q 359 1225 359 2328 
Q 359 3434 948 4092 
Q 1538 4750 2522 4750 
Q 3503 4750 4090 4092 
Q 4678 3434 4678 2328 
Q 4678 1516 4351 937 
Q 4025 359 3406 84 
z
" transform="scale(0.015625)"/>
    </defs>
    <use xlink:href="#DejaVuSans-52"/>
    <use xlink:href="#DejaVuSans-65" x="64.982422"/>
    <use xlink:href="#DejaVuSans-70" x="126.505859"/>
    <use xlink:href="#DejaVuSans-72" x="189.982422"/>
    <use xlink:href="#DejaVuSans-65" x="228.845703"/>
    <use xlink:href="#DejaVuSans-73" x="290.369141"/>
    <use xlink:href="#DejaVuSans-65" x="342.46875"/>
    <use xlink:href="#DejaVuSans-6e" x="403.992188"/>
    <use xlink:href="#DejaVuSans-74" x="467.371094"/>
    <use xlink:href="#DejaVuSans-61" x="506.580078"/>
    <use xlink:href="#DejaVuSans-74" x="567.859375"/>
    <use xlink:href="#DejaVuSans-69" x="607.068359"/>
    <use xlink:href="#DejaVuSans-76" x="634.851562"/>
    <use xlink:href="#DejaVuSans-65" x="694.03125"/>
    <use xlink:href="#DejaVuSans-20" x="755.554688"/>
    <use xlink:href="#DejaVuSans-45" x="787.341797"/>
    <use xlink:href="#DejaVuSans-54" x="850.525391"/>
    <use xlink:href="#DejaVuSans-54" x="909.859375"/>
    <use xlink:href="#DejaVuSans-20" x="970.943359"/>
    <use xlink:href="#DejaVuSans-63" x="1002.730469"/>
    <use xlink:href="#DejaVuSans-61" x="1057.710938"/>
    <use xlink:href="#DejaVuSans-70" x="1118.990234"/>
    <use xlink:href="#DejaVuSans-74" x="1182.466797"/>
    <use xlink:href="#DejaVuSans-69" x="1221.675781"/>
    <use xlink:href="#DejaVuSans-6f" x="1249.458984"/>
    <use xlink:href="#DejaVuSans-6e" x="1310.640625"/>
    <use xlink:href="#DejaVuSans-69" x="1374.019531"/>
    <use xlink:href="#DejaVuSans-6e" x="1401.802734"/>
    <use xlink:href="#DejaVuSans-67" x="1465.181641"/>
    <use xlink:href="#DejaVuSans-20" x="1528.658203"/>
    <use xlink:href="#DejaVuSans-73" x="1560.445312"/>
    <use xlink:href="#DejaVuSans-61" x="1612.544922"/>
    <use xlink:href="#DejaVuSans-6d" x="1673.824219"/>
    <use xlink:href="#DejaVuSans-70" x="1771.236328"/>
    <use xlink:href="#DejaVuSans-6c" x="1834.712891"/>
    <use xlink:href="#DejaVuSans-65" x="1862.496094"/>
    <use xlink:href="#DejaVuSans-20" x="1924.019531"/>
    <use xlink:href="#DejaVuSans-67" x="1955.806641"/>
    <use xlink:href="#DejaVuSans-65" x="2019.283203"/>
    <use xlink:href="#DejaVuSans-6e" x="2080.806641"/>
    <use xlink:href="#DejaVuSans-65" x="2144.185547"/>
    <use xlink:href="#DejaVuSans-72" x="2205.708984"/>
    <use xlink:href="#DejaVuSans-61" x="2246.822266"/>
    <use xlink:href="#DejaVuSans-74" x="2308.101562"/>
    <use xlink:href="#DejaVuSans-65" x="2347.310547"/>
    <use xlink:href="#DejaVuSans-64" x="2408.833984"/>
    <use xlink:href="#DejaVuSans-20" x="2472.310547"/>
    <use xlink:href="#DejaVuSans-62" x="2504.097656"/>
    <use xlink:href="#DejaVuSans-79" x="2567.574219"/>
    <use xlink:href="#DejaVuSans-20" x="2626.753906"/>
    <use xlink:href="#DejaVuSans-74" x="2658.541016"/>
    <use xlink:href="#DejaVuSans-68" x="2697.75"/>
    <use xlink:href="#DejaVuSans-65" x="2761.128906"/>
    <use xlink:href="#DejaVuSans-20" x="2822.652344"/>
    <use xlink:href="#DejaVuSans-63" x="2854.439453"/>
    <use xlink:href="#DejaVuSans-75" x="2909.419922"/>
    <use xlink:href="#DejaVuSans-72" x="2972.798828"/>
    <use xlink:href="#DejaVuSans-72" x="3012.162109"/>
    <use xlink:href="#DejaVuSans-65" x="3051.025391"/>
    <use xlink:href="#DejaVuSans-6e" x="3112.548828"/>
    <use xlink:href="#DejaVuSans-74" x="3175.927734"/>
    <use xlink:href="#DejaVuSans-20" x="3215.136719"/>
    <use xlink:href="#DejaVuSans-6c" x="3246.923828"/>
    <use xlink:href="#DejaVuSans-6f" x="3274.707031"/>
    <use xlink:href="#DejaVuSans-63" x="3335.888672"/>
    <use xlink:href="#DejaVuSans-61" x="3390.869141"/>
    <use xlink:href="#DejaVuSans-6c" x="3452.148438"/>
    <use xlink:href="#DejaVuSans-20" x="3479.931641"/>
    <use xlink:href="#DejaVuSans-51" x="3511.71875"/>
    <use xlink:href="#DejaVuSans-77" x="3590.429688"/>
    <use xlink:href="#DejaVuSans-65" x="3672.216797"/>
    <use xlink:href="#DejaVuSans-6e" x="3733.740234"/>
    <use xlink:href="#DejaVuSans-20" x="3797.119141"/>
    <use xlink:href="#DejaVuSans-70" x="3828.90625"/>
    <use xlink:href="#DejaVuSans-69" x="3892.382812"/>
    <use xlink:href="#DejaVuSans-70" x="3920.166016"/>
    <use xlink:href="#DejaVuSans-65" x="3983.642578"/>
    <use xlink:href="#DejaVuSans-6c" x="4045.166016"/>
    <use xlink:href="#DejaVuSans-69" x="4072.949219"/>
    <use xlink:href="#DejaVuSans-6e" x="4100.732422"/>
    <use xlink:href="#DejaVuSans-65" x="4164.111328"/>
    <use xlink:href="#DejaVuSans-2e" x="4225.634766"/>
   </g>
  </g>
 </g>
 <defs>
  <clipPath id="p5539c1c79a">
   <rect x="40.603125" y="64.224" width="907.2" height="247.68"/>
  </clipPath>
 </defs>
</svg>
