<?xml version="1.0" encoding="utf-8" standalone="no"?>
<!DOCTYPE svg PUBLIC "-//W3C//DTD SVG 1.1//EN"
  "http://www.w3.org/Graphics/SVG/1.1/DTD/svg11.dtd">
<svg xmlns:xlink="http://www.w3.org/1999/xlink" width="966.560937pt" height="465.408pt" viewBox="0 0 966.560937 465.408" xmlns="http://www.w3.org/2000/svg" version="1.1">
 <metadata>
  <rdf:RDF xmlns:dc="http://purl.org/dc/elements/1.1/" xmlns:cc="http://creativecommons.org/ns#" xmlns:rdf="http://www.w3.org/1999/02/22-rdf-syntax-ns#">
   <cc:Work>
    <dc:type rdf:resource="http://purl.org/dc/dcmitype/StillImage"/>
    <dc:date>2026-04-06T22:53:25.278013</dc:date>
    <dc:format>image/svg+xml</dc:format>
    <dc:creator>
     <cc:Agent>
      <dc:title>Matplotlib v3.8.0, https://matplotlib.org/</dc:title>
     </cc:Agent>
    </dc:creator>
   </cc:Work>
  </rdf:RDF>
 </metadata>
 <defs>
  <style type="text/css">*{stroke-linejoin: round; stroke-linecap: butt}</style>
 </defs>
 <g id="figure_1">
  <g id="patch_1">
   <path d="M 0 465.408 
L 966.560937 465.408 
L 966.560937 0 
L 0 0 
z
" style="fill: #ffffff"/>
  </g>
  <g id="axes_1">
   <g id="patch_2">
    <path d="M 52.160938 311.904 
L 959.360938 311.904 
L 959.360938 64.224 
L 52.160938 64.224 
z
" style="fill: #ffffff"/>
   </g>
   <g id="patch_3">
    <path d="M 102.822756 311.904 
L 102.822756 64.224 
L 314.895483 64.224 
L 314.895483 311.904 
z
" clip-path="url(#pf9e49fe6a8)" style="fill: #dceaf7; opacity: 0.35; stroke: #dceaf7; stroke-linejoin: miter"/>
   </g>
   <g id="patch_4">
    <path d="M 314.895483 311.904 
L 314.895483 64.224 
L 512.830028 64.224 
L 512.830028 311.904 
z
" clip-path="url(#pf9e49fe6a8)" style="fill: #e7f3df; opacity: 0.35; stroke: #e7f3df; stroke-linejoin: miter"/>
   </g>
   <g id="patch_5">
    <path d="M 512.830028 311.904 
L 512.830028 64.224 
L 729.615483 64.224 
L 729.615483 311.904 
z
" clip-path="url(#pf9e49fe6a8)" style="fill: #f8e7d8; opacity: 0.35; stroke: #f8e7d8; stroke-linejoin: miter"/>
   </g>
   <g id="matplotlib.axis_1">
    <g id="xtick_1">
     <g id="line2d_1">
      <path d="M 93.397301 311.904 
L 93.397301 64.224 
" clip-path="url(#pf9e49fe6a8)" style="fill: none; stroke: #b0b0b0; stroke-opacity: 0.18; stroke-width: 0.8; stroke-linecap: square"/>
     </g>
     <g id="line2d_2">
      <defs>
       <path id="m5b69b2651e" d="M 0 0 
L 0 3.5 
" style="stroke: #000000; stroke-width: 0.8"/>
      </defs>
      <g>
       <use xlink:href="#m5b69b2651e" x="93.397301" y="311.904" style="stroke: #000000; stroke-width: 0.8"/>
      </g>
     </g>
     <g id="text_1">
      <!-- 0 -->
      <g transform="translate(90.216051 326.502437) scale(0.1 -0.1)">
       <defs>
        <path id="DejaVuSans-30" d="M 2034 4250 
Q 1547 4250 1301 3770 
Q 1056 3291 1056 2328 
Q 1056 1369 1301 889 
Q 1547 409 2034 409 
Q 2525 409 2770 889 
Q 3016 1369 3016 2328 
Q 3016 3291 2770 3770 
Q 2525 4250 2034 4250 
z
M 2034 4750 
Q 2819 4750 3233 4129 
Q 3647 3509 3647 2328 
Q 3647 1150 3233 529 
Q 2819 -91 2034 -91 
Q 1250 -91 836 529 
Q 422 1150 422 2328 
Q 422 3509 836 4129 
Q 1250 4750 2034 4750 
z
" transform="scale(0.015625)"/>
       </defs>
       <use xlink:href="#DejaVuSans-30"/>
      </g>
     </g>
    </g>
    <g id="xtick_2">
     <g id="line2d_3">
      <path d="M 211.215483 311.904 
L 211.215483 64.224 
" clip-path="url(#pf9e49fe6a8)" style="fill: none; stroke: #b0b0b0; stroke-opacity: 0.18; stroke-width: 0.8; stroke-linecap: square"/>
     </g>
     <g id="line2d_4">
      <g>
       <use xlink:href="#m5b69b2651e" x="211.215483" y="311.904" style="stroke: #000000; stroke-width: 0.8"/>
      </g>
     </g>
     <g id="text_2">
      <!-- 25 -->
      <g transform="translate(204.852983 326.502437) scale(0.1 -0.1)">
       <defs>
        <path id="DejaVuSans-32" d="M 1228 531 
L 3431 531 
L 3431 0 
L 469 0 
L 469 531 
Q 828 903 1448 1529 
Q 2069 2156 2228 2338 
Q 2531 2678 2651 2914 
Q 2772 3150 2772 3378 
Q 2772 3750 2511 3984 
Q 2250 4219 1831 4219 
Q 1534 4219 1204 4116 
Q 875 4013 500 3803 
L 500 4441 
Q 881 4594 1212 4672 
Q 1544 4750 1819 4750 
Q 2544 4750 2975 4387 
Q 3406 4025 3406 3419 
Q 3406 3131 3298 2873 
Q 3191 2616 2906 2266 
Q 2828 2175 2409 1742 
Q 1991 1309 1228 531 
z
" transform="scale(0.015625)"/>
        <path id="DejaVuSans-35" d="M 691 4666 
L 3169 4666 
L 3169 4134 
L 1269 4134 
L 1269 2991 
Q 1406 3038 1543 3061 
Q 1681 3084 1819 3084 
Q 2600 3084 3056 2656 
Q 3513 2228 3513 1497 
Q 3513 744 3044 326 
Q 2575 -91 1722 -91 
Q 1428 -91 1123 -41 
Q 819 9 494 109 
L 494 744 
Q 775 591 1075 516 
Q 1375 441 1709 441 
Q 2250 441 2565 725 
Q 2881 1009 2881 1497 
Q 2881 1984 2565 2268 
Q 2250 2553 1709 2553 
Q 1456 2553 1204 2497 
Q 953 2441 691 2322 
L 691 4666 
z
" transform="scale(0.015625)"/>
       </defs>
       <use xlink:href="#DejaVuSans-32"/>
       <use xlink:href="#DejaVuSans-35" x="63.623047"/>
      </g>
     </g>
    </g>
    <g id="xtick_3">
     <g id="line2d_5">
      <path d="M 329.033665 311.904 
L 329.033665 64.224 
" clip-path="url(#pf9e49fe6a8)" style="fill: none; stroke: #b0b0b0; stroke-opacity: 0.18; stroke-width: 0.8; stroke-linecap: square"/>
     </g>
     <g id="line2d_6">
      <g>
       <use xlink:href="#m5b69b2651e" x="329.033665" y="311.904" style="stroke: #000000; stroke-width: 0.8"/>
      </g>
     </g>
     <g id="text_3">
      <!-- 50 -->
      <g transform="translate(322.671165 326.502437) scale(0.1 -0.1)">
       <use xlink:href="#DejaVuSans-35"/>
       <use xlink:href="#DejaVuSans-30" x="63.623047"/>
      </g>
     </g>
    </g>
    <g id="xtick_4">
     <g id="line2d_7">
      <path d="M 446.851847 311.904 
L 446.851847 64.224 
" clip-path="url(#pf9e49fe6a8)" style="fill: none; stroke: #b0b0b0; stroke-opacity: 0.18; stroke-width: 0.8; stroke-linecap: square"/>
     </g>
     <g id="line2d_8">
      <g>
       <use xlink:href="#m5b69b2651e" x="446.851847" y="311.904" style="stroke: #000000; stroke-width: 0.8"/>
      </g>
     </g>
     <g id="text_4">
      <!-- 75 -->
      <g transform="translate(440.489347 326.502437) scale(0.1 -0.1)">
       <defs>
        <path id="DejaVuSans-37" d="M 525 4666 
L 3525 4666 
L 3525 4397 
L 1831 0 
L 1172 0 
L 2766 4134 
L 525 4134 
L 525 4666 
z
" transform="scale(0.015625)"/>
       </defs>
       <use xlink:href="#DejaVuSans-37"/>
       <use xlink:href="#DejaVuSans-35" x="63.623047"/>
      </g>
     </g>
    </g>
    <g id="xtick_5">
     <g id="line2d_9">
      <path d="M 564.670028 311.904 
L 564.670028 64.224 
" clip-path="url(#pf9e49fe6a8)" style="fill: none; stroke: #b0b0b0; stroke-opacity: 0.18; stroke-width: 0.8; stroke-linecap: square"/>
     </g>
     <g id="line2d_10">
      <g>
       <use xlink:href="#m5b69b2651e" x="564.670028" y="311.904" style="stroke: #000000; stroke-width: 0.8"/>
      </g>
     </g>
     <g id="text_5">
      <!-- 100 -->
      <g transform="translate(555.126278 326.502437) scale(0.1 -0.1)">
       <defs>
        <path id="DejaVuSans-31" d="M 794 531 
L 1825 531 
L 1825 4091 
L 703 3866 
L 703 4441 
L 1819 4666 
L 2450 4666 
L 2450 531 
L 3481 531 
L 3481 0 
L 794 0 
L 794 531 
z
" transform="scale(0.015625)"/>
       </defs>
       <use xlink:href="#DejaVuSans-31"/>
       <use xlink:href="#DejaVuSans-30" x="63.623047"/>
       <use xlink:href="#DejaVuSans-30" x="127.246094"/>
      </g>
     </g>
    </g>
    <g id="xtick_6">
     <g id="line2d_11">
      <path d="M 682.48821 311.904 
L 682.48821 64.224 
" clip-path="url(#pf9e49fe6a8)" style="fill: none; stroke: #b0b0b0; stroke-opacity: 0.18; stroke-width: 0.8; stroke-linecap: square"/>
     </g>
     <g id="line2d_12">
      <g>
       <use xlink:href="#m5b69b2651e" x="682.48821" y="311.904" style="stroke: #000000; stroke-width: 0.8"/>
      </g>
     </g>
     <g id="text_6">
      <!-- 125 -->
      <g transform="translate(672.94446 326.502437) scale(0.1 -0.1)">
       <use xlink:href="#DejaVuSans-31"/>
       <use xlink:href="#DejaVuSans-32" x="63.623047"/>
       <use xlink:href="#DejaVuSans-35" x="127.246094"/>
      </g>
     </g>
    </g>
    <g id="xtick_7">
     <g id="line2d_13">
      <path d="M 800.306392 311.904 
L 800.306392 64.224 
" clip-path="url(#pf9e49fe6a8)" style="fill: none; stroke: #b0b0b0; stroke-opacity: 0.18; stroke-width: 0.8; stroke-linecap: square"/>
     </g>
     <g id="line2d_14">
      <g>
       <use xlink:href="#m5b69b2651e" x="800.306392" y="311.904" style="stroke: #000000; stroke-width: 0.8"/>
      </g>
     </g>
     <g id="text_7">
      <!-- 150 -->
      <g transform="translate(790.762642 326.502437) scale(0.1 -0.1)">
       <use xlink:href="#DejaVuSans-31"/>
       <use xlink:href="#DejaVuSans-35" x="63.623047"/>
       <use xlink:href="#DejaVuSans-30" x="127.246094"/>
      </g>
     </g>
    </g>
    <g id="xtick_8">
     <g id="line2d_15">
      <path d="M 918.124574 311.904 
L 918.124574 64.224 
" clip-path="url(#pf9e49fe6a8)" style="fill: none; stroke: #b0b0b0; stroke-opacity: 0.18; stroke-width: 0.8; stroke-linecap: square"/>
     </g>
     <g id="line2d_16">
      <g>
       <use xlink:href="#m5b69b2651e" x="918.124574" y="311.904" style="stroke: #000000; stroke-width: 0.8"/>
      </g>
     </g>
     <g id="text_8">
      <!-- 175 -->
      <g transform="translate(908.580824 326.502437) scale(0.1 -0.1)">
       <use xlink:href="#DejaVuSans-31"/>
       <use xlink:href="#DejaVuSans-37" x="63.623047"/>
       <use xlink:href="#DejaVuSans-35" x="127.246094"/>
      </g>
     </g>
    </g>
    <g id="text_9">
     <!-- Step Index -->
     <g transform="translate(479.020312 340.180562) scale(0.1 -0.1)">
      <defs>
       <path id="DejaVuSans-53" d="M 3425 4513 
L 3425 3897 
Q 3066 4069 2747 4153 
Q 2428 4238 2131 4238 
Q 1616 4238 1336 4038 
Q 1056 3838 1056 3469 
Q 1056 3159 1242 3001 
Q 1428 2844 1947 2747 
L 2328 2669 
Q 3034 2534 3370 2195 
Q 3706 1856 3706 1288 
Q 3706 609 3251 259 
Q 2797 -91 1919 -91 
Q 1588 -91 1214 -16 
Q 841 59 441 206 
L 441 856 
Q 825 641 1194 531 
Q 1563 422 1919 422 
Q 2459 422 2753 634 
Q 3047 847 3047 1241 
Q 3047 1584 2836 1778 
Q 2625 1972 2144 2069 
L 1759 2144 
Q 1053 2284 737 2584 
Q 422 2884 422 3419 
Q 422 4038 858 4394 
Q 1294 4750 2059 4750 
Q 2388 4750 2728 4690 
Q 3069 4631 3425 4513 
z
" transform="scale(0.015625)"/>
       <path id="DejaVuSans-74" d="M 1172 4494 
L 1172 3500 
L 2356 3500 
L 2356 3053 
L 1172 3053 
L 1172 1153 
Q 1172 725 1289 603 
Q 1406 481 1766 481 
L 2356 481 
L 2356 0 
L 1766 0 
Q 1100 0 847 248 
Q 594 497 594 1153 
L 594 3053 
L 172 3053 
L 172 3500 
L 594 3500 
L 594 4494 
L 1172 4494 
z
" transform="scale(0.015625)"/>
       <path id="DejaVuSans-65" d="M 3597 1894 
L 3597 1613 
L 953 1613 
Q 991 1019 1311 708 
Q 1631 397 2203 397 
Q 2534 397 2845 478 
Q 3156 559 3463 722 
L 3463 178 
Q 3153 47 2828 -22 
Q 2503 -91 2169 -91 
Q 1331 -91 842 396 
Q 353 884 353 1716 
Q 353 2575 817 3079 
Q 1281 3584 2069 3584 
Q 2775 3584 3186 3129 
Q 3597 2675 3597 1894 
z
M 3022 2063 
Q 3016 2534 2758 2815 
Q 2500 3097 2075 3097 
Q 1594 3097 1305 2825 
Q 1016 2553 972 2059 
L 3022 2063 
z
" transform="scale(0.015625)"/>
       <path id="DejaVuSans-70" d="M 1159 525 
L 1159 -1331 
L 581 -1331 
L 581 3500 
L 1159 3500 
L 1159 2969 
Q 1341 3281 1617 3432 
Q 1894 3584 2278 3584 
Q 2916 3584 3314 3078 
Q 3713 2572 3713 1747 
Q 3713 922 3314 415 
Q 2916 -91 2278 -91 
Q 1894 -91 1617 61 
Q 1341 213 1159 525 
z
M 3116 1747 
Q 3116 2381 2855 2742 
Q 2594 3103 2138 3103 
Q 1681 3103 1420 2742 
Q 1159 2381 1159 1747 
Q 1159 1113 1420 752 
Q 1681 391 2138 391 
Q 2594 391 2855 752 
Q 3116 1113 3116 1747 
z
" transform="scale(0.015625)"/>
       <path id="DejaVuSans-20" transform="scale(0.015625)"/>
       <path id="DejaVuSans-49" d="M 628 4666 
L 1259 4666 
L 1259 0 
L 628 0 
L 628 4666 
z
" transform="scale(0.015625)"/>
       <path id="DejaVuSans-6e" d="M 3513 2113 
L 3513 0 
L 2938 0 
L 2938 2094 
Q 2938 2591 2744 2837 
Q 2550 3084 2163 3084 
Q 1697 3084 1428 2787 
Q 1159 2491 1159 1978 
L 1159 0 
L 581 0 
L 581 3500 
L 1159 3500 
L 1159 2956 
Q 1366 3272 1645 3428 
Q 1925 3584 2291 3584 
Q 2894 3584 3203 3211 
Q 3513 2838 3513 2113 
z
" transform="scale(0.015625)"/>
       <path id="DejaVuSans-64" d="M 2906 2969 
L 2906 4863 
L 3481 4863 
L 3481 0 
L 2906 0 
L 2906 525 
Q 2725 213 2448 61 
Q 2172 -91 1784 -91 
Q 1150 -91 751 415 
Q 353 922 353 1747 
Q 353 2572 751 3078 
Q 1150 3584 1784 3584 
Q 2172 3584 2448 3432 
Q 2725 3281 2906 2969 
z
M 947 1747 
Q 947 1113 1208 752 
Q 1469 391 1925 391 
Q 2381 391 2643 752 
Q 2906 1113 2906 1747 
Q 2906 2381 2643 2742 
Q 2381 3103 1925 3103 
Q 1469 3103 1208 2742 
Q 947 2381 947 1747 
z
" transform="scale(0.015625)"/>
       <path id="DejaVuSans-78" d="M 3513 3500 
L 2247 1797 
L 3578 0 
L 2900 0 
L 1881 1375 
L 863 0 
L 184 0 
L 1544 1831 
L 300 3500 
L 978 3500 
L 1906 2253 
L 2834 3500 
L 3513 3500 
z
" transform="scale(0.015625)"/>
      </defs>
      <use xlink:href="#DejaVuSans-53"/>
      <use xlink:href="#DejaVuSans-74" x="63.476562"/>
      <use xlink:href="#DejaVuSans-65" x="102.685547"/>
      <use xlink:href="#DejaVuSans-70" x="164.208984"/>
      <use xlink:href="#DejaVuSans-20" x="227.685547"/>
      <use xlink:href="#DejaVuSans-49" x="259.472656"/>
      <use xlink:href="#DejaVuSans-6e" x="288.964844"/>
      <use xlink:href="#DejaVuSans-64" x="352.34375"/>
      <use xlink:href="#DejaVuSans-65" x="415.820312"/>
      <use xlink:href="#DejaVuSans-78" x="475.59375"/>
     </g>
    </g>
   </g>
   <g id="matplotlib.axis_2">
    <g id="ytick_1">
     <g id="line2d_17">
      <path d="M 52.160938 308.824024 
L 959.360938 308.824024 
" clip-path="url(#pf9e49fe6a8)" style="fill: none; stroke: #b0b0b0; stroke-opacity: 0.18; stroke-width: 0.8; stroke-linecap: square"/>
     </g>
     <g id="line2d_18">
      <defs>
       <path id="m34e55f387d" d="M 0 0 
L -3.5 0 
" style="stroke: #000000; stroke-width: 0.8"/>
      </defs>
      <g>
       <use xlink:href="#m34e55f387d" x="52.160938" y="308.824024" style="stroke: #000000; stroke-width: 0.8"/>
      </g>
     </g>
     <g id="text_10">
      <!-- −1.5 -->
      <g transform="translate(20.878125 312.623243) scale(0.1 -0.1)">
       <defs>
        <path id="DejaVuSans-2212" d="M 678 2272 
L 4684 2272 
L 4684 1741 
L 678 1741 
L 678 2272 
z
" transform="scale(0.015625)"/>
        <path id="DejaVuSans-2e" d="M 684 794 
L 1344 794 
L 1344 0 
L 684 0 
L 684 794 
z
" transform="scale(0.015625)"/>
       </defs>
       <use xlink:href="#DejaVuSans-2212"/>
       <use xlink:href="#DejaVuSans-31" x="83.789062"/>
       <use xlink:href="#DejaVuSans-2e" x="147.412109"/>
       <use xlink:href="#DejaVuSans-35" x="179.199219"/>
      </g>
     </g>
    </g>
    <g id="ytick_2">
     <g id="line2d_19">
      <path d="M 52.160938 272.335417 
L 959.360938 272.335417 
" clip-path="url(#pf9e49fe6a8)" style="fill: none; stroke: #b0b0b0; stroke-opacity: 0.18; stroke-width: 0.8; stroke-linecap: square"/>
     </g>
     <g id="line2d_20">
      <g>
       <use xlink:href="#m34e55f387d" x="52.160938" y="272.335417" style="stroke: #000000; stroke-width: 0.8"/>
      </g>
     </g>
     <g id="text_11">
      <!-- −1.0 -->
      <g transform="translate(20.878125 276.134636) scale(0.1 -0.1)">
       <use xlink:href="#DejaVuSans-2212"/>
       <use xlink:href="#DejaVuSans-31" x="83.789062"/>
       <use xlink:href="#DejaVuSans-2e" x="147.412109"/>
       <use xlink:href="#DejaVuSans-30" x="179.199219"/>
      </g>
     </g>
    </g>
    <g id="ytick_3">
     <g id="line2d_21">
      <path d="M 52.160938 235.846809 
L 959.360938 235.846809 
" clip-path="url(#pf9e49fe6a8)" style="fill: none; stroke: #b0b0b0; stroke-opacity: 0.18; stroke-width: 0.8; stroke-linecap: square"/>
     </g>
     <g id="line2d_22">
      <g>
       <use xlink:href="#m34e55f387d" x="52.160938" y="235.846809" style="stroke: #000000; stroke-width: 0.8"/>
      </g>
     </g>
     <g id="text_12">
      <!-- −0.5 -->
      <g transform="translate(20.878125 239.646028) scale(0.1 -0.1)">
       <use xlink:href="#DejaVuSans-2212"/>
       <use xlink:href="#DejaVuSans-30" x="83.789062"/>
       <use xlink:href="#DejaVuSans-2e" x="147.412109"/>
       <use xlink:href="#DejaVuSans-35" x="179.199219"/>
      </g>
     </g>
    </g>
    <g id="ytick_4">
     <g id="line2d_23">
      <path d="M 52.160938 199.358202 
L 959.360938 199.358202 
" clip-path="url(#pf9e49fe6a8)" style="fill: none; stroke: #b0b0b0; stroke-opacity: 0.18; stroke-width: 0.8; stroke-linecap: square"/>
     </g>
     <g id="line2d_24">
      <g>
       <use xlink:href="#m34e55f387d" x="52.160938" y="199.358202" style="stroke: #000000; stroke-width: 0.8"/>
      </g>
     </g>
     <g id="text_13">
      <!-- 0.0 -->
      <g transform="translate(29.257813 203.157421) scale(0.1 -0.1)">
       <use xlink:href="#DejaVuSans-30"/>
       <use xlink:href="#DejaVuSans-2e" x="63.623047"/>
       <use xlink:href="#DejaVuSans-30" x="95.410156"/>
      </g>
     </g>
    </g>
    <g id="ytick_5">
     <g id="line2d_25">
      <path d="M 52.160938 162.869594 
L 959.360938 162.869594 
" clip-path="url(#pf9e49fe6a8)" style="fill: none; stroke: #b0b0b0; stroke-opacity: 0.18; stroke-width: 0.8; stroke-linecap: square"/>
     </g>
     <g id="line2d_26">
      <g>
       <use xlink:href="#m34e55f387d" x="52.160938" y="162.869594" style="stroke: #000000; stroke-width: 0.8"/>
      </g>
     </g>
     <g id="text_14">
      <!-- 0.5 -->
      <g transform="translate(29.257813 166.668813) scale(0.1 -0.1)">
       <use xlink:href="#DejaVuSans-30"/>
       <use xlink:href="#DejaVuSans-2e" x="63.623047"/>
       <use xlink:href="#DejaVuSans-35" x="95.410156"/>
      </g>
     </g>
    </g>
    <g id="ytick_6">
     <g id="line2d_27">
      <path d="M 52.160938 126.380987 
L 959.360938 126.380987 
" clip-path="url(#pf9e49fe6a8)" style="fill: none; stroke: #b0b0b0; stroke-opacity: 0.18; stroke-width: 0.8; stroke-linecap: square"/>
     </g>
     <g id="line2d_28">
      <g>
       <use xlink:href="#m34e55f387d" x="52.160938" y="126.380987" style="stroke: #000000; stroke-width: 0.8"/>
      </g>
     </g>
     <g id="text_15">
      <!-- 1.0 -->
      <g transform="translate(29.257813 130.180206) scale(0.1 -0.1)">
       <use xlink:href="#DejaVuSans-31"/>
       <use xlink:href="#DejaVuSans-2e" x="63.623047"/>
       <use xlink:href="#DejaVuSans-30" x="95.410156"/>
      </g>
     </g>
    </g>
    <g id="ytick_7">
     <g id="line2d_29">
      <path d="M 52.160938 89.892379 
L 959.360938 89.892379 
" clip-path="url(#pf9e49fe6a8)" style="fill: none; stroke: #b0b0b0; stroke-opacity: 0.18; stroke-width: 0.8; stroke-linecap: square"/>
     </g>
     <g id="line2d_30">
      <g>
       <use xlink:href="#m34e55f387d" x="52.160938" y="89.892379" style="stroke: #000000; stroke-width: 0.8"/>
      </g>
     </g>
     <g id="text_16">
      <!-- 1.5 -->
      <g transform="translate(29.257813 93.691598) scale(0.1 -0.1)">
       <use xlink:href="#DejaVuSans-31"/>
       <use xlink:href="#DejaVuSans-2e" x="63.623047"/>
       <use xlink:href="#DejaVuSans-35" x="95.410156"/>
      </g>
     </g>
    </g>
    <g id="text_17">
     <!-- x -->
     <g transform="translate(14.798438 191.023375) rotate(-90) scale(0.1 -0.1)">
      <use xlink:href="#DejaVuSans-78"/>
     </g>
    </g>
   </g>
   <g id="line2d_31">
    <path d="M 93.397301 82.740138 
L 98.110028 82.635605 
L 102.822756 84.74534 
L 107.535483 86.208964 
L 112.24821 89.354472 
L 116.960938 94.683961 
L 126.386392 104.101518 
L 135.811847 117.867954 
L 140.524574 124.6313 
L 149.950028 138.925278 
L 154.662756 145.411811 
L 159.375483 152.430115 
L 164.08821 158.751381 
L 178.226392 179.039449 
L 187.651847 192.386544 
L 192.364574 198.581299 
L 197.077301 205.258818 
L 201.790028 211.439542 
L 206.502756 217.12754 
L 215.92821 230.45447 
L 225.353665 240.725337 
L 234.779119 252.795577 
L 239.491847 256.119899 
L 244.204574 260.876818 
L 248.917301 266.300505 
L 253.630028 271.45769 
L 258.342756 276.349988 
L 263.055483 279.397801 
L 272.480938 286.816242 
L 277.193665 290.082629 
L 281.906392 292.887975 
L 286.619119 295.150838 
L 291.331847 296.837152 
L 296.044574 297.959359 
L 300.757301 299.841989 
L 305.470028 300.645818 
L 310.182756 299.839953 
L 314.895483 298.395485 
L 319.60821 296.387036 
L 329.033665 291.141368 
L 333.746392 289.150783 
L 338.459119 285.051689 
L 343.171847 280.669371 
L 347.884574 277.590097 
L 352.597301 272.828371 
L 357.310028 268.608368 
L 366.735483 257.022609 
L 371.44821 252.230679 
L 376.160937 246.270519 
L 380.873665 242.533988 
L 385.586392 237.407946 
L 390.299119 230.784357 
L 399.724574 219.051532 
L 404.437301 212.029833 
L 413.862756 199.644293 
L 423.28821 186.574351 
L 428.000938 179.869247 
L 432.713665 172.86961 
L 437.426392 166.344717 
L 442.139119 159.285567 
L 446.851847 151.936372 
L 451.564574 144.899423 
L 489.266392 86.924929 
L 493.979119 80.836308 
L 498.691847 77.516509 
L 503.404574 76.376948 
L 508.117301 75.540651 
L 512.830028 75.482182 
L 517.542756 76.214187 
L 522.255483 79.783189 
L 526.96821 84.513747 
L 531.680938 91.45523 
L 541.106392 106.195737 
L 569.382756 149.613648 
L 574.095483 156.270097 
L 578.80821 163.398614 
L 583.520938 169.850404 
L 592.946392 183.776435 
L 597.659119 190.405575 
L 602.371847 196.614048 
L 607.084574 203.196919 
L 616.510028 215.442525 
L 621.222756 222.386766 
L 625.935483 228.156018 
L 630.64821 231.911583 
L 635.360938 238.28712 
L 644.786392 248.501551 
L 649.499119 253.18667 
L 654.211847 259.128719 
L 663.637301 268.692617 
L 668.350028 272.522457 
L 677.775483 281.471829 
L 682.48821 284.432748 
L 687.200938 287.241925 
L 691.913665 290.466715 
L 696.626392 292.314404 
L 701.339119 293.088663 
L 706.051847 292.282783 
L 710.764574 293.260809 
L 715.477301 293.635452 
L 720.190028 293.4001 
L 724.902756 292.604014 
L 729.615483 291.174113 
L 734.32821 289.218871 
L 739.040938 286.731523 
L 743.753665 283.742653 
L 748.466392 280.396203 
L 753.179119 278.503721 
L 757.891847 274.220499 
L 762.604574 269.602496 
L 767.317301 264.677955 
L 772.030028 261.229361 
L 776.742756 255.735806 
L 781.455483 250.046236 
L 786.16821 245.479689 
L 790.880938 239.584665 
L 795.593665 234.721993 
L 800.306392 229.182307 
L 805.019119 223.033764 
L 809.731847 217.41669 
L 814.444574 211.300992 
L 828.582756 192.259433 
L 833.295483 185.792015 
L 842.720938 171.53891 
L 847.433665 165.567898 
L 856.859119 151.852233 
L 861.571847 145.486394 
L 870.997301 131.493874 
L 885.135483 110.532146 
L 889.84821 103.573433 
L 894.560938 96.977022 
L 899.273665 91.275823 
L 903.986392 88.359011 
L 908.699119 85.210563 
L 913.411847 84.721615 
L 918.124574 83.113489 
L 918.124574 83.113489 
" clip-path="url(#pf9e49fe6a8)" style="fill: none; stroke: #0f4c81; stroke-width: 1.8; stroke-linecap: square"/>
   </g>
   <g id="patch_6">
    <path d="M 52.160938 311.904 
L 52.160938 64.224 
" style="fill: none; stroke: #000000; stroke-width: 0.8; stroke-linejoin: miter; stroke-linecap: square"/>
   </g>
   <g id="patch_7">
    <path d="M 959.360938 311.904 
L 959.360938 64.224 
" style="fill: none; stroke: #000000; stroke-width: 0.8; stroke-linejoin: miter; stroke-linecap: square"/>
   </g>
   <g id="patch_8">
    <path d="M 52.160938 311.904 
L 959.360938 311.904 
" style="fill: none; stroke: #000000; stroke-width: 0.8; stroke-linejoin: miter; stroke-linecap: square"/>
   </g>
   <g id="patch_9">
    <path d="M 52.160938 64.224 
L 959.360938 64.224 
" style="fill: none; stroke: #000000; stroke-width: 0.8; stroke-linejoin: miter; stroke-linecap: square"/>
   </g>
   <g id="text_18">
    <!-- down -->
    <g style="fill: #334155" transform="translate(195.367713 62.144312) scale(0.1 -0.1)">
     <defs>
      <path id="DejaVuSans-6f" d="M 1959 3097 
Q 1497 3097 1228 2736 
Q 959 2375 959 1747 
Q 959 1119 1226 758 
Q 1494 397 1959 397 
Q 2419 397 2687 759 
Q 2956 1122 2956 1747 
Q 2956 2369 2687 2733 
Q 2419 3097 1959 3097 
z
M 1959 3584 
Q 2709 3584 3137 3096 
Q 3566 2609 3566 1747 
Q 3566 888 3137 398 
Q 2709 -91 1959 -91 
Q 1206 -91 779 398 
Q 353 888 353 1747 
Q 353 2609 779 3096 
Q 1206 3584 1959 3584 
z
" transform="scale(0.015625)"/>
      <path id="DejaVuSans-77" d="M 269 3500 
L 844 3500 
L 1563 769 
L 2278 3500 
L 2956 3500 
L 3675 769 
L 4391 3500 
L 4966 3500 
L 4050 0 
L 3372 0 
L 2619 2869 
L 1863 0 
L 1184 0 
L 269 3500 
z
" transform="scale(0.015625)"/>
     </defs>
     <use xlink:href="#DejaVuSans-64"/>
     <use xlink:href="#DejaVuSans-6f" x="63.476562"/>
     <use xlink:href="#DejaVuSans-77" x="124.658203"/>
     <use xlink:href="#DejaVuSans-6e" x="206.445312"/>
    </g>
   </g>
   <g id="text_19">
    <!-- up -->
    <g style="fill: #334155" transform="translate(407.519787 62.144312) scale(0.1 -0.1)">
     <defs>
      <path id="DejaVuSans-75" d="M 544 1381 
L 544 3500 
L 1119 3500 
L 1119 1403 
Q 1119 906 1312 657 
Q 1506 409 1894 409 
Q 2359 409 2629 706 
Q 2900 1003 2900 1516 
L 2900 3500 
L 3475 3500 
L 3475 0 
L 2900 0 
L 2900 538 
Q 2691 219 2414 64 
Q 2138 -91 1772 -91 
Q 1169 -91 856 284 
Q 544 659 544 1381 
z
M 1991 3584 
L 1991 3584 
z
" transform="scale(0.015625)"/>
     </defs>
     <use xlink:href="#DejaVuSans-75"/>
     <use xlink:href="#DejaVuSans-70" x="63.378906"/>
    </g>
   </g>
   <g id="text_20">
    <!-- down -->
    <g style="fill: #334155" transform="translate(607.731349 62.144312) scale(0.1 -0.1)">
     <use xlink:href="#DejaVuSans-64"/>
     <use xlink:href="#DejaVuSans-6f" x="63.476562"/>
     <use xlink:href="#DejaVuSans-77" x="124.658203"/>
     <use xlink:href="#DejaVuSans-6e" x="206.445312"/>
    </g>
   </g>
   <g id="text_21">
    <!-- peak -->
    <g style="fill: #c0392b" transform="translate(520.830028 65.482182) scale(0.09 -0.09)">
     <defs>
      <path id="DejaVuSans-61" d="M 2194 1759 
Q 1497 1759 1228 1600 
Q 959 1441 959 1056 
Q 959 750 1161 570 
Q 1363 391 1709 391 
Q 2188 391 2477 730 
Q 2766 1069 2766 1631 
L 2766 1759 
L 2194 1759 
z
M 3341 1997 
L 3341 0 
L 2766 0 
L 2766 531 
Q 2569 213 2275 61 
Q 1981 -91 1556 -91 
Q 1019 -91 701 211 
Q 384 513 384 1019 
Q 384 1609 779 1909 
Q 1175 2209 1959 2209 
L 2766 2209 
L 2766 2266 
Q 2766 2663 2505 2880 
Q 2244 3097 1772 3097 
Q 1472 3097 1187 3025 
Q 903 2953 641 2809 
L 641 3341 
Q 956 3463 1253 3523 
Q 1550 3584 1831 3584 
Q 2591 3584 2966 3190 
Q 3341 2797 3341 1997 
z
" transform="scale(0.015625)"/>
      <path id="DejaVuSans-6b" d="M 581 4863 
L 1159 4863 
L 1159 1991 
L 2875 3500 
L 3609 3500 
L 1753 1863 
L 3688 0 
L 2938 0 
L 1159 1709 
L 1159 0 
L 581 0 
L 581 4863 
z
" transform="scale(0.015625)"/>
     </defs>
     <use xlink:href="#DejaVuSans-70"/>
     <use xlink:href="#DejaVuSans-65" x="63.476562"/>
     <use xlink:href="#DejaVuSans-61" x="125"/>
     <use xlink:href="#DejaVuSans-6b" x="186.279297"/>
    </g>
   </g>
   <g id="text_22">
    <!-- valley -->
    <g style="fill: #7d3c98" transform="translate(313.470028 314.645818) scale(0.09 -0.09)">
     <defs>
      <path id="DejaVuSans-76" d="M 191 3500 
L 800 3500 
L 1894 563 
L 2988 3500 
L 3597 3500 
L 2284 0 
L 1503 0 
L 191 3500 
z
" transform="scale(0.015625)"/>
      <path id="DejaVuSans-6c" d="M 603 4863 
L 1178 4863 
L 1178 0 
L 603 0 
L 603 4863 
z
" transform="scale(0.015625)"/>
      <path id="DejaVuSans-79" d="M 2059 -325 
Q 1816 -950 1584 -1140 
Q 1353 -1331 966 -1331 
L 506 -1331 
L 506 -850 
L 844 -850 
Q 1081 -850 1212 -737 
Q 1344 -625 1503 -206 
L 1606 56 
L 191 3500 
L 800 3500 
L 1894 763 
L 2988 3500 
L 3597 3500 
L 2059 -325 
z
" transform="scale(0.015625)"/>
     </defs>
     <use xlink:href="#DejaVuSans-76"/>
     <use xlink:href="#DejaVuSans-61" x="59.179688"/>
     <use xlink:href="#DejaVuSans-6c" x="120.458984"/>
     <use xlink:href="#DejaVuSans-6c" x="148.242188"/>
     <use xlink:href="#DejaVuSans-65" x="176.025391"/>
     <use xlink:href="#DejaVuSans-79" x="237.548828"/>
    </g>
   </g>
   <g id="PathCollection_1">
    <defs>
     <path id="m1f4f22fc8f" d="M 0 3.082207 
C 0.817411 3.082207 1.601453 2.757446 2.179449 2.179449 
C 2.757446 1.601453 3.082207 0.817411 3.082207 0 
C 3.082207 -0.817411 2.757446 -1.601453 2.179449 -2.179449 
C 1.601453 -2.757446 0.817411 -3.082207 0 -3.082207 
C -0.817411 -3.082207 -1.601453 -2.757446 -2.179449 -2.179449 
C -2.757446 -1.601453 -3.082207 -0.817411 -3.082207 0 
C -3.082207 0.817411 -2.757446 1.601453 -2.179449 2.179449 
C -1.601453 2.757446 -0.817411 3.082207 0 3.082207 
z
" style="stroke: #c0392b"/>
    </defs>
    <g clip-path="url(#pf9e49fe6a8)">
     <use xlink:href="#m1f4f22fc8f" x="512.830028" y="75.482182" style="fill: #c0392b; stroke: #c0392b"/>
    </g>
   </g>
   <g id="PathCollection_2">
    <defs>
     <path id="mddbfcdce2a" d="M 0 3.082207 
C 0.817411 3.082207 1.601453 2.757446 2.179449 2.179449 
C 2.757446 1.601453 3.082207 0.817411 3.082207 0 
C 3.082207 -0.817411 2.757446 -1.601453 2.179449 -2.179449 
C 1.601453 -2.757446 0.817411 -3.082207 0 -3.082207 
C -0.817411 -3.082207 -1.601453 -2.757446 -2.179449 -2.179449 
C -2.757446 -1.601453 -3.082207 -0.817411 -3.082207 0 
C -3.082207 0.817411 -2.757446 1.601453 -2.179449 2.179449 
C -1.601453 2.757446 -0.817411 3.082207 0 3.082207 
z
" style="stroke: #7d3c98"/>
    </defs>
    <g clip-path="url(#pf9e49fe6a8)">
     <use xlink:href="#mddbfcdce2a" x="305.470028" y="300.645818" style="fill: #7d3c98; stroke: #7d3c98"/>
    </g>
   </g>
  </g>
  <g id="axes_2">
   <g id="text_23">
    <!-- Generated Caption -->
    <g style="fill: #1f2a44" transform="translate(52.160938 373.9968) scale(0.11 -0.11)">
     <defs>
      <path id="DejaVuSans-Bold-47" d="M 4781 347 
Q 4331 128 3847 18 
Q 3363 -91 2847 -91 
Q 1681 -91 1000 561 
Q 319 1213 319 2328 
Q 319 3456 1012 4103 
Q 1706 4750 2913 4750 
Q 3378 4750 3804 4662 
Q 4231 4575 4609 4403 
L 4609 3438 
Q 4219 3659 3833 3768 
Q 3447 3878 3059 3878 
Q 2341 3878 1952 3476 
Q 1563 3075 1563 2328 
Q 1563 1588 1938 1184 
Q 2313 781 3003 781 
Q 3191 781 3352 804 
Q 3513 828 3641 878 
L 3641 1784 
L 2906 1784 
L 2906 2591 
L 4781 2591 
L 4781 347 
z
" transform="scale(0.015625)"/>
      <path id="DejaVuSans-Bold-65" d="M 4031 1759 
L 4031 1441 
L 1416 1441 
Q 1456 1047 1700 850 
Q 1944 653 2381 653 
Q 2734 653 3104 758 
Q 3475 863 3866 1075 
L 3866 213 
Q 3469 63 3072 -14 
Q 2675 -91 2278 -91 
Q 1328 -91 801 392 
Q 275 875 275 1747 
Q 275 2603 792 3093 
Q 1309 3584 2216 3584 
Q 3041 3584 3536 3087 
Q 4031 2591 4031 1759 
z
M 2881 2131 
Q 2881 2450 2695 2645 
Q 2509 2841 2209 2841 
Q 1884 2841 1681 2658 
Q 1478 2475 1428 2131 
L 2881 2131 
z
" transform="scale(0.015625)"/>
      <path id="DejaVuSans-Bold-6e" d="M 4056 2131 
L 4056 0 
L 2931 0 
L 2931 347 
L 2931 1631 
Q 2931 2084 2911 2256 
Q 2891 2428 2841 2509 
Q 2775 2619 2662 2680 
Q 2550 2741 2406 2741 
Q 2056 2741 1856 2470 
Q 1656 2200 1656 1722 
L 1656 0 
L 538 0 
L 538 3500 
L 1656 3500 
L 1656 2988 
Q 1909 3294 2193 3439 
Q 2478 3584 2822 3584 
Q 3428 3584 3742 3212 
Q 4056 2841 4056 2131 
z
" transform="scale(0.015625)"/>
      <path id="DejaVuSans-Bold-72" d="M 3138 2547 
Q 2991 2616 2845 2648 
Q 2700 2681 2553 2681 
Q 2122 2681 1889 2404 
Q 1656 2128 1656 1613 
L 1656 0 
L 538 0 
L 538 3500 
L 1656 3500 
L 1656 2925 
Q 1872 3269 2151 3426 
Q 2431 3584 2822 3584 
Q 2878 3584 2943 3579 
Q 3009 3575 3134 3559 
L 3138 2547 
z
" transform="scale(0.015625)"/>
      <path id="DejaVuSans-Bold-61" d="M 2106 1575 
Q 1756 1575 1579 1456 
Q 1403 1338 1403 1106 
Q 1403 894 1545 773 
Q 1688 653 1941 653 
Q 2256 653 2472 879 
Q 2688 1106 2688 1447 
L 2688 1575 
L 2106 1575 
z
M 3816 1997 
L 3816 0 
L 2688 0 
L 2688 519 
Q 2463 200 2181 54 
Q 1900 -91 1497 -91 
Q 953 -91 614 226 
Q 275 544 275 1050 
Q 275 1666 698 1953 
Q 1122 2241 2028 2241 
L 2688 2241 
L 2688 2328 
Q 2688 2594 2478 2717 
Q 2269 2841 1825 2841 
Q 1466 2841 1156 2769 
Q 847 2697 581 2553 
L 581 3406 
Q 941 3494 1303 3539 
Q 1666 3584 2028 3584 
Q 2975 3584 3395 3211 
Q 3816 2838 3816 1997 
z
" transform="scale(0.015625)"/>
      <path id="DejaVuSans-Bold-74" d="M 1759 4494 
L 1759 3500 
L 2913 3500 
L 2913 2700 
L 1759 2700 
L 1759 1216 
Q 1759 972 1856 886 
Q 1953 800 2241 800 
L 2816 800 
L 2816 0 
L 1856 0 
Q 1194 0 917 276 
Q 641 553 641 1216 
L 641 2700 
L 84 2700 
L 84 3500 
L 641 3500 
L 641 4494 
L 1759 4494 
z
" transform="scale(0.015625)"/>
      <path id="DejaVuSans-Bold-64" d="M 2919 2988 
L 2919 4863 
L 4044 4863 
L 4044 0 
L 2919 0 
L 2919 506 
Q 2688 197 2409 53 
Q 2131 -91 1766 -91 
Q 1119 -91 703 423 
Q 288 938 288 1747 
Q 288 2556 703 3070 
Q 1119 3584 1766 3584 
Q 2128 3584 2408 3439 
Q 2688 3294 2919 2988 
z
M 2181 722 
Q 2541 722 2730 984 
Q 2919 1247 2919 1747 
Q 2919 2247 2730 2509 
Q 2541 2772 2181 2772 
Q 1825 2772 1636 2509 
Q 1447 2247 1447 1747 
Q 1447 1247 1636 984 
Q 1825 722 2181 722 
z
" transform="scale(0.015625)"/>
      <path id="DejaVuSans-Bold-20" transform="scale(0.015625)"/>
      <path id="DejaVuSans-Bold-43" d="M 4288 256 
Q 3956 84 3597 -3 
Q 3238 -91 2847 -91 
Q 1681 -91 1000 561 
Q 319 1213 319 2328 
Q 319 3447 1000 4098 
Q 1681 4750 2847 4750 
Q 3238 4750 3597 4662 
Q 3956 4575 4288 4403 
L 4288 3438 
Q 3953 3666 3628 3772 
Q 3303 3878 2944 3878 
Q 2300 3878 1931 3465 
Q 1563 3053 1563 2328 
Q 1563 1606 1931 1193 
Q 2300 781 2944 781 
Q 3303 781 3628 887 
Q 3953 994 4288 1222 
L 4288 256 
z
" transform="scale(0.015625)"/>
      <path id="DejaVuSans-Bold-70" d="M 1656 506 
L 1656 -1331 
L 538 -1331 
L 538 3500 
L 1656 3500 
L 1656 2988 
Q 1888 3294 2169 3439 
Q 2450 3584 2816 3584 
Q 3463 3584 3878 3070 
Q 4294 2556 4294 1747 
Q 4294 938 3878 423 
Q 3463 -91 2816 -91 
Q 2450 -91 2169 54 
Q 1888 200 1656 506 
z
M 2400 2772 
Q 2041 2772 1848 2508 
Q 1656 2244 1656 1747 
Q 1656 1250 1848 986 
Q 2041 722 2400 722 
Q 2759 722 2948 984 
Q 3138 1247 3138 1747 
Q 3138 2247 2948 2509 
Q 2759 2772 2400 2772 
z
" transform="scale(0.015625)"/>
      <path id="DejaVuSans-Bold-69" d="M 538 3500 
L 1656 3500 
L 1656 0 
L 538 0 
L 538 3500 
z
M 538 4863 
L 1656 4863 
L 1656 3950 
L 538 3950 
L 538 4863 
z
" transform="scale(0.015625)"/>
      <path id="DejaVuSans-Bold-6f" d="M 2203 2784 
Q 1831 2784 1636 2517 
Q 1441 2250 1441 1747 
Q 1441 1244 1636 976 
Q 1831 709 2203 709 
Q 2569 709 2762 976 
Q 2956 1244 2956 1747 
Q 2956 2250 2762 2517 
Q 2569 2784 2203 2784 
z
M 2203 3584 
Q 3106 3584 3614 3096 
Q 4122 2609 4122 1747 
Q 4122 884 3614 396 
Q 3106 -91 2203 -91 
Q 1297 -91 786 396 
Q 275 884 275 1747 
Q 275 2609 786 3096 
Q 1297 3584 2203 3584 
z
" transform="scale(0.015625)"/>
     </defs>
     <use xlink:href="#DejaVuSans-Bold-47"/>
     <use xlink:href="#DejaVuSans-Bold-65" x="82.080078"/>
     <use xlink:href="#DejaVuSans-Bold-6e" x="149.902344"/>
     <use xlink:href="#DejaVuSans-Bold-65" x="221.09375"/>
     <use xlink:href="#DejaVuSans-Bold-72" x="288.916016"/>
     <use xlink:href="#DejaVuSans-Bold-61" x="338.232422"/>
     <use xlink:href="#DejaVuSans-Bold-74" x="405.712891"/>
     <use xlink:href="#DejaVuSans-Bold-65" x="453.515625"/>
     <use xlink:href="#DejaVuSans-Bold-64" x="521.337891"/>
     <use xlink:href="#DejaVuSans-Bold-20" x="592.919922"/>
     <use xlink:href="#DejaVuSans-Bold-43" x="627.734375"/>
     <use xlink:href="#DejaVuSans-Bold-61" x="701.123047"/>
     <use xlink:href="#DejaVuSans-Bold-70" x="768.603516"/>
     <use xlink:href="#DejaVuSans-Bold-74" x="840.185547"/>
     <use xlink:href="#DejaVuSans-Bold-69" x="887.988281"/>
     <use xlink:href="#DejaVuSans-Bold-6f" x="922.265625"/>
     <use xlink:href="#DejaVuSans-Bold-6e" x="990.966797"/>
    </g>
   </g>
   <g id="text_24">
    <!-- The series forms a valley pattern with subdued variability. Periodicity analysis reveals no -->
    <g style="fill: #2f3b4a" transform="translate(52.160938 393.252256) scale(0.1 -0.1)">
     <defs>
      <path id="DejaVuSans-54" d="M -19 4666 
L 3928 4666 
L 3928 4134 
L 2272 4134 
L 2272 0 
L 1638 0 
L 1638 4134 
L -19 4134 
L -19 4666 
z
" transform="scale(0.015625)"/>
      <path id="DejaVuSans-68" d="M 3513 2113 
L 3513 0 
L 2938 0 
L 2938 2094 
Q 2938 2591 2744 2837 
Q 2550 3084 2163 3084 
Q 1697 3084 1428 2787 
Q 1159 2491 1159 1978 
L 1159 0 
L 581 0 
L 581 4863 
L 1159 4863 
L 1159 2956 
Q 1366 3272 1645 3428 
Q 1925 3584 2291 3584 
Q 2894 3584 3203 3211 
Q 3513 2838 3513 2113 
z
" transform="scale(0.015625)"/>
      <path id="DejaVuSans-73" d="M 2834 3397 
L 2834 2853 
Q 2591 2978 2328 3040 
Q 2066 3103 1784 3103 
Q 1356 3103 1142 2972 
Q 928 2841 928 2578 
Q 928 2378 1081 2264 
Q 1234 2150 1697 2047 
L 1894 2003 
Q 2506 1872 2764 1633 
Q 3022 1394 3022 966 
Q 3022 478 2636 193 
Q 2250 -91 1575 -91 
Q 1294 -91 989 -36 
Q 684 19 347 128 
L 347 722 
Q 666 556 975 473 
Q 1284 391 1588 391 
Q 1994 391 2212 530 
Q 2431 669 2431 922 
Q 2431 1156 2273 1281 
Q 2116 1406 1581 1522 
L 1381 1569 
Q 847 1681 609 1914 
Q 372 2147 372 2553 
Q 372 3047 722 3315 
Q 1072 3584 1716 3584 
Q 2034 3584 2315 3537 
Q 2597 3491 2834 3397 
z
" transform="scale(0.015625)"/>
      <path id="DejaVuSans-72" d="M 2631 2963 
Q 2534 3019 2420 3045 
Q 2306 3072 2169 3072 
Q 1681 3072 1420 2755 
Q 1159 2438 1159 1844 
L 1159 0 
L 581 0 
L 581 3500 
L 1159 3500 
L 1159 2956 
Q 1341 3275 1631 3429 
Q 1922 3584 2338 3584 
Q 2397 3584 2469 3576 
Q 2541 3569 2628 3553 
L 2631 2963 
z
" transform="scale(0.015625)"/>
      <path id="DejaVuSans-69" d="M 603 3500 
L 1178 3500 
L 1178 0 
L 603 0 
L 603 3500 
z
M 603 4863 
L 1178 4863 
L 1178 4134 
L 603 4134 
L 603 4863 
z
" transform="scale(0.015625)"/>
      <path id="DejaVuSans-66" d="M 2375 4863 
L 2375 4384 
L 1825 4384 
Q 1516 4384 1395 4259 
Q 1275 4134 1275 3809 
L 1275 3500 
L 2222 3500 
L 2222 3053 
L 1275 3053 
L 1275 0 
L 697 0 
L 697 3053 
L 147 3053 
L 147 3500 
L 697 3500 
L 697 3744 
Q 697 4328 969 4595 
Q 1241 4863 1831 4863 
L 2375 4863 
z
" transform="scale(0.015625)"/>
      <path id="DejaVuSans-6d" d="M 3328 2828 
Q 3544 3216 3844 3400 
Q 4144 3584 4550 3584 
Q 5097 3584 5394 3201 
Q 5691 2819 5691 2113 
L 5691 0 
L 5113 0 
L 5113 2094 
Q 5113 2597 4934 2840 
Q 4756 3084 4391 3084 
Q 3944 3084 3684 2787 
Q 3425 2491 3425 1978 
L 3425 0 
L 2847 0 
L 2847 2094 
Q 2847 2600 2669 2842 
Q 2491 3084 2119 3084 
Q 1678 3084 1418 2786 
Q 1159 2488 1159 1978 
L 1159 0 
L 581 0 
L 581 3500 
L 1159 3500 
L 1159 2956 
Q 1356 3278 1631 3431 
Q 1906 3584 2284 3584 
Q 2666 3584 2933 3390 
Q 3200 3197 3328 2828 
z
" transform="scale(0.015625)"/>
      <path id="DejaVuSans-62" d="M 3116 1747 
Q 3116 2381 2855 2742 
Q 2594 3103 2138 3103 
Q 1681 3103 1420 2742 
Q 1159 2381 1159 1747 
Q 1159 1113 1420 752 
Q 1681 391 2138 391 
Q 2594 391 2855 752 
Q 3116 1113 3116 1747 
z
M 1159 2969 
Q 1341 3281 1617 3432 
Q 1894 3584 2278 3584 
Q 2916 3584 3314 3078 
Q 3713 2572 3713 1747 
Q 3713 922 3314 415 
Q 2916 -91 2278 -91 
Q 1894 -91 1617 61 
Q 1341 213 1159 525 
L 1159 0 
L 581 0 
L 581 4863 
L 1159 4863 
L 1159 2969 
z
" transform="scale(0.015625)"/>
      <path id="DejaVuSans-50" d="M 1259 4147 
L 1259 2394 
L 2053 2394 
Q 2494 2394 2734 2622 
Q 2975 2850 2975 3272 
Q 2975 3691 2734 3919 
Q 2494 4147 2053 4147 
L 1259 4147 
z
M 628 4666 
L 2053 4666 
Q 2838 4666 3239 4311 
Q 3641 3956 3641 3272 
Q 3641 2581 3239 2228 
Q 2838 1875 2053 1875 
L 1259 1875 
L 1259 0 
L 628 0 
L 628 4666 
z
" transform="scale(0.015625)"/>
      <path id="DejaVuSans-63" d="M 3122 3366 
L 3122 2828 
Q 2878 2963 2633 3030 
Q 2388 3097 2138 3097 
Q 1578 3097 1268 2742 
Q 959 2388 959 1747 
Q 959 1106 1268 751 
Q 1578 397 2138 397 
Q 2388 397 2633 464 
Q 2878 531 3122 666 
L 3122 134 
Q 2881 22 2623 -34 
Q 2366 -91 2075 -91 
Q 1284 -91 818 406 
Q 353 903 353 1747 
Q 353 2603 823 3093 
Q 1294 3584 2113 3584 
Q 2378 3584 2631 3529 
Q 2884 3475 3122 3366 
z
" transform="scale(0.015625)"/>
     </defs>
     <use xlink:href="#DejaVuSans-54"/>
     <use xlink:href="#DejaVuSans-68" x="61.083984"/>
     <use xlink:href="#DejaVuSans-65" x="124.462891"/>
     <use xlink:href="#DejaVuSans-20" x="185.986328"/>
     <use xlink:href="#DejaVuSans-73" x="217.773438"/>
     <use xlink:href="#DejaVuSans-65" x="269.873047"/>
     <use xlink:href="#DejaVuSans-72" x="331.396484"/>
     <use xlink:href="#DejaVuSans-69" x="372.509766"/>
     <use xlink:href="#DejaVuSans-65" x="400.292969"/>
     <use xlink:href="#DejaVuSans-73" x="461.816406"/>
     <use xlink:href="#DejaVuSans-20" x="513.916016"/>
     <use xlink:href="#DejaVuSans-66" x="545.703125"/>
     <use xlink:href="#DejaVuSans-6f" x="580.908203"/>
     <use xlink:href="#DejaVuSans-72" x="642.089844"/>
     <use xlink:href="#DejaVuSans-6d" x="681.453125"/>
     <use xlink:href="#DejaVuSans-73" x="778.865234"/>
     <use xlink:href="#DejaVuSans-20" x="830.964844"/>
     <use xlink:href="#DejaVuSans-61" x="862.751953"/>
     <use xlink:href="#DejaVuSans-20" x="924.03125"/>
     <use xlink:href="#DejaVuSans-76" x="955.818359"/>
     <use xlink:href="#DejaVuSans-61" x="1014.998047"/>
     <use xlink:href="#DejaVuSans-6c" x="1076.277344"/>
     <use xlink:href="#DejaVuSans-6c" x="1104.060547"/>
     <use xlink:href="#DejaVuSans-65" x="1131.84375"/>
     <use xlink:href="#DejaVuSans-79" x="1193.367188"/>
     <use xlink:href="#DejaVuSans-20" x="1252.546875"/>
     <use xlink:href="#DejaVuSans-70" x="1284.333984"/>
     <use xlink:href="#DejaVuSans-61" x="1347.810547"/>
     <use xlink:href="#DejaVuSans-74" x="1409.089844"/>
     <use xlink:href="#DejaVuSans-74" x="1448.298828"/>
     <use xlink:href="#DejaVuSans-65" x="1487.507812"/>
     <use xlink:href="#DejaVuSans-72" x="1549.03125"/>
     <use xlink:href="#DejaVuSans-6e" x="1588.394531"/>
     <use xlink:href="#DejaVuSans-20" x="1651.773438"/>
     <use xlink:href="#DejaVuSans-77" x="1683.560547"/>
     <use xlink:href="#DejaVuSans-69" x="1765.347656"/>
     <use xlink:href="#DejaVuSans-74" x="1793.130859"/>
     <use xlink:href="#DejaVuSans-68" x="1832.339844"/>
     <use xlink:href="#DejaVuSans-20" x="1895.71875"/>
     <use xlink:href="#DejaVuSans-73" x="1927.505859"/>
     <use xlink:href="#DejaVuSans-75" x="1979.605469"/>
     <use xlink:href="#DejaVuSans-62" x="2042.984375"/>
     <use xlink:href="#DejaVuSans-64" x="2106.460938"/>
     <use xlink:href="#DejaVuSans-75" x="2169.9375"/>
     <use xlink:href="#DejaVuSans-65" x="2233.316406"/>
     <use xlink:href="#DejaVuSans-64" x="2294.839844"/>
     <use xlink:href="#DejaVuSans-20" x="2358.316406"/>
     <use xlink:href="#DejaVuSans-76" x="2390.103516"/>
     <use xlink:href="#DejaVuSans-61" x="2449.283203"/>
     <use xlink:href="#DejaVuSans-72" x="2510.5625"/>
     <use xlink:href="#DejaVuSans-69" x="2551.675781"/>
     <use xlink:href="#DejaVuSans-61" x="2579.458984"/>
     <use xlink:href="#DejaVuSans-62" x="2640.738281"/>
     <use xlink:href="#DejaVuSans-69" x="2704.214844"/>
     <use xlink:href="#DejaVuSans-6c" x="2731.998047"/>
     <use xlink:href="#DejaVuSans-69" x="2759.78125"/>
     <use xlink:href="#DejaVuSans-74" x="2787.564453"/>
     <use xlink:href="#DejaVuSans-79" x="2826.773438"/>
     <use xlink:href="#DejaVuSans-2e" x="2871.703125"/>
     <use xlink:href="#DejaVuSans-20" x="2903.490234"/>
     <use xlink:href="#DejaVuSans-50" x="2935.277344"/>
     <use xlink:href="#DejaVuSans-65" x="2991.955078"/>
     <use xlink:href="#DejaVuSans-72" x="3053.478516"/>
     <use xlink:href="#DejaVuSans-69" x="3094.591797"/>
     <use xlink:href="#DejaVuSans-6f" x="3122.375"/>
     <use xlink:href="#DejaVuSans-64" x="3183.556641"/>
     <use xlink:href="#DejaVuSans-69" x="3247.033203"/>
     <use xlink:href="#DejaVuSans-63" x="3274.816406"/>
     <use xlink:href="#DejaVuSans-69" x="3329.796875"/>
     <use xlink:href="#DejaVuSans-74" x="3357.580078"/>
     <use xlink:href="#DejaVuSans-79" x="3396.789062"/>
     <use xlink:href="#DejaVuSans-20" x="3455.96875"/>
     <use xlink:href="#DejaVuSans-61" x="3487.755859"/>
     <use xlink:href="#DejaVuSans-6e" x="3549.035156"/>
     <use xlink:href="#DejaVuSans-61" x="3612.414062"/>
     <use xlink:href="#DejaVuSans-6c" x="3673.693359"/>
     <use xlink:href="#DejaVuSans-79" x="3701.476562"/>
     <use xlink:href="#DejaVuSans-73" x="3760.65625"/>
     <use xlink:href="#DejaVuSans-69" x="3812.755859"/>
     <use xlink:href="#DejaVuSans-73" x="3840.539062"/>
     <use xlink:href="#DejaVuSans-20" x="3892.638672"/>
     <use xlink:href="#DejaVuSans-72" x="3924.425781"/>
     <use xlink:href="#DejaVuSans-65" x="3963.289062"/>
     <use xlink:href="#DejaVuSans-76" x="4024.8125"/>
     <use xlink:href="#DejaVuSans-65" x="4083.992188"/>
     <use xlink:href="#DejaVuSans-61" x="4145.515625"/>
     <use xlink:href="#DejaVuSans-6c" x="4206.794922"/>
     <use xlink:href="#DejaVuSans-73" x="4234.578125"/>
     <use xlink:href="#DejaVuSans-20" x="4286.677734"/>
     <use xlink:href="#DejaVuSans-6e" x="4318.464844"/>
     <use xlink:href="#DejaVuSans-6f" x="4381.84375"/>
    </g>
    <!-- significant cycle. The overall morphology falls, then falls, then rises. The values surge to -->
    <g style="fill: #2f3b4a" transform="translate(52.160938 404.450069) scale(0.1 -0.1)">
     <defs>
      <path id="DejaVuSans-67" d="M 2906 1791 
Q 2906 2416 2648 2759 
Q 2391 3103 1925 3103 
Q 1463 3103 1205 2759 
Q 947 2416 947 1791 
Q 947 1169 1205 825 
Q 1463 481 1925 481 
Q 2391 481 2648 825 
Q 2906 1169 2906 1791 
z
M 3481 434 
Q 3481 -459 3084 -895 
Q 2688 -1331 1869 -1331 
Q 1566 -1331 1297 -1286 
Q 1028 -1241 775 -1147 
L 775 -588 
Q 1028 -725 1275 -790 
Q 1522 -856 1778 -856 
Q 2344 -856 2625 -561 
Q 2906 -266 2906 331 
L 2906 616 
Q 2728 306 2450 153 
Q 2172 0 1784 0 
Q 1141 0 747 490 
Q 353 981 353 1791 
Q 353 2603 747 3093 
Q 1141 3584 1784 3584 
Q 2172 3584 2450 3431 
Q 2728 3278 2906 2969 
L 2906 3500 
L 3481 3500 
L 3481 434 
z
" transform="scale(0.015625)"/>
      <path id="DejaVuSans-2c" d="M 750 794 
L 1409 794 
L 1409 256 
L 897 -744 
L 494 -744 
L 750 256 
L 750 794 
z
" transform="scale(0.015625)"/>
     </defs>
     <use xlink:href="#DejaVuSans-73"/>
     <use xlink:href="#DejaVuSans-69" x="52.099609"/>
     <use xlink:href="#DejaVuSans-67" x="79.882812"/>
     <use xlink:href="#DejaVuSans-6e" x="143.359375"/>
     <use xlink:href="#DejaVuSans-69" x="206.738281"/>
     <use xlink:href="#DejaVuSans-66" x="234.521484"/>
     <use xlink:href="#DejaVuSans-69" x="269.726562"/>
     <use xlink:href="#DejaVuSans-63" x="297.509766"/>
     <use xlink:href="#DejaVuSans-61" x="352.490234"/>
     <use xlink:href="#DejaVuSans-6e" x="413.769531"/>
     <use xlink:href="#DejaVuSans-74" x="477.148438"/>
     <use xlink:href="#DejaVuSans-20" x="516.357422"/>
     <use xlink:href="#DejaVuSans-63" x="548.144531"/>
     <use xlink:href="#DejaVuSans-79" x="603.125"/>
     <use xlink:href="#DejaVuSans-63" x="662.304688"/>
     <use xlink:href="#DejaVuSans-6c" x="717.285156"/>
     <use xlink:href="#DejaVuSans-65" x="745.068359"/>
     <use xlink:href="#DejaVuSans-2e" x="806.591797"/>
     <use xlink:href="#DejaVuSans-20" x="838.378906"/>
     <use xlink:href="#DejaVuSans-54" x="870.166016"/>
     <use xlink:href="#DejaVuSans-68" x="931.25"/>
     <use xlink:href="#DejaVuSans-65" x="994.628906"/>
     <use xlink:href="#DejaVuSans-20" x="1056.152344"/>
     <use xlink:href="#DejaVuSans-6f" x="1087.939453"/>
     <use xlink:href="#DejaVuSans-76" x="1149.121094"/>
     <use xlink:href="#DejaVuSans-65" x="1208.300781"/>
     <use xlink:href="#DejaVuSans-72" x="1269.824219"/>
     <use xlink:href="#DejaVuSans-61" x="1310.9375"/>
     <use xlink:href="#DejaVuSans-6c" x="1372.216797"/>
     <use xlink:href="#DejaVuSans-6c" x="1400"/>
     <use xlink:href="#DejaVuSans-20" x="1427.783203"/>
     <use xlink:href="#DejaVuSans-6d" x="1459.570312"/>
     <use xlink:href="#DejaVuSans-6f" x="1556.982422"/>
     <use xlink:href="#DejaVuSans-72" x="1618.164062"/>
     <use xlink:href="#DejaVuSans-70" x="1659.277344"/>
     <use xlink:href="#DejaVuSans-68" x="1722.753906"/>
     <use xlink:href="#DejaVuSans-6f" x="1786.132812"/>
     <use xlink:href="#DejaVuSans-6c" x="1847.314453"/>
     <use xlink:href="#DejaVuSans-6f" x="1875.097656"/>
     <use xlink:href="#DejaVuSans-67" x="1936.279297"/>
     <use xlink:href="#DejaVuSans-79" x="1999.755859"/>
     <use xlink:href="#DejaVuSans-20" x="2058.935547"/>
     <use xlink:href="#DejaVuSans-66" x="2090.722656"/>
     <use xlink:href="#DejaVuSans-61" x="2125.927734"/>
     <use xlink:href="#DejaVuSans-6c" x="2187.207031"/>
     <use xlink:href="#DejaVuSans-6c" x="2214.990234"/>
     <use xlink:href="#DejaVuSans-73" x="2242.773438"/>
     <use xlink:href="#DejaVuSans-2c" x="2294.873047"/>
     <use xlink:href="#DejaVuSans-20" x="2326.660156"/>
     <use xlink:href="#DejaVuSans-74" x="2358.447266"/>
     <use xlink:href="#DejaVuSans-68" x="2397.65625"/>
     <use xlink:href="#DejaVuSans-65" x="2461.035156"/>
     <use xlink:href="#DejaVuSans-6e" x="2522.558594"/>
     <use xlink:href="#DejaVuSans-20" x="2585.9375"/>
     <use xlink:href="#DejaVuSans-66" x="2617.724609"/>
     <use xlink:href="#DejaVuSans-61" x="2652.929688"/>
     <use xlink:href="#DejaVuSans-6c" x="2714.208984"/>
     <use xlink:href="#DejaVuSans-6c" x="2741.992188"/>
     <use xlink:href="#DejaVuSans-73" x="2769.775391"/>
     <use xlink:href="#DejaVuSans-2c" x="2821.875"/>
     <use xlink:href="#DejaVuSans-20" x="2853.662109"/>
     <use xlink:href="#DejaVuSans-74" x="2885.449219"/>
     <use xlink:href="#DejaVuSans-68" x="2924.658203"/>
     <use xlink:href="#DejaVuSans-65" x="2988.037109"/>
     <use xlink:href="#DejaVuSans-6e" x="3049.560547"/>
     <use xlink:href="#DejaVuSans-20" x="3112.939453"/>
     <use xlink:href="#DejaVuSans-72" x="3144.726562"/>
     <use xlink:href="#DejaVuSans-69" x="3185.839844"/>
     <use xlink:href="#DejaVuSans-73" x="3213.623047"/>
     <use xlink:href="#DejaVuSans-65" x="3265.722656"/>
     <use xlink:href="#DejaVuSans-73" x="3327.246094"/>
     <use xlink:href="#DejaVuSans-2e" x="3379.345703"/>
     <use xlink:href="#DejaVuSans-20" x="3411.132812"/>
     <use xlink:href="#DejaVuSans-54" x="3442.919922"/>
     <use xlink:href="#DejaVuSans-68" x="3504.003906"/>
     <use xlink:href="#DejaVuSans-65" x="3567.382812"/>
     <use xlink:href="#DejaVuSans-20" x="3628.90625"/>
     <use xlink:href="#DejaVuSans-76" x="3660.693359"/>
     <use xlink:href="#DejaVuSans-61" x="3719.873047"/>
     <use xlink:href="#DejaVuSans-6c" x="3781.152344"/>
     <use xlink:href="#DejaVuSans-75" x="3808.935547"/>
     <use xlink:href="#DejaVuSans-65" x="3872.314453"/>
     <use xlink:href="#DejaVuSans-73" x="3933.837891"/>
     <use xlink:href="#DejaVuSans-20" x="3985.9375"/>
     <use xlink:href="#DejaVuSans-73" x="4017.724609"/>
     <use xlink:href="#DejaVuSans-75" x="4069.824219"/>
     <use xlink:href="#DejaVuSans-72" x="4133.203125"/>
     <use xlink:href="#DejaVuSans-67" x="4172.566406"/>
     <use xlink:href="#DejaVuSans-65" x="4236.042969"/>
     <use xlink:href="#DejaVuSans-20" x="4297.566406"/>
     <use xlink:href="#DejaVuSans-74" x="4329.353516"/>
     <use xlink:href="#DejaVuSans-6f" x="4368.5625"/>
    </g>
    <!-- a peak around the midpoint, ~1.7 std above the mean. The values drop to a valley in the -->
    <g style="fill: #2f3b4a" transform="translate(52.160938 415.647881) scale(0.1 -0.1)">
     <defs>
      <path id="DejaVuSans-7e" d="M 4684 2553 
L 4684 1997 
Q 4356 1750 4076 1644 
Q 3797 1538 3494 1538 
Q 3150 1538 2694 1722 
Q 2659 1734 2644 1741 
Q 2622 1750 2575 1766 
Q 2091 1959 1797 1959 
Q 1522 1959 1253 1839 
Q 984 1719 678 1459 
L 678 2016 
Q 1006 2263 1286 2370 
Q 1566 2478 1869 2478 
Q 2213 2478 2672 2291 
Q 2703 2278 2719 2272 
Q 2744 2263 2788 2247 
Q 3272 2053 3566 2053 
Q 3834 2053 4098 2172 
Q 4363 2291 4684 2553 
z
" transform="scale(0.015625)"/>
     </defs>
     <use xlink:href="#DejaVuSans-61"/>
     <use xlink:href="#DejaVuSans-20" x="61.279297"/>
     <use xlink:href="#DejaVuSans-70" x="93.066406"/>
     <use xlink:href="#DejaVuSans-65" x="156.542969"/>
     <use xlink:href="#DejaVuSans-61" x="218.066406"/>
     <use xlink:href="#DejaVuSans-6b" x="279.345703"/>
     <use xlink:href="#DejaVuSans-20" x="337.255859"/>
     <use xlink:href="#DejaVuSans-61" x="369.042969"/>
     <use xlink:href="#DejaVuSans-72" x="430.322266"/>
     <use xlink:href="#DejaVuSans-6f" x="469.185547"/>
     <use xlink:href="#DejaVuSans-75" x="530.367188"/>
     <use xlink:href="#DejaVuSans-6e" x="593.746094"/>
     <use xlink:href="#DejaVuSans-64" x="657.125"/>
     <use xlink:href="#DejaVuSans-20" x="720.601562"/>
     <use xlink:href="#DejaVuSans-74" x="752.388672"/>
     <use xlink:href="#DejaVuSans-68" x="791.597656"/>
     <use xlink:href="#DejaVuSans-65" x="854.976562"/>
     <use xlink:href="#DejaVuSans-20" x="916.5"/>
     <use xlink:href="#DejaVuSans-6d" x="948.287109"/>
     <use xlink:href="#DejaVuSans-69" x="1045.699219"/>
     <use xlink:href="#DejaVuSans-64" x="1073.482422"/>
     <use xlink:href="#DejaVuSans-70" x="1136.958984"/>
     <use xlink:href="#DejaVuSans-6f" x="1200.435547"/>
     <use xlink:href="#DejaVuSans-69" x="1261.617188"/>
     <use xlink:href="#DejaVuSans-6e" x="1289.400391"/>
     <use xlink:href="#DejaVuSans-74" x="1352.779297"/>
     <use xlink:href="#DejaVuSans-2c" x="1391.988281"/>
     <use xlink:href="#DejaVuSans-20" x="1423.775391"/>
     <use xlink:href="#DejaVuSans-7e" x="1455.5625"/>
     <use xlink:href="#DejaVuSans-31" x="1539.351562"/>
     <use xlink:href="#DejaVuSans-2e" x="1602.974609"/>
     <use xlink:href="#DejaVuSans-37" x="1634.761719"/>
     <use xlink:href="#DejaVuSans-20" x="1698.384766"/>
     <use xlink:href="#DejaVuSans-73" x="1730.171875"/>
     <use xlink:href="#DejaVuSans-74" x="1782.271484"/>
     <use xlink:href="#DejaVuSans-64" x="1821.480469"/>
     <use xlink:href="#DejaVuSans-20" x="1884.957031"/>
     <use xlink:href="#DejaVuSans-61" x="1916.744141"/>
     <use xlink:href="#DejaVuSans-62" x="1978.023438"/>
     <use xlink:href="#DejaVuSans-6f" x="2041.5"/>
     <use xlink:href="#DejaVuSans-76" x="2102.681641"/>
     <use xlink:href="#DejaVuSans-65" x="2161.861328"/>
     <use xlink:href="#DejaVuSans-20" x="2223.384766"/>
     <use xlink:href="#DejaVuSans-74" x="2255.171875"/>
     <use xlink:href="#DejaVuSans-68" x="2294.380859"/>
     <use xlink:href="#DejaVuSans-65" x="2357.759766"/>
     <use xlink:href="#DejaVuSans-20" x="2419.283203"/>
     <use xlink:href="#DejaVuSans-6d" x="2451.070312"/>
     <use xlink:href="#DejaVuSans-65" x="2548.482422"/>
     <use xlink:href="#DejaVuSans-61" x="2610.005859"/>
     <use xlink:href="#DejaVuSans-6e" x="2671.285156"/>
     <use xlink:href="#DejaVuSans-2e" x="2734.664062"/>
     <use xlink:href="#DejaVuSans-20" x="2766.451172"/>
     <use xlink:href="#DejaVuSans-54" x="2798.238281"/>
     <use xlink:href="#DejaVuSans-68" x="2859.322266"/>
     <use xlink:href="#DejaVuSans-65" x="2922.701172"/>
     <use xlink:href="#DejaVuSans-20" x="2984.224609"/>
     <use xlink:href="#DejaVuSans-76" x="3016.011719"/>
     <use xlink:href="#DejaVuSans-61" x="3075.191406"/>
     <use xlink:href="#DejaVuSans-6c" x="3136.470703"/>
     <use xlink:href="#DejaVuSans-75" x="3164.253906"/>
     <use xlink:href="#DejaVuSans-65" x="3227.632812"/>
     <use xlink:href="#DejaVuSans-73" x="3289.15625"/>
     <use xlink:href="#DejaVuSans-20" x="3341.255859"/>
     <use xlink:href="#DejaVuSans-64" x="3373.042969"/>
     <use xlink:href="#DejaVuSans-72" x="3436.519531"/>
     <use xlink:href="#DejaVuSans-6f" x="3475.382812"/>
     <use xlink:href="#DejaVuSans-70" x="3536.564453"/>
     <use xlink:href="#DejaVuSans-20" x="3600.041016"/>
     <use xlink:href="#DejaVuSans-74" x="3631.828125"/>
     <use xlink:href="#DejaVuSans-6f" x="3671.037109"/>
     <use xlink:href="#DejaVuSans-20" x="3732.21875"/>
     <use xlink:href="#DejaVuSans-61" x="3764.005859"/>
     <use xlink:href="#DejaVuSans-20" x="3825.285156"/>
     <use xlink:href="#DejaVuSans-76" x="3857.072266"/>
     <use xlink:href="#DejaVuSans-61" x="3916.251953"/>
     <use xlink:href="#DejaVuSans-6c" x="3977.53125"/>
     <use xlink:href="#DejaVuSans-6c" x="4005.314453"/>
     <use xlink:href="#DejaVuSans-65" x="4033.097656"/>
     <use xlink:href="#DejaVuSans-79" x="4094.621094"/>
     <use xlink:href="#DejaVuSans-20" x="4153.800781"/>
     <use xlink:href="#DejaVuSans-69" x="4185.587891"/>
     <use xlink:href="#DejaVuSans-6e" x="4213.371094"/>
     <use xlink:href="#DejaVuSans-20" x="4276.75"/>
     <use xlink:href="#DejaVuSans-74" x="4308.537109"/>
     <use xlink:href="#DejaVuSans-68" x="4347.746094"/>
     <use xlink:href="#DejaVuSans-65" x="4411.125"/>
    </g>
    <!-- first quarter, ~1.4 std below the mean. -->
    <g style="fill: #2f3b4a" transform="translate(52.160938 426.845694) scale(0.1 -0.1)">
     <defs>
      <path id="DejaVuSans-71" d="M 947 1747 
Q 947 1113 1208 752 
Q 1469 391 1925 391 
Q 2381 391 2643 752 
Q 2906 1113 2906 1747 
Q 2906 2381 2643 2742 
Q 2381 3103 1925 3103 
Q 1469 3103 1208 2742 
Q 947 2381 947 1747 
z
M 2906 525 
Q 2725 213 2448 61 
Q 2172 -91 1784 -91 
Q 1150 -91 751 415 
Q 353 922 353 1747 
Q 353 2572 751 3078 
Q 1150 3584 1784 3584 
Q 2172 3584 2448 3432 
Q 2725 3281 2906 2969 
L 2906 3500 
L 3481 3500 
L 3481 -1331 
L 2906 -1331 
L 2906 525 
z
" transform="scale(0.015625)"/>
      <path id="DejaVuSans-34" d="M 2419 4116 
L 825 1625 
L 2419 1625 
L 2419 4116 
z
M 2253 4666 
L 3047 4666 
L 3047 1625 
L 3713 1625 
L 3713 1100 
L 3047 1100 
L 3047 0 
L 2419 0 
L 2419 1100 
L 313 1100 
L 313 1709 
L 2253 4666 
z
" transform="scale(0.015625)"/>
     </defs>
     <use xlink:href="#DejaVuSans-66"/>
     <use xlink:href="#DejaVuSans-69" x="35.205078"/>
     <use xlink:href="#DejaVuSans-72" x="62.988281"/>
     <use xlink:href="#DejaVuSans-73" x="104.101562"/>
     <use xlink:href="#DejaVuSans-74" x="156.201172"/>
     <use xlink:href="#DejaVuSans-20" x="195.410156"/>
     <use xlink:href="#DejaVuSans-71" x="227.197266"/>
     <use xlink:href="#DejaVuSans-75" x="290.673828"/>
     <use xlink:href="#DejaVuSans-61" x="354.052734"/>
     <use xlink:href="#DejaVuSans-72" x="415.332031"/>
     <use xlink:href="#DejaVuSans-74" x="456.445312"/>
     <use xlink:href="#DejaVuSans-65" x="495.654297"/>
     <use xlink:href="#DejaVuSans-72" x="557.177734"/>
     <use xlink:href="#DejaVuSans-2c" x="598.291016"/>
     <use xlink:href="#DejaVuSans-20" x="630.078125"/>
     <use xlink:href="#DejaVuSans-7e" x="661.865234"/>
     <use xlink:href="#DejaVuSans-31" x="745.654297"/>
     <use xlink:href="#DejaVuSans-2e" x="809.277344"/>
     <use xlink:href="#DejaVuSans-34" x="841.064453"/>
     <use xlink:href="#DejaVuSans-20" x="904.6875"/>
     <use xlink:href="#DejaVuSans-73" x="936.474609"/>
     <use xlink:href="#DejaVuSans-74" x="988.574219"/>
     <use xlink:href="#DejaVuSans-64" x="1027.783203"/>
     <use xlink:href="#DejaVuSans-20" x="1091.259766"/>
     <use xlink:href="#DejaVuSans-62" x="1123.046875"/>
     <use xlink:href="#DejaVuSans-65" x="1186.523438"/>
     <use xlink:href="#DejaVuSans-6c" x="1248.046875"/>
     <use xlink:href="#DejaVuSans-6f" x="1275.830078"/>
     <use xlink:href="#DejaVuSans-77" x="1337.011719"/>
     <use xlink:href="#DejaVuSans-20" x="1418.798828"/>
     <use xlink:href="#DejaVuSans-74" x="1450.585938"/>
     <use xlink:href="#DejaVuSans-68" x="1489.794922"/>
     <use xlink:href="#DejaVuSans-65" x="1553.173828"/>
     <use xlink:href="#DejaVuSans-20" x="1614.697266"/>
     <use xlink:href="#DejaVuSans-6d" x="1646.484375"/>
     <use xlink:href="#DejaVuSans-65" x="1743.896484"/>
     <use xlink:href="#DejaVuSans-61" x="1805.419922"/>
     <use xlink:href="#DejaVuSans-6e" x="1866.699219"/>
     <use xlink:href="#DejaVuSans-2e" x="1930.078125"/>
    </g>
   </g>
   <g id="text_25">
    <!-- trend=down_then_up; volatility=low; seasonality={'period': 84, 'strength': 'strong'} -->
    <g style="fill: #556070" transform="translate(52.160938 448.416) scale(0.09 -0.09)">
     <defs>
      <path id="DejaVuSans-3d" d="M 678 2906 
L 4684 2906 
L 4684 2381 
L 678 2381 
L 678 2906 
z
M 678 1631 
L 4684 1631 
L 4684 1100 
L 678 1100 
L 678 1631 
z
" transform="scale(0.015625)"/>
      <path id="DejaVuSans-5f" d="M 3263 -1063 
L 3263 -1509 
L -63 -1509 
L -63 -1063 
L 3263 -1063 
z
" transform="scale(0.015625)"/>
      <path id="DejaVuSans-3b" d="M 750 3309 
L 1409 3309 
L 1409 2516 
L 750 2516 
L 750 3309 
z
M 750 794 
L 1409 794 
L 1409 256 
L 897 -744 
L 494 -744 
L 750 256 
L 750 794 
z
" transform="scale(0.015625)"/>
      <path id="DejaVuSans-7b" d="M 3272 -594 
L 3272 -1044 
L 3078 -1044 
Q 2300 -1044 2036 -812 
Q 1772 -581 1772 109 
L 1772 856 
Q 1772 1328 1603 1509 
Q 1434 1691 991 1691 
L 800 1691 
L 800 2138 
L 991 2138 
Q 1438 2138 1605 2317 
Q 1772 2497 1772 2963 
L 1772 3713 
Q 1772 4403 2036 4633 
Q 2300 4863 3078 4863 
L 3272 4863 
L 3272 4416 
L 3059 4416 
Q 2619 4416 2484 4278 
Q 2350 4141 2350 3700 
L 2350 2925 
Q 2350 2434 2208 2212 
Q 2066 1991 1722 1913 
Q 2069 1828 2209 1606 
Q 2350 1384 2350 897 
L 2350 122 
Q 2350 -319 2484 -456 
Q 2619 -594 3059 -594 
L 3272 -594 
z
" transform="scale(0.015625)"/>
      <path id="DejaVuSans-27" d="M 1147 4666 
L 1147 2931 
L 616 2931 
L 616 4666 
L 1147 4666 
z
" transform="scale(0.015625)"/>
      <path id="DejaVuSans-3a" d="M 750 794 
L 1409 794 
L 1409 0 
L 750 0 
L 750 794 
z
M 750 3309 
L 1409 3309 
L 1409 2516 
L 750 2516 
L 750 3309 
z
" transform="scale(0.015625)"/>
      <path id="DejaVuSans-38" d="M 2034 2216 
Q 1584 2216 1326 1975 
Q 1069 1734 1069 1313 
Q 1069 891 1326 650 
Q 1584 409 2034 409 
Q 2484 409 2743 651 
Q 3003 894 3003 1313 
Q 3003 1734 2745 1975 
Q 2488 2216 2034 2216 
z
M 1403 2484 
Q 997 2584 770 2862 
Q 544 3141 544 3541 
Q 544 4100 942 4425 
Q 1341 4750 2034 4750 
Q 2731 4750 3128 4425 
Q 3525 4100 3525 3541 
Q 3525 3141 3298 2862 
Q 3072 2584 2669 2484 
Q 3125 2378 3379 2068 
Q 3634 1759 3634 1313 
Q 3634 634 3220 271 
Q 2806 -91 2034 -91 
Q 1263 -91 848 271 
Q 434 634 434 1313 
Q 434 1759 690 2068 
Q 947 2378 1403 2484 
z
M 1172 3481 
Q 1172 3119 1398 2916 
Q 1625 2713 2034 2713 
Q 2441 2713 2670 2916 
Q 2900 3119 2900 3481 
Q 2900 3844 2670 4047 
Q 2441 4250 2034 4250 
Q 1625 4250 1398 4047 
Q 1172 3844 1172 3481 
z
" transform="scale(0.015625)"/>
      <path id="DejaVuSans-7d" d="M 800 -594 
L 1019 -594 
Q 1456 -594 1589 -459 
Q 1722 -325 1722 122 
L 1722 897 
Q 1722 1384 1862 1606 
Q 2003 1828 2350 1913 
Q 2003 1991 1862 2212 
Q 1722 2434 1722 2925 
L 1722 3700 
Q 1722 4144 1589 4280 
Q 1456 4416 1019 4416 
L 800 4416 
L 800 4863 
L 997 4863 
Q 1775 4863 2036 4633 
Q 2297 4403 2297 3713 
L 2297 2963 
Q 2297 2497 2465 2317 
Q 2634 2138 3078 2138 
L 3272 2138 
L 3272 1691 
L 3078 1691 
Q 2634 1691 2465 1509 
Q 2297 1328 2297 856 
L 2297 109 
Q 2297 -581 2036 -812 
Q 1775 -1044 997 -1044 
L 800 -1044 
L 800 -594 
z
" transform="scale(0.015625)"/>
     </defs>
     <use xlink:href="#DejaVuSans-74"/>
     <use xlink:href="#DejaVuSans-72" x="39.208984"/>
     <use xlink:href="#DejaVuSans-65" x="78.072266"/>
     <use xlink:href="#DejaVuSans-6e" x="139.595703"/>
     <use xlink:href="#DejaVuSans-64" x="202.974609"/>
     <use xlink:href="#DejaVuSans-3d" x="266.451172"/>
     <use xlink:href="#DejaVuSans-64" x="350.240234"/>
     <use xlink:href="#DejaVuSans-6f" x="413.716797"/>
     <use xlink:href="#DejaVuSans-77" x="474.898438"/>
     <use xlink:href="#DejaVuSans-6e" x="556.685547"/>
     <use xlink:href="#DejaVuSans-5f" x="620.064453"/>
     <use xlink:href="#DejaVuSans-74" x="670.064453"/>
     <use xlink:href="#DejaVuSans-68" x="709.273438"/>
     <use xlink:href="#DejaVuSans-65" x="772.652344"/>
     <use xlink:href="#DejaVuSans-6e" x="834.175781"/>
     <use xlink:href="#DejaVuSans-5f" x="897.554688"/>
     <use xlink:href="#DejaVuSans-75" x="947.554688"/>
     <use xlink:href="#DejaVuSans-70" x="1010.933594"/>
     <use xlink:href="#DejaVuSans-3b" x="1074.410156"/>
     <use xlink:href="#DejaVuSans-20" x="1108.101562"/>
     <use xlink:href="#DejaVuSans-76" x="1139.888672"/>
     <use xlink:href="#DejaVuSans-6f" x="1199.068359"/>
     <use xlink:href="#DejaVuSans-6c" x="1260.25"/>
     <use xlink:href="#DejaVuSans-61" x="1288.033203"/>
     <use xlink:href="#DejaVuSans-74" x="1349.3125"/>
     <use xlink:href="#DejaVuSans-69" x="1388.521484"/>
     <use xlink:href="#DejaVuSans-6c" x="1416.304688"/>
     <use xlink:href="#DejaVuSans-69" x="1444.087891"/>
     <use xlink:href="#DejaVuSans-74" x="1471.871094"/>
     <use xlink:href="#DejaVuSans-79" x="1511.080078"/>
     <use xlink:href="#DejaVuSans-3d" x="1570.259766"/>
     <use xlink:href="#DejaVuSans-6c" x="1654.048828"/>
     <use xlink:href="#DejaVuSans-6f" x="1681.832031"/>
     <use xlink:href="#DejaVuSans-77" x="1743.013672"/>
     <use xlink:href="#DejaVuSans-3b" x="1824.800781"/>
     <use xlink:href="#DejaVuSans-20" x="1858.492188"/>
     <use xlink:href="#DejaVuSans-73" x="1890.279297"/>
     <use xlink:href="#DejaVuSans-65" x="1942.378906"/>
     <use xlink:href="#DejaVuSans-61" x="2003.902344"/>
     <use xlink:href="#DejaVuSans-73" x="2065.181641"/>
     <use xlink:href="#DejaVuSans-6f" x="2117.28125"/>
     <use xlink:href="#DejaVuSans-6e" x="2178.462891"/>
     <use xlink:href="#DejaVuSans-61" x="2241.841797"/>
     <use xlink:href="#DejaVuSans-6c" x="2303.121094"/>
     <use xlink:href="#DejaVuSans-69" x="2330.904297"/>
     <use xlink:href="#DejaVuSans-74" x="2358.6875"/>
     <use xlink:href="#DejaVuSans-79" x="2397.896484"/>
     <use xlink:href="#DejaVuSans-3d" x="2457.076172"/>
     <use xlink:href="#DejaVuSans-7b" x="2540.865234"/>
     <use xlink:href="#DejaVuSans-27" x="2604.488281"/>
     <use xlink:href="#DejaVuSans-70" x="2631.978516"/>
     <use xlink:href="#DejaVuSans-65" x="2695.455078"/>
     <use xlink:href="#DejaVuSans-72" x="2756.978516"/>
     <use xlink:href="#DejaVuSans-69" x="2798.091797"/>
     <use xlink:href="#DejaVuSans-6f" x="2825.875"/>
     <use xlink:href="#DejaVuSans-64" x="2887.056641"/>
     <use xlink:href="#DejaVuSans-27" x="2950.533203"/>
     <use xlink:href="#DejaVuSans-3a" x="2978.023438"/>
     <use xlink:href="#DejaVuSans-20" x="3011.714844"/>
     <use xlink:href="#DejaVuSans-38" x="3043.501953"/>
     <use xlink:href="#DejaVuSans-34" x="3107.125"/>
     <use xlink:href="#DejaVuSans-2c" x="3170.748047"/>
     <use xlink:href="#DejaVuSans-20" x="3202.535156"/>
     <use xlink:href="#DejaVuSans-27" x="3234.322266"/>
     <use xlink:href="#DejaVuSans-73" x="3261.8125"/>
     <use xlink:href="#DejaVuSans-74" x="3313.912109"/>
     <use xlink:href="#DejaVuSans-72" x="3353.121094"/>
     <use xlink:href="#DejaVuSans-65" x="3391.984375"/>
     <use xlink:href="#DejaVuSans-6e" x="3453.507812"/>
     <use xlink:href="#DejaVuSans-67" x="3516.886719"/>
     <use xlink:href="#DejaVuSans-74" x="3580.363281"/>
     <use xlink:href="#DejaVuSans-68" x="3619.572266"/>
     <use xlink:href="#DejaVuSans-27" x="3682.951172"/>
     <use xlink:href="#DejaVuSans-3a" x="3710.441406"/>
     <use xlink:href="#DejaVuSans-20" x="3744.132812"/>
     <use xlink:href="#DejaVuSans-27" x="3775.919922"/>
     <use xlink:href="#DejaVuSans-73" x="3803.410156"/>
     <use xlink:href="#DejaVuSans-74" x="3855.509766"/>
     <use xlink:href="#DejaVuSans-72" x="3894.71875"/>
     <use xlink:href="#DejaVuSans-6f" x="3933.582031"/>
     <use xlink:href="#DejaVuSans-6e" x="3994.763672"/>
     <use xlink:href="#DejaVuSans-67" x="4058.142578"/>
     <use xlink:href="#DejaVuSans-27" x="4121.619141"/>
     <use xlink:href="#DejaVuSans-7d" x="4149.109375"/>
    </g>
   </g>
  </g>
  <g id="text_26">
   <!-- Classification Sample -->
   <g transform="translate(52.160938 20.877187) scale(0.18 -0.18)">
    <defs>
     <path id="DejaVuSans-Bold-6c" d="M 538 4863 
L 1656 4863 
L 1656 0 
L 538 0 
L 538 4863 
z
" transform="scale(0.015625)"/>
     <path id="DejaVuSans-Bold-73" d="M 3272 3391 
L 3272 2541 
Q 2913 2691 2578 2766 
Q 2244 2841 1947 2841 
Q 1628 2841 1473 2761 
Q 1319 2681 1319 2516 
Q 1319 2381 1436 2309 
Q 1553 2238 1856 2203 
L 2053 2175 
Q 2913 2066 3209 1816 
Q 3506 1566 3506 1031 
Q 3506 472 3093 190 
Q 2681 -91 1863 -91 
Q 1516 -91 1145 -36 
Q 775 19 384 128 
L 384 978 
Q 719 816 1070 734 
Q 1422 653 1784 653 
Q 2113 653 2278 743 
Q 2444 834 2444 1013 
Q 2444 1163 2330 1236 
Q 2216 1309 1875 1350 
L 1678 1375 
Q 931 1469 631 1722 
Q 331 1975 331 2491 
Q 331 3047 712 3315 
Q 1094 3584 1881 3584 
Q 2191 3584 2531 3537 
Q 2872 3491 3272 3391 
z
" transform="scale(0.015625)"/>
     <path id="DejaVuSans-Bold-66" d="M 2841 4863 
L 2841 4128 
L 2222 4128 
Q 1984 4128 1890 4042 
Q 1797 3956 1797 3744 
L 1797 3500 
L 2753 3500 
L 2753 2700 
L 1797 2700 
L 1797 0 
L 678 0 
L 678 2700 
L 122 2700 
L 122 3500 
L 678 3500 
L 678 3744 
Q 678 4316 997 4589 
Q 1316 4863 1984 4863 
L 2841 4863 
z
" transform="scale(0.015625)"/>
     <path id="DejaVuSans-Bold-63" d="M 3366 3391 
L 3366 2478 
Q 3138 2634 2908 2709 
Q 2678 2784 2431 2784 
Q 1963 2784 1702 2511 
Q 1441 2238 1441 1747 
Q 1441 1256 1702 982 
Q 1963 709 2431 709 
Q 2694 709 2930 787 
Q 3166 866 3366 1019 
L 3366 103 
Q 3103 6 2833 -42 
Q 2563 -91 2291 -91 
Q 1344 -91 809 395 
Q 275 881 275 1747 
Q 275 2613 809 3098 
Q 1344 3584 2291 3584 
Q 2566 3584 2833 3536 
Q 3100 3488 3366 3391 
z
" transform="scale(0.015625)"/>
     <path id="DejaVuSans-Bold-53" d="M 3834 4519 
L 3834 3531 
Q 3450 3703 3084 3790 
Q 2719 3878 2394 3878 
Q 1963 3878 1756 3759 
Q 1550 3641 1550 3391 
Q 1550 3203 1689 3098 
Q 1828 2994 2194 2919 
L 2706 2816 
Q 3484 2659 3812 2340 
Q 4141 2022 4141 1434 
Q 4141 663 3683 286 
Q 3225 -91 2284 -91 
Q 1841 -91 1394 -6 
Q 947 78 500 244 
L 500 1259 
Q 947 1022 1364 901 
Q 1781 781 2169 781 
Q 2563 781 2772 912 
Q 2981 1044 2981 1288 
Q 2981 1506 2839 1625 
Q 2697 1744 2272 1838 
L 1806 1941 
Q 1106 2091 782 2419 
Q 459 2747 459 3303 
Q 459 4000 909 4375 
Q 1359 4750 2203 4750 
Q 2588 4750 2994 4692 
Q 3400 4634 3834 4519 
z
" transform="scale(0.015625)"/>
     <path id="DejaVuSans-Bold-6d" d="M 3781 2919 
Q 3994 3244 4286 3414 
Q 4578 3584 4928 3584 
Q 5531 3584 5847 3212 
Q 6163 2841 6163 2131 
L 6163 0 
L 5038 0 
L 5038 1825 
Q 5041 1866 5042 1909 
Q 5044 1953 5044 2034 
Q 5044 2406 4934 2573 
Q 4825 2741 4581 2741 
Q 4263 2741 4089 2478 
Q 3916 2216 3909 1719 
L 3909 0 
L 2784 0 
L 2784 1825 
Q 2784 2406 2684 2573 
Q 2584 2741 2328 2741 
Q 2006 2741 1831 2477 
Q 1656 2213 1656 1722 
L 1656 0 
L 531 0 
L 531 3500 
L 1656 3500 
L 1656 2988 
Q 1863 3284 2130 3434 
Q 2397 3584 2719 3584 
Q 3081 3584 3359 3409 
Q 3638 3234 3781 2919 
z
" transform="scale(0.015625)"/>
    </defs>
    <use xlink:href="#DejaVuSans-Bold-43"/>
    <use xlink:href="#DejaVuSans-Bold-6c" x="73.388672"/>
    <use xlink:href="#DejaVuSans-Bold-61" x="107.666016"/>
    <use xlink:href="#DejaVuSans-Bold-73" x="175.146484"/>
    <use xlink:href="#DejaVuSans-Bold-73" x="234.667969"/>
    <use xlink:href="#DejaVuSans-Bold-69" x="294.189453"/>
    <use xlink:href="#DejaVuSans-Bold-66" x="328.466797"/>
    <use xlink:href="#DejaVuSans-Bold-69" x="371.972656"/>
    <use xlink:href="#DejaVuSans-Bold-63" x="406.25"/>
    <use xlink:href="#DejaVuSans-Bold-61" x="465.527344"/>
    <use xlink:href="#DejaVuSans-Bold-74" x="533.007812"/>
    <use xlink:href="#DejaVuSans-Bold-69" x="580.810547"/>
    <use xlink:href="#DejaVuSans-Bold-6f" x="615.087891"/>
    <use xlink:href="#DejaVuSans-Bold-6e" x="683.789062"/>
    <use xlink:href="#DejaVuSans-Bold-20" x="754.980469"/>
    <use xlink:href="#DejaVuSans-Bold-53" x="789.794922"/>
    <use xlink:href="#DejaVuSans-Bold-61" x="861.816406"/>
    <use xlink:href="#DejaVuSans-Bold-6d" x="929.296875"/>
    <use xlink:href="#DejaVuSans-Bold-70" x="1033.496094"/>
    <use xlink:href="#DejaVuSans-Bold-6c" x="1105.078125"/>
    <use xlink:href="#DejaVuSans-Bold-65" x="1139.355469"/>
   </g>
  </g>
  <g id="text_27">
   <!-- Representative UCR sample from the current length-filtered classification export pipeline. -->
   <g style="fill: #4b5563" transform="translate(52.160938 33.12) scale(0.11 -0.11)">
    <defs>
     <path id="DejaVuSans-52" d="M 2841 2188 
Q 3044 2119 3236 1894 
Q 3428 1669 3622 1275 
L 4263 0 
L 3584 0 
L 2988 1197 
Q 2756 1666 2539 1819 
Q 2322 1972 1947 1972 
L 1259 1972 
L 1259 0 
L 628 0 
L 628 4666 
L 2053 4666 
Q 2853 4666 3247 4331 
Q 3641 3997 3641 3322 
Q 3641 2881 3436 2590 
Q 3231 2300 2841 2188 
z
M 1259 4147 
L 1259 2491 
L 2053 2491 
Q 2509 2491 2742 2702 
Q 2975 2913 2975 3322 
Q 2975 3731 2742 3939 
Q 2509 4147 2053 4147 
L 1259 4147 
z
" transform="scale(0.015625)"/>
     <path id="DejaVuSans-55" d="M 556 4666 
L 1191 4666 
L 1191 1831 
Q 1191 1081 1462 751 
Q 1734 422 2344 422 
Q 2950 422 3222 751 
Q 3494 1081 3494 1831 
L 3494 4666 
L 4128 4666 
L 4128 1753 
Q 4128 841 3676 375 
Q 3225 -91 2344 -91 
Q 1459 -91 1007 375 
Q 556 841 556 1753 
L 556 4666 
z
" transform="scale(0.015625)"/>
     <path id="DejaVuSans-43" d="M 4122 4306 
L 4122 3641 
Q 3803 3938 3442 4084 
Q 3081 4231 2675 4231 
Q 1875 4231 1450 3742 
Q 1025 3253 1025 2328 
Q 1025 1406 1450 917 
Q 1875 428 2675 428 
Q 3081 428 3442 575 
Q 3803 722 4122 1019 
L 4122 359 
Q 3791 134 3420 21 
Q 3050 -91 2638 -91 
Q 1578 -91 968 557 
Q 359 1206 359 2328 
Q 359 3453 968 4101 
Q 1578 4750 2638 4750 
Q 3056 4750 3426 4639 
Q 3797 4528 4122 4306 
z
" transform="scale(0.015625)"/>
     <path id="DejaVuSans-2d" d="M 313 2009 
L 1997 2009 
L 1997 1497 
L 313 1497 
L 313 2009 
z
" transform="scale(0.015625)"/>
    </defs>
    <use xlink:href="#DejaVuSans-52"/>
    <use xlink:href="#DejaVuSans-65" x="64.982422"/>
    <use xlink:href="#DejaVuSans-70" x="126.505859"/>
    <use xlink:href="#DejaVuSans-72" x="189.982422"/>
    <use xlink:href="#DejaVuSans-65" x="228.845703"/>
    <use xlink:href="#DejaVuSans-73" x="290.369141"/>
    <use xlink:href="#DejaVuSans-65" x="342.46875"/>
    <use xlink:href="#DejaVuSans-6e" x="403.992188"/>
    <use xlink:href="#DejaVuSans-74" x="467.371094"/>
    <use xlink:href="#DejaVuSans-61" x="506.580078"/>
    <use xlink:href="#DejaVuSans-74" x="567.859375"/>
    <use xlink:href="#DejaVuSans-69" x="607.068359"/>
    <use xlink:href="#DejaVuSans-76" x="634.851562"/>
    <use xlink:href="#DejaVuSans-65" x="694.03125"/>
    <use xlink:href="#DejaVuSans-20" x="755.554688"/>
    <use xlink:href="#DejaVuSans-55" x="787.341797"/>
    <use xlink:href="#DejaVuSans-43" x="860.535156"/>
    <use xlink:href="#DejaVuSans-52" x="930.359375"/>
    <use xlink:href="#DejaVuSans-20" x="999.841797"/>
    <use xlink:href="#DejaVuSans-73" x="1031.628906"/>
    <use xlink:href="#DejaVuSans-61" x="1083.728516"/>
    <use xlink:href="#DejaVuSans-6d" x="1145.007812"/>
    <use xlink:href="#DejaVuSans-70" x="1242.419922"/>
    <use xlink:href="#DejaVuSans-6c" x="1305.896484"/>
    <use xlink:href="#DejaVuSans-65" x="1333.679688"/>
    <use xlink:href="#DejaVuSans-20" x="1395.203125"/>
    <use xlink:href="#DejaVuSans-66" x="1426.990234"/>
    <use xlink:href="#DejaVuSans-72" x="1462.195312"/>
    <use xlink:href="#DejaVuSans-6f" x="1501.058594"/>
    <use xlink:href="#DejaVuSans-6d" x="1562.240234"/>
    <use xlink:href="#DejaVuSans-20" x="1659.652344"/>
    <use xlink:href="#DejaVuSans-74" x="1691.439453"/>
    <use xlink:href="#DejaVuSans-68" x="1730.648438"/>
    <use xlink:href="#DejaVuSans-65" x="1794.027344"/>
    <use xlink:href="#DejaVuSans-20" x="1855.550781"/>
    <use xlink:href="#DejaVuSans-63" x="1887.337891"/>
    <use xlink:href="#DejaVuSans-75" x="1942.318359"/>
    <use xlink:href="#DejaVuSans-72" x="2005.697266"/>
    <use xlink:href="#DejaVuSans-72" x="2045.060547"/>
    <use xlink:href="#DejaVuSans-65" x="2083.923828"/>
    <use xlink:href="#DejaVuSans-6e" x="2145.447266"/>
    <use xlink:href="#DejaVuSans-74" x="2208.826172"/>
    <use xlink:href="#DejaVuSans-20" x="2248.035156"/>
    <use xlink:href="#DejaVuSans-6c" x="2279.822266"/>
    <use xlink:href="#DejaVuSans-65" x="2307.605469"/>
    <use xlink:href="#DejaVuSans-6e" x="2369.128906"/>
    <use xlink:href="#DejaVuSans-67" x="2432.507812"/>
    <use xlink:href="#DejaVuSans-74" x="2495.984375"/>
    <use xlink:href="#DejaVuSans-68" x="2535.193359"/>
    <use xlink:href="#DejaVuSans-2d" x="2598.572266"/>
    <use xlink:href="#DejaVuSans-66" x="2634.65625"/>
    <use xlink:href="#DejaVuSans-69" x="2669.861328"/>
    <use xlink:href="#DejaVuSans-6c" x="2697.644531"/>
    <use xlink:href="#DejaVuSans-74" x="2725.427734"/>
    <use xlink:href="#DejaVuSans-65" x="2764.636719"/>
    <use xlink:href="#DejaVuSans-72" x="2826.160156"/>
    <use xlink:href="#DejaVuSans-65" x="2865.023438"/>
    <use xlink:href="#DejaVuSans-64" x="2926.546875"/>
    <use xlink:href="#DejaVuSans-20" x="2990.023438"/>
    <use xlink:href="#DejaVuSans-63" x="3021.810547"/>
    <use xlink:href="#DejaVuSans-6c" x="3076.791016"/>
    <use xlink:href="#DejaVuSans-61" x="3104.574219"/>
    <use xlink:href="#DejaVuSans-73" x="3165.853516"/>
    <use xlink:href="#DejaVuSans-73" x="3217.953125"/>
    <use xlink:href="#DejaVuSans-69" x="3270.052734"/>
    <use xlink:href="#DejaVuSans-66" x="3297.835938"/>
    <use xlink:href="#DejaVuSans-69" x="3333.041016"/>
    <use xlink:href="#DejaVuSans-63" x="3360.824219"/>
    <use xlink:href="#DejaVuSans-61" x="3415.804688"/>
    <use xlink:href="#DejaVuSans-74" x="3477.083984"/>
    <use xlink:href="#DejaVuSans-69" x="3516.292969"/>
    <use xlink:href="#DejaVuSans-6f" x="3544.076172"/>
    <use xlink:href="#DejaVuSans-6e" x="3605.257812"/>
    <use xlink:href="#DejaVuSans-20" x="3668.636719"/>
    <use xlink:href="#DejaVuSans-65" x="3700.423828"/>
    <use xlink:href="#DejaVuSans-78" x="3760.197266"/>
    <use xlink:href="#DejaVuSans-70" x="3819.376953"/>
    <use xlink:href="#DejaVuSans-6f" x="3882.853516"/>
    <use xlink:href="#DejaVuSans-72" x="3944.035156"/>
    <use xlink:href="#DejaVuSans-74" x="3985.148438"/>
    <use xlink:href="#DejaVuSans-20" x="4024.357422"/>
    <use xlink:href="#DejaVuSans-70" x="4056.144531"/>
    <use xlink:href="#DejaVuSans-69" x="4119.621094"/>
    <use xlink:href="#DejaVuSans-70" x="4147.404297"/>
    <use xlink:href="#DejaVuSans-65" x="4210.880859"/>
    <use xlink:href="#DejaVuSans-6c" x="4272.404297"/>
    <use xlink:href="#DejaVuSans-69" x="4300.1875"/>
    <use xlink:href="#DejaVuSans-6e" x="4327.970703"/>
    <use xlink:href="#DejaVuSans-65" x="4391.349609"/>
    <use xlink:href="#DejaVuSans-2e" x="4452.873047"/>
   </g>
  </g>
 </g>
 <defs>
  <clipPath id="pf9e49fe6a8">
   <rect x="52.160938" y="64.224" width="907.2" height="247.68"/>
  </clipPath>
 </defs>
</svg>
